999
dxfrw 0.5.11
0
SECTION
2
HEADER
9
$ACADVER
1
AC1021
9
$HANDSEED
5
20000
9
$DWGCODEPAGE
3
ANSI_1252
9
$INSBASE
10
0
20
0
30
0
9
$EXTMIN
10
-5.740531871e-16
20
0
30
0
9
$EXTMAX
10
472.083587915
20
444.009077282
30
0
9
$LIMMIN
10
0
20
0
9
$LIMMAX
10
420
20
297
9
$ORTHOMODE
70
0
9
$LTSCALE
40
1
9
$TEXTSTYLE
7
STANDARD
9
$CLAYER
8
0
9
$DIMASZ
40
2.5
9
$DIMLFAC
40
1
9
$DIMSCALE
40
2.5
9
$DIMEXO
40
0.625
9
$DIMEXE
40
1.25
9
$DIMTXT
40
2.5
9
$DIMTSZ
40
0
9
$DIMAUNIT
70
0
9
$DIMADEC
70
2
9
$DIMLUNIT
70
2
9
$DIMSTYLE
2
STANDARD
9
$DIMGAP
40
0.625
9
$DIMTIH
70
0
9
$LUNITS
70
2
9
$LUPREC
70
1
9
$AUNITS
70
0
9
$AUPREC
70
2
9
$SPLINESEGS
70
8
9
$GRIDMODE
70
1
9
$SNAPSTYLE
70
0
9
$GRIDUNIT
10
0
20
0
9
$PINSBASE
10
45.2665912951
20
12.5
30
0
9
$PLIMMIN
10
0
20
0
9
$PLIMMAX
10
297
20
210
9
$INSUNITS
70
4
9
$PSVPSCALE
40
0.43735157381
0
ENDSEC
0
SECTION
2
CLASSES
0
ENDSEC
0
SECTION
2
TABLES
0
TABLE
2
VPORT
5
8
330
0
100
AcDbSymbolTable
70
1
0
VPORT
5
31
330
2
100
AcDbSymbolTableRecord
100
AcDbViewportTableRecord
2
*ACTIVE
70
0
10
0
20
0
11
1
21
1
12
449.204427499
22
237.17646896
13
0
23
0
14
10
24
10
15
10
25
10
16
0
26
0
36
1
17
0
27
0
37
0
40
591.423589874
41
1.85190615836
42
50
43
0
44
0
50
0
51
0
71
0
72
100
73
1
74
3
75
0
76
1
77
0
78
0
281
0
65
1
110
0
120
0
130
0
111
1
121
0
131
0
112
0
122
1
132
0
79
0
146
0
348
10020
60
7
61
5
292
1
282
1
141
0
142
0
63
250
421
3358443
0
ENDTAB
0
TABLE
2
LTYPE
5
5
330
0
100
AcDbSymbolTable
70
4
0
LTYPE
5
14
330
5
100
AcDbSymbolTableRecord
100
AcDbLinetypeTableRecord
2
ByBlock
70
0
3

72
65
73
0
40
0
0
LTYPE
5
15
330
5
100
AcDbSymbolTableRecord
100
AcDbLinetypeTableRecord
2
ByLayer
70
0
3

72
65
73
0
40
0
0
LTYPE
5
16
330
5
100
AcDbSymbolTableRecord
100
AcDbLinetypeTableRecord
2
Continuous
70
0
3
Solid line
72
65
73
0
40
0
0
LTYPE
5
32
330
5
100
AcDbSymbolTableRecord
100
AcDbLinetypeTableRecord
2
DOT
70
0
3
Dot . . . . . . . . . . . . . . . . . . . . . .
72
65
73
2
40
6.35
49
0
74
0
49
-6.35
74
0
0
LTYPE
5
33
330
5
100
AcDbSymbolTableRecord
100
AcDbLinetypeTableRecord
2
DOT2
70
0
3
Dot (.5x) .....................................
72
65
73
2
40
3.175
49
0
74
0
49
-3.175
74
0
0
LTYPE
5
34
330
5
100
AcDbSymbolTableRecord
100
AcDbLinetypeTableRecord
2
DOTX2
70
0
3
Dot (2x) .  .  .  .  .  .  .  .  .  .  .  .  .
72
65
73
2
40
12.7
49
0
74
0
49
-12.7
74
0
0
LTYPE
5
35
330
5
100
AcDbSymbolTableRecord
100
AcDbLinetypeTableRecord
2
DASHED
70
0
3
Dot . . . . . . . . . . . . . . . . . . . . . .
72
65
73
2
40
19.05
49
12.7
74
0
49
-6.35
74
0
0
LTYPE
5
36
330
5
100
AcDbSymbolTableRecord
100
AcDbLinetypeTableRecord
2
DASHED2
70
0
3
Dashed (.5x) _ _ _ _ _ _ _ _ _ _ _ _ _ _ _ _ _
72
65
73
2
40
9.525
49
6.35
74
0
49
-3.175
74
0
0
LTYPE
5
37
330
5
100
AcDbSymbolTableRecord
100
AcDbLinetypeTableRecord
2
DASHEDX2
70
0
3
Dashed (2x) ____  ____  ____  ____  ____  ___
72
65
73
2
40
38.1
49
25.4
74
0
49
-12.7
74
0
0
LTYPE
5
38
330
5
100
AcDbSymbolTableRecord
100
AcDbLinetypeTableRecord
2
DASHDOT
70
0
3
Dash dot __ . __ . __ . __ . __ . __ . __ . __
72
65
73
4
40
25.4
49
12.7
74
0
49
-6.35
74
0
49
0
74
0
49
-6.35
74
0
0
LTYPE
5
39
330
5
100
AcDbSymbolTableRecord
100
AcDbLinetypeTableRecord
2
DASHDOT2
70
0
3
Dash dot (.5x) _._._._._._._._._._._._._._._.
72
65
73
4
40
12.7
49
6.35
74
0
49
-3.175
74
0
49
0
74
0
49
-3.175
74
0
0
LTYPE
5
3A
330
5
100
AcDbSymbolTableRecord
100
AcDbLinetypeTableRecord
2
DASHDOTX2
70
0
3
Dash dot (2x) ____  .  ____  .  ____  .  ___
72
65
73
4
40
50.8
49
25.4
74
0
49
-12.7
74
0
49
0
74
0
49
-12.7
74
0
0
LTYPE
5
3B
330
5
100
AcDbSymbolTableRecord
100
AcDbLinetypeTableRecord
2
DIVIDE
70
0
3
Divide ____ . . ____ . . ____ . . ____ . . ____
72
65
73
6
40
31.75
49
12.7
74
0
49
-6.35
74
0
49
0
74
0
49
-6.35
74
0
49
0
74
0
49
-6.35
74
0
0
LTYPE
5
3C
330
5
100
AcDbSymbolTableRecord
100
AcDbLinetypeTableRecord
2
DIVIDE2
70
0
3
Divide (.5x) __..__..__..__..__..__..__..__.._
72
65
73
6
40
15.875
49
6.35
74
0
49
-3.175
74
0
49
0
74
0
49
-3.175
74
0
49
0
74
0
49
-3.175
74
0
0
LTYPE
5
3D
330
5
100
AcDbSymbolTableRecord
100
AcDbLinetypeTableRecord
2
DIVIDEX2
70
0
3
Divide (2x) ________  .  .  ________  .  .  _
72
65
73
6
40
63.5
49
25.4
74
0
49
-12.7
74
0
49
0
74
0
49
-12.7
74
0
49
0
74
0
49
-12.7
74
0
0
LTYPE
5
3E
330
5
100
AcDbSymbolTableRecord
100
AcDbLinetypeTableRecord
2
BORDER
70
0
3
Border __ __ . __ __ . __ __ . __ __ . __ __ .
72
65
73
6
40
44.45
49
12.7
74
0
49
-6.35
74
0
49
12.7
74
0
49
-6.35
74
0
49
0
74
0
49
-6.35
74
0
0
LTYPE
5
3F
330
5
100
AcDbSymbolTableRecord
100
AcDbLinetypeTableRecord
2
BORDER2
70
0
3
Border (.5x) __.__.__.__.__.__.__.__.__.__.__.
72
65
73
6
40
22.225
49
6.35
74
0
49
-3.175
74
0
49
6.35
74
0
49
-3.175
74
0
49
0
74
0
49
-3.175
74
0
0
LTYPE
5
40
330
5
100
AcDbSymbolTableRecord
100
AcDbLinetypeTableRecord
2
BORDERX2
70
0
3
Border (2x) ____  ____  .  ____  ____  .  ___
72
65
73
6
40
88.9
49
25.4
74
0
49
-12.7
74
0
49
25.4
74
0
49
-12.7
74
0
49
0
74
0
49
-12.7
74
0
0
LTYPE
5
41
330
5
100
AcDbSymbolTableRecord
100
AcDbLinetypeTableRecord
2
CENTER
70
0
3
Center ____ _ ____ _ ____ _ ____ _ ____ _ ____
72
65
73
4
40
50.8
49
31.75
74
0
49
-6.35
74
0
49
6.35
74
0
49
-6.35
74
0
0
LTYPE
5
42
330
5
100
AcDbSymbolTableRecord
100
AcDbLinetypeTableRecord
2
CENTER2
70
0
3
Center (.5x) ___ _ ___ _ ___ _ ___ _ ___ _ ___
72
65
73
4
40
28.575
49
19.05
74
0
49
-3.175
74
0
49
3.175
74
0
49
-3.175
74
0
0
LTYPE
5
43
330
5
100
AcDbSymbolTableRecord
100
AcDbLinetypeTableRecord
2
CENTERX2
70
0
3
Center (2x) ________  __  ________  __  _____
72
65
73
4
40
101.6
49
63.5
74
0
49
-12.7
74
0
49
12.7
74
0
49
-12.7
74
0
0
ENDTAB
0
TABLE
2
LAYER
5
2
330
0
100
AcDbSymbolTable
70
1
0
LAYER
5
10
330
2
100
AcDbSymbolTableRecord
100
AcDbLayerTableRecord
2
0
70
0
62
7
6
CONTINUOUS
370
0
390
F
0
ENDTAB
0
TABLE
2
STYLE
5
3
330
0
100
AcDbSymbolTable
70
3
0
STYLE
5
44
330
2
100
AcDbSymbolTableRecord
100
AcDbTextStyleTableRecord
2
Standard
70
0
40
0
41
1
50
0
71
0
42
1
3
txt
4

0
ENDTAB
0
TABLE
2
VIEW
5
6
330
0
100
AcDbSymbolTable
70
0
0
ENDTAB
0
TABLE
2
UCS
5
7
330
0
100
AcDbSymbolTable
70
0
0
ENDTAB
0
TABLE
2
APPID
5
9
330
0
100
AcDbSymbolTable
70
1
0
APPID
5
12
330
9
100
AcDbSymbolTableRecord
100
AcDbRegAppTableRecord
2
ACAD
70
0
0
ENDTAB
0
TABLE
2
DIMSTYLE
5
A
330
0
100
AcDbSymbolTable
70
1
100
AcDbDimStyleTable
71
1
0
DIMSTYLE
105
45
330
A
100
AcDbSymbolTableRecord
100
AcDbDimStyleTableRecord
2
Standard
70
0
40
1
41
2.5
42
0.625
43
0.38
44
1.25
45
0
46
0
47
0
48
0
140
2.5
141
0.09
142
0
143
25.4
144
1
145
0
146
1
147
0.625
148
0
71
0
72
0
73
0
74
1
75
0
76
0
77
0
78
0
79
0
170
0
171
2
172
0
173
0
174
0
175
0
176
0
177
0
178
0
179
0
271
4
272
4
273
2
274
2
275
0
276
0
277
2
278
46
279
0
280
0
281
0
282
0
283
1
284
0
285
0
286
0
288
0
289
3
340
Standard
341

371
-2
372
-2
0
ENDTAB
0
TABLE
2
BLOCK_RECORD
5
1
330
0
100
AcDbSymbolTable
70
2
0
BLOCK_RECORD
5
1F
330
1
100
AcDbSymbolTableRecord
100
AcDbBlockTableRecord
2
*Model_Space
70
0
280
1
281
0
0
BLOCK_RECORD
5
1E
330
1
100
AcDbSymbolTableRecord
100
AcDbBlockTableRecord
2
*Paper_Space
70
0
280
1
281
0
0
BLOCK_RECORD
5
46
330
1
100
AcDbSymbolTableRecord
100
AcDbBlockTableRecord
2
*D3
70
0
280
1
281
0
0
BLOCK_RECORD
5
49
330
1
100
AcDbSymbolTableRecord
100
AcDbBlockTableRecord
2
*D30
70
0
280
1
281
0
0
BLOCK_RECORD
5
4C
330
1
100
AcDbSymbolTableRecord
100
AcDbBlockTableRecord
2
*D31
70
0
280
1
281
0
0
BLOCK_RECORD
5
4F
330
1
100
AcDbSymbolTableRecord
100
AcDbBlockTableRecord
2
*D2
70
0
280
1
281
0
0
BLOCK_RECORD
5
52
330
1
100
AcDbSymbolTableRecord
100
AcDbBlockTableRecord
2
*D14
70
0
280
1
281
0
0
BLOCK_RECORD
5
55
330
1
100
AcDbSymbolTableRecord
100
AcDbBlockTableRecord
2
*D19
70
0
280
1
281
0
0
BLOCK_RECORD
5
58
330
1
100
AcDbSymbolTableRecord
100
AcDbBlockTableRecord
2
*D27
70
0
280
1
281
0
0
BLOCK_RECORD
5
5B
330
1
100
AcDbSymbolTableRecord
100
AcDbBlockTableRecord
2
*D12
70
0
280
1
281
0
0
BLOCK_RECORD
5
5E
330
1
100
AcDbSymbolTableRecord
100
AcDbBlockTableRecord
2
*D21
70
0
280
1
281
0
0
BLOCK_RECORD
5
61
330
1
100
AcDbSymbolTableRecord
100
AcDbBlockTableRecord
2
*D13
70
0
280
1
281
0
0
BLOCK_RECORD
5
64
330
1
100
AcDbSymbolTableRecord
100
AcDbBlockTableRecord
2
*D9
70
0
280
1
281
0
0
BLOCK_RECORD
5
67
330
1
100
AcDbSymbolTableRecord
100
AcDbBlockTableRecord
2
*D20
70
0
280
1
281
0
0
BLOCK_RECORD
5
6A
330
1
100
AcDbSymbolTableRecord
100
AcDbBlockTableRecord
2
*D8
70
0
280
1
281
0
0
BLOCK_RECORD
5
6D
330
1
100
AcDbSymbolTableRecord
100
AcDbBlockTableRecord
2
*D15
70
0
280
1
281
0
0
BLOCK_RECORD
5
70
330
1
100
AcDbSymbolTableRecord
100
AcDbBlockTableRecord
2
*D23
70
0
280
1
281
0
0
BLOCK_RECORD
5
73
330
1
100
AcDbSymbolTableRecord
100
AcDbBlockTableRecord
2
*D28
70
0
280
1
281
0
0
BLOCK_RECORD
5
76
330
1
100
AcDbSymbolTableRecord
100
AcDbBlockTableRecord
2
*D17
70
0
280
1
281
0
0
BLOCK_RECORD
5
79
330
1
100
AcDbSymbolTableRecord
100
AcDbBlockTableRecord
2
*D25
70
0
280
1
281
0
0
BLOCK_RECORD
5
7C
330
1
100
AcDbSymbolTableRecord
100
AcDbBlockTableRecord
2
*D7
70
0
280
1
281
0
0
BLOCK_RECORD
5
7F
330
1
100
AcDbSymbolTableRecord
100
AcDbBlockTableRecord
2
*D22
70
0
280
1
281
0
0
BLOCK_RECORD
5
82
330
1
100
AcDbSymbolTableRecord
100
AcDbBlockTableRecord
2
*D33
70
0
280
1
281
0
0
BLOCK_RECORD
5
85
330
1
100
AcDbSymbolTableRecord
100
AcDbBlockTableRecord
2
*D18
70
0
280
1
281
0
0
BLOCK_RECORD
5
88
330
1
100
AcDbSymbolTableRecord
100
AcDbBlockTableRecord
2
*D29
70
0
280
1
281
0
0
BLOCK_RECORD
5
8B
330
1
100
AcDbSymbolTableRecord
100
AcDbBlockTableRecord
2
*D11
70
0
280
1
281
0
0
BLOCK_RECORD
5
8E
330
1
100
AcDbSymbolTableRecord
100
AcDbBlockTableRecord
2
*D32
70
0
280
1
281
0
0
BLOCK_RECORD
5
91
330
1
100
AcDbSymbolTableRecord
100
AcDbBlockTableRecord
2
*D4
70
0
280
1
281
0
0
BLOCK_RECORD
5
94
330
1
100
AcDbSymbolTableRecord
100
AcDbBlockTableRecord
2
*D1
70
0
280
1
281
0
0
BLOCK_RECORD
5
97
330
1
100
AcDbSymbolTableRecord
100
AcDbBlockTableRecord
2
*D26
70
0
280
1
281
0
0
BLOCK_RECORD
5
9A
330
1
100
AcDbSymbolTableRecord
100
AcDbBlockTableRecord
2
*D10
70
0
280
1
281
0
0
BLOCK_RECORD
5
9D
330
1
100
AcDbSymbolTableRecord
100
AcDbBlockTableRecord
2
*D5
70
0
280
1
281
0
0
BLOCK_RECORD
5
A0
330
1
100
AcDbSymbolTableRecord
100
AcDbBlockTableRecord
2
*D24
70
0
280
1
281
0
0
BLOCK_RECORD
5
A3
330
1
100
AcDbSymbolTableRecord
100
AcDbBlockTableRecord
2
*D6
70
0
280
1
281
0
0
BLOCK_RECORD
5
A6
330
1
100
AcDbSymbolTableRecord
100
AcDbBlockTableRecord
2
*D34
70
0
280
1
281
0
0
BLOCK_RECORD
5
A9
330
1
100
AcDbSymbolTableRecord
100
AcDbBlockTableRecord
2
*D16
70
0
280
1
281
0
0
ENDTAB
0
ENDSEC
0
SECTION
2
BLOCKS
0
BLOCK
5
20
330
1F
100
AcDbEntity
8
0
100
AcDbBlockBegin
2
*Model_Space
70
0
10
0
20
0
30
0
3
*Model_Space
1

0
ENDBLK
5
21
330
1F
100
AcDbEntity
8
0
100
AcDbBlockEnd
0
BLOCK
5
1C
330
1B
100
AcDbEntity
8
0
100
AcDbBlockBegin
2
*Paper_Space
70
0
10
0
20
0
30
0
3
*Paper_Space
1

0
ENDBLK
5
1D
330
1F
100
AcDbEntity
8
0
100
AcDbBlockEnd
0
BLOCK
5
47
330
46
100
AcDbEntity
8
0
100
AcDbBlockBegin
2
*D3
70
1
10
0
20
0
3
*D3
1

0
LINE
5
AC
100
AcDbEntity
8
0
6
CONTINUOUS
62
7
370
0
100
AcDbLine
10
86
20
47.9102398768
11
141
21
47.9102398768
0
SOLID
5
AD
100
AcDbEntity
8
0
6
CONTINUOUS
62
7
370
0
100
AcDbTrace
10
86
20
47.9102398768
30
0
11
92.25
21
48.9509515212
31
0
12
92.25
22
46.8695282324
32
0
13
92.25
23
46.8695282324
33
0
0
SOLID
5
AE
100
AcDbEntity
8
0
6
CONTINUOUS
62
7
370
0
100
AcDbTrace
10
141
20
47.9102398768
30
0
11
134.75
21
46.8695282324
31
0
12
134.75
22
48.9509515212
32
0
13
134.75
23
48.9509515212
33
0
0
MTEXT
5
AF
100
AcDbEntity
8
0
6
CONTINUOUS
62
7
370
0
100
AcDbMText
10
113.5
20
52.5977398768
30
0
40
6.25
41
14.5833333333
71
5
72
1
1
55.0
7
standard
210
0
220
0
230
1
50
0
73
2
44
1
0
LINE
5
B0
100
AcDbEntity
8
0
6
CONTINUOUS
62
7
370
0
100
AcDbLine
10
86
20
32.5625
11
86
21
51.0352398768
0
LINE
5
B1
100
AcDbEntity
8
0
6
CONTINUOUS
62
7
370
0
100
AcDbLine
10
141
20
32.5625
11
141
21
51.0352398768
0
ENDBLK
5
48
330
46
100
AcDbEntity
8
0
100
AcDbBlockEnd
0
BLOCK
5
4A
330
49
100
AcDbEntity
8
0
100
AcDbBlockBegin
2
*D30
70
1
10
0
20
0
3
*D30
1

0
LINE
5
B2
100
AcDbEntity
8
0
6
CONTINUOUS
62
7
370
0
100
AcDbLine
10
225.141392006
20
318.507113625
11
340.962160597
21
367.55366359
0
SOLID
5
B3
100
AcDbEntity
8
0
6
CONTINUOUS
62
7
370
0
100
AcDbTrace
10
225.141392006
20
318.507113625
30
0
11
230.490804611
21
321.902605565
31
0
12
231.302448334
22
319.985952917
32
0
13
231.302448334
23
319.985952917
33
0
0
ENDBLK
5
4B
330
49
100
AcDbEntity
8
0
100
AcDbBlockEnd
0
BLOCK
5
4D
330
4C
100
AcDbEntity
8
0
100
AcDbBlockBegin
2
*D31
70
1
10
0
20
0
3
*D31
1

0
LINE
5
B4
100
AcDbEntity
8
0
6
CONTINUOUS
62
7
370
0
100
AcDbLine
10
343.325849752
20
324.416336513
11
351.598761794
21
352.189684083
0
LINE
5
B5
100
AcDbEntity
8
0
6
CONTINUOUS
62
7
370
0
100
AcDbLine
10
351.598761794
20
352.189684083
11
349.235072639
21
365.189974435
0
SOLID
5
B6
100
AcDbEntity
8
0
6
CONTINUOUS
62
7
370
0
100
AcDbTrace
10
343.325849752
20
324.416336513
30
0
11
344.112675278
21
330.703345843
31
0
12
346.107481559
22
330.109148227
32
0
13
346.107481559
23
330.109148227
33
0
0
ENDBLK
5
4E
330
4C
100
AcDbEntity
8
0
100
AcDbBlockEnd
0
BLOCK
5
50
330
4F
100
AcDbEntity
8
0
100
AcDbBlockBegin
2
*D2
70
1
10
0
20
0
3
*D2
1

0
LINE
5
B7
100
AcDbEntity
8
0
6
CONTINUOUS
62
7
370
0
100
AcDbLine
10
31
20
47.9102398768
11
86
21
47.9102398768
0
SOLID
5
B8
100
AcDbEntity
8
0
6
CONTINUOUS
62
7
370
0
100
AcDbTrace
10
31
20
47.9102398768
30
0
11
37.25
21
48.9509515212
31
0
12
37.25
22
46.8695282324
32
0
13
37.25
23
46.8695282324
33
0
0
SOLID
5
B9
100
AcDbEntity
8
0
6
CONTINUOUS
62
7
370
0
100
AcDbTrace
10
86
20
47.9102398768
30
0
11
79.75
21
46.8695282324
31
0
12
79.75
22
48.9509515212
32
0
13
79.75
23
48.9509515212
33
0
0
MTEXT
5
BA
100
AcDbEntity
8
0
6
CONTINUOUS
62
7
370
0
100
AcDbMText
10
58.5
20
52.5977398768
30
0
40
6.25
41
14.5833333333
71
5
72
1
1
55.0
7
standard
210
0
220
0
230
1
50
0
73
2
44
1
0
LINE
5
BB
100
AcDbEntity
8
0
6
CONTINUOUS
62
7
370
0
100
AcDbLine
10
31
20
32.5625
11
31
21
51.0352398768
0
LINE
5
BC
100
AcDbEntity
8
0
6
CONTINUOUS
62
7
370
0
100
AcDbLine
10
86
20
32.5625
11
86
21
51.0352398768
0
ENDBLK
5
51
330
4F
100
AcDbEntity
8
0
100
AcDbBlockEnd
0
BLOCK
5
53
330
52
100
AcDbEntity
8
0
100
AcDbBlockBegin
2
*D14
70
1
10
0
20
0
3
*D14
1

0
LINE
5
BD
100
AcDbEntity
8
0
6
CONTINUOUS
62
7
370
0
100
AcDbLine
10
24.8187361267
20
31
11
24.8187361267
21
2.93912877759e-16
0
SOLID
5
BE
100
AcDbEntity
8
0
6
CONTINUOUS
62
7
370
0
100
AcDbTrace
10
24.8187361267
20
31
30
0
11
25.8594477711
21
24.75
31
0
12
23.7780244822
22
24.75
32
0
13
23.7780244822
23
24.75
33
0
0
SOLID
5
BF
100
AcDbEntity
8
0
6
CONTINUOUS
62
7
370
0
100
AcDbTrace
10
24.8187361267
20
2.93912877759e-16
30
0
11
23.7780244822
21
6.25
31
0
12
25.8594477711
22
6.25
32
0
13
25.8594477711
23
6.25
33
0
0
MTEXT
5
C0
100
AcDbEntity
8
0
6
CONTINUOUS
62
7
370
0
100
AcDbMText
10
20.1312361267
20
15.5
30
0
40
6.25
41
13.1944444444
71
5
72
1
1
31.0
7
standard
210
0
220
0
230
1
50
90
73
2
44
1
0
LINE
5
C1
100
AcDbEntity
8
0
6
CONTINUOUS
62
7
370
0
100
AcDbLine
10
29.4375
20
31
11
21.6937361267
21
31
0
LINE
5
C2
100
AcDbEntity
8
0
6
CONTINUOUS
62
7
370
0
100
AcDbLine
10
27.3926921478
20
1.91351062367e-16
11
21.6937361267
21
6.76615002493e-16
0
ENDBLK
5
54
330
52
100
AcDbEntity
8
0
100
AcDbBlockEnd
0
BLOCK
5
56
330
55
100
AcDbEntity
8
0
100
AcDbBlockBegin
2
*D19
70
1
10
0
20
0
3
*D19
1

0
LINE
5
C3
100
AcDbEntity
8
0
6
CONTINUOUS
62
7
370
0
100
AcDbLine
10
60
20
301.370367252
11
0
21
301.370367252
0
SOLID
5
C4
100
AcDbEntity
8
0
6
CONTINUOUS
62
7
370
0
100
AcDbTrace
10
60
20
301.370367252
30
0
11
53.75
21
300.329655608
31
0
12
53.75
22
302.411078897
32
0
13
53.75
23
302.411078897
33
0
0
SOLID
5
C5
100
AcDbEntity
8
0
6
CONTINUOUS
62
7
370
0
100
AcDbTrace
10
0
20
301.370367252
30
0
11
6.25
21
302.411078897
31
0
12
6.25
22
300.329655608
32
0
13
6.25
23
300.329655608
33
0
0
MTEXT
5
C6
100
AcDbEntity
8
0
6
CONTINUOUS
62
7
370
0
100
AcDbMText
10
30
20
306.057867252
30
0
40
6.25
41
14.5833333333
71
5
72
1
1
60.0
7
standard
210
0
220
0
230
1
50
360
73
2
44
1
0
LINE
5
C7
100
AcDbEntity
8
0
6
CONTINUOUS
62
7
370
0
100
AcDbLine
10
60
20
311.9375
11
60
21
298.245367252
0
LINE
5
C8
100
AcDbEntity
8
0
6
CONTINUOUS
62
7
370
0
100
AcDbLine
10
-2.8702659355e-16
20
312.217235316
11
-5.740531871e-16
21
298.245367252
0
ENDBLK
5
57
330
55
100
AcDbEntity
8
0
100
AcDbBlockEnd
0
BLOCK
5
59
330
58
100
AcDbEntity
8
0
100
AcDbBlockBegin
2
*D27
70
1
10
0
20
0
3
*D27
1

0
LINE
5
C9
100
AcDbEntity
8
0
6
CONTINUOUS
62
7
370
0
100
AcDbLine
10
220
20
290.733766055
11
336
21
290.733766055
0
SOLID
5
CA
100
AcDbEntity
8
0
6
CONTINUOUS
62
7
370
0
100
AcDbTrace
10
220
20
290.733766055
30
0
11
226.25
21
291.7744777
31
0
12
226.25
22
289.693054411
32
0
13
226.25
23
289.693054411
33
0
0
SOLID
5
CB
100
AcDbEntity
8
0
6
CONTINUOUS
62
7
370
0
100
AcDbTrace
10
336
20
290.733766055
30
0
11
329.75
21
289.693054411
31
0
12
329.75
22
291.7744777
32
0
13
329.75
23
291.7744777
33
0
0
MTEXT
5
CC
100
AcDbEntity
8
0
6
CONTINUOUS
62
7
370
0
100
AcDbMText
10
278
20
295.421266055
30
0
40
6.25
41
16.6666666667
71
5
72
1
1
116.0
7
standard
210
0
220
0
230
1
50
0
73
2
44
1
0
LINE
5
CD
100
AcDbEntity
8
0
6
CONTINUOUS
62
7
370
0
100
AcDbLine
10
220
20
311.4375
11
220
21
287.608766055
0
LINE
5
CE
100
AcDbEntity
8
0
6
CONTINUOUS
62
7
370
0
100
AcDbLine
10
336
20
302.4375
11
336
21
287.608766055
0
ENDBLK
5
5A
330
58
100
AcDbEntity
8
0
100
AcDbBlockEnd
0
BLOCK
5
5C
330
5B
100
AcDbEntity
8
0
100
AcDbBlockBegin
2
*D12
70
1
10
0
20
0
3
*D12
1

0
LINE
5
CF
100
AcDbEntity
8
0
6
CONTINUOUS
62
7
370
0
100
AcDbLine
10
74.45620838
20
31
11
74.45620838
21
130
0
SOLID
5
D0
100
AcDbEntity
8
0
6
CONTINUOUS
62
7
370
0
100
AcDbTrace
10
74.45620838
20
31
30
0
11
73.4154967355
21
37.25
31
0
12
75.4969200244
22
37.25
32
0
13
75.4969200244
23
37.25
33
0
0
SOLID
5
D1
100
AcDbEntity
8
0
6
CONTINUOUS
62
7
370
0
100
AcDbTrace
10
74.45620838
20
130
30
0
11
75.4969200244
21
123.75
31
0
12
73.4154967355
22
123.75
32
0
13
73.4154967355
23
123.75
33
0
0
MTEXT
5
D2
100
AcDbEntity
8
0
6
CONTINUOUS
62
7
370
0
100
AcDbMText
10
69.76870838
20
80.5
30
0
40
6.25
41
14.5833333333
71
5
72
1
1
99.0
7
standard
210
0
220
0
230
1
50
90
73
2
44
1
0
LINE
5
D3
100
AcDbEntity
8
0
6
CONTINUOUS
62
7
370
0
100
AcDbLine
10
84.4375
20
31
11
71.33120838
21
31
0
LINE
5
D4
100
AcDbEntity
8
0
6
CONTINUOUS
62
7
370
0
100
AcDbLine
10
84.4375
20
130
11
71.33120838
21
130
0
ENDBLK
5
5D
330
5B
100
AcDbEntity
8
0
100
AcDbBlockEnd
0
BLOCK
5
5F
330
5E
100
AcDbEntity
8
0
100
AcDbBlockBegin
2
*D21
70
1
10
0
20
0
3
*D21
1

0
LINE
5
D5
100
AcDbEntity
8
0
6
CONTINUOUS
62
7
370
0
100
AcDbLine
10
60
20
370.508275034
11
155
21
370.508275034
0
SOLID
5
D6
100
AcDbEntity
8
0
6
CONTINUOUS
62
7
370
0
100
AcDbTrace
10
60
20
370.508275034
30
0
11
66.25
21
371.548986678
31
0
12
66.25
22
369.467563389
32
0
13
66.25
23
369.467563389
33
0
0
SOLID
5
D7
100
AcDbEntity
8
0
6
CONTINUOUS
62
7
370
0
100
AcDbTrace
10
155
20
370.508275034
30
0
11
148.75
21
369.467563389
31
0
12
148.75
22
371.548986678
32
0
13
148.75
23
371.548986678
33
0
0
MTEXT
5
D8
100
AcDbEntity
8
0
6
CONTINUOUS
62
7
370
0
100
AcDbMText
10
107.5
20
375.195775034
30
0
40
6.25
41
14.5833333333
71
5
72
1
1
95.0
7
standard
210
0
220
0
230
1
50
0
73
2
44
1
0
LINE
5
D9
100
AcDbEntity
8
0
6
CONTINUOUS
62
7
370
0
100
AcDbLine
10
60
20
359.5625
11
60
21
373.633275034
0
LINE
5
DA
100
AcDbEntity
8
0
6
CONTINUOUS
62
7
370
0
100
AcDbLine
10
155
20
359.5625
11
155
21
373.633275034
0
ENDBLK
5
60
330
5E
100
AcDbEntity
8
0
100
AcDbBlockEnd
0
BLOCK
5
62
330
61
100
AcDbEntity
8
0
100
AcDbBlockBegin
2
*D13
70
1
10
0
20
0
3
*D13
1

0
LINE
5
DB
100
AcDbEntity
8
0
6
CONTINUOUS
62
7
370
0
100
AcDbLine
10
24.8187361267
20
31
11
24.8187361267
21
255
0
SOLID
5
DC
100
AcDbEntity
8
0
6
CONTINUOUS
62
7
370
0
100
AcDbTrace
10
24.8187361267
20
31
30
0
11
23.7780244822
21
37.25
31
0
12
25.8594477711
22
37.25
32
0
13
25.8594477711
23
37.25
33
0
0
SOLID
5
DD
100
AcDbEntity
8
0
6
CONTINUOUS
62
7
370
0
100
AcDbTrace
10
24.8187361267
20
255
30
0
11
25.8594477711
21
248.75
31
0
12
23.7780244822
22
248.75
32
0
13
23.7780244822
23
248.75
33
0
0
MTEXT
5
DE
100
AcDbEntity
8
0
6
CONTINUOUS
62
7
370
0
100
AcDbMText
10
20.1312361267
20
143
30
0
40
6.25
41
20.1388888889
71
5
72
1
1
224.0
7
standard
210
0
220
0
230
1
50
90
73
2
44
1
0
LINE
5
DF
100
AcDbEntity
8
0
6
CONTINUOUS
62
7
370
0
100
AcDbLine
10
29.4375
20
31
11
21.6937361267
21
31
0
LINE
5
E0
100
AcDbEntity
8
0
6
CONTINUOUS
62
7
370
0
100
AcDbLine
10
29.4375
20
255
11
21.6937361267
21
255
0
ENDBLK
5
63
330
61
100
AcDbEntity
8
0
100
AcDbBlockEnd
0
BLOCK
5
65
330
64
100
AcDbEntity
8
0
100
AcDbBlockBegin
2
*D9
70
1
10
0
20
0
3
*D9
1

0
LINE
5
E1
100
AcDbEntity
8
0
6
CONTINUOUS
62
7
370
0
100
AcDbLine
10
141
20
149.592514532
11
196
21
149.592514532
0
SOLID
5
E2
100
AcDbEntity
8
0
6
CONTINUOUS
62
7
370
0
100
AcDbTrace
10
141
20
149.592514532
30
0
11
147.25
21
150.633226177
31
0
12
147.25
22
148.551802888
32
0
13
147.25
23
148.551802888
33
0
0
SOLID
5
E3
100
AcDbEntity
8
0
6
CONTINUOUS
62
7
370
0
100
AcDbTrace
10
196
20
149.592514532
30
0
11
189.75
21
148.551802888
31
0
12
189.75
22
150.633226177
32
0
13
189.75
23
150.633226177
33
0
0
MTEXT
5
E4
100
AcDbEntity
8
0
6
CONTINUOUS
62
7
370
0
100
AcDbMText
10
168.5
20
154.280014532
30
0
40
6.25
41
14.5833333333
71
5
72
1
1
55.0
7
standard
210
0
220
0
230
1
50
0
73
2
44
1
0
LINE
5
E5
100
AcDbEntity
8
0
6
CONTINUOUS
62
7
370
0
100
AcDbLine
10
141
20
131.5625
11
141
21
152.717514532
0
LINE
5
E6
100
AcDbEntity
8
0
6
CONTINUOUS
62
7
370
0
100
AcDbLine
10
196
20
131.5625
11
196
21
152.717514532
0
ENDBLK
5
66
330
64
100
AcDbEntity
8
0
100
AcDbBlockEnd
0
BLOCK
5
68
330
67
100
AcDbEntity
8
0
100
AcDbBlockBegin
2
*D20
70
1
10
0
20
0
3
*D20
1

0
LINE
5
E7
100
AcDbEntity
8
0
6
CONTINUOUS
62
7
370
0
100
AcDbLine
10
155
20
301.370367252
11
60
21
301.370367252
0
SOLID
5
E8
100
AcDbEntity
8
0
6
CONTINUOUS
62
7
370
0
100
AcDbTrace
10
155
20
301.370367252
30
0
11
148.75
21
300.329655608
31
0
12
148.75
22
302.411078897
32
0
13
148.75
23
302.411078897
33
0
0
SOLID
5
E9
100
AcDbEntity
8
0
6
CONTINUOUS
62
7
370
0
100
AcDbTrace
10
60
20
301.370367252
30
0
11
66.25
21
302.411078897
31
0
12
66.25
22
300.329655608
32
0
13
66.25
23
300.329655608
33
0
0
MTEXT
5
EA
100
AcDbEntity
8
0
6
CONTINUOUS
62
7
370
0
100
AcDbMText
10
107.5
20
306.057867252
30
0
40
6.25
41
14.5833333333
71
5
72
1
1
95.0
7
standard
210
0
220
0
230
1
50
360
73
2
44
1
0
LINE
5
EB
100
AcDbEntity
8
0
6
CONTINUOUS
62
7
370
0
100
AcDbLine
10
155
20
311.9375
11
155
21
298.245367252
0
LINE
5
EC
100
AcDbEntity
8
0
6
CONTINUOUS
62
7
370
0
100
AcDbLine
10
60
20
311.9375
11
60
21
298.245367252
0
ENDBLK
5
69
330
67
100
AcDbEntity
8
0
100
AcDbBlockEnd
0
BLOCK
5
6B
330
6A
100
AcDbEntity
8
0
100
AcDbBlockBegin
2
*D8
70
1
10
0
20
0
3
*D8
1

0
LINE
5
ED
100
AcDbEntity
8
0
6
CONTINUOUS
62
7
370
0
100
AcDbLine
10
86
20
149.627828735
11
141
21
149.627828735
0
SOLID
5
EE
100
AcDbEntity
8
0
6
CONTINUOUS
62
7
370
0
100
AcDbTrace
10
86
20
149.627828735
30
0
11
92.25
21
150.668540379
31
0
12
92.25
22
148.58711709
32
0
13
92.25
23
148.58711709
33
0
0
SOLID
5
EF
100
AcDbEntity
8
0
6
CONTINUOUS
62
7
370
0
100
AcDbTrace
10
141
20
149.627828735
30
0
11
134.75
21
148.58711709
31
0
12
134.75
22
150.668540379
32
0
13
134.75
23
150.668540379
33
0
0
MTEXT
5
F0
100
AcDbEntity
8
0
6
CONTINUOUS
62
7
370
0
100
AcDbMText
10
113.5
20
154.315328735
30
0
40
6.25
41
14.5833333333
71
5
72
1
1
55.0
7
standard
210
0
220
0
230
1
50
0
73
2
44
1
0
LINE
5
F1
100
AcDbEntity
8
0
6
CONTINUOUS
62
7
370
0
100
AcDbLine
10
86
20
131.5625
11
86
21
152.752828735
0
LINE
5
F2
100
AcDbEntity
8
0
6
CONTINUOUS
62
7
370
0
100
AcDbLine
10
141
20
131.5625
11
141
21
152.752828735
0
ENDBLK
5
6C
330
6A
100
AcDbEntity
8
0
100
AcDbBlockEnd
0
BLOCK
5
6E
330
6D
100
AcDbEntity
8
0
100
AcDbBlockBegin
2
*D15
70
1
10
0
20
0
3
*D15
1

0
LINE
5
F3
100
AcDbEntity
8
0
6
CONTINUOUS
62
7
370
0
100
AcDbLine
10
31
20
268.869641372
11
196
21
268.869641372
0
SOLID
5
F4
100
AcDbEntity
8
0
6
CONTINUOUS
62
7
370
0
100
AcDbTrace
10
31
20
268.869641372
30
0
11
37.25
21
269.910353017
31
0
12
37.25
22
267.828929728
32
0
13
37.25
23
267.828929728
33
0
0
SOLID
5
F5
100
AcDbEntity
8
0
6
CONTINUOUS
62
7
370
0
100
AcDbTrace
10
196
20
268.869641372
30
0
11
189.75
21
267.828929728
31
0
12
189.75
22
269.910353017
32
0
13
189.75
23
269.910353017
33
0
0
MTEXT
5
F6
100
AcDbEntity
8
0
6
CONTINUOUS
62
7
370
0
100
AcDbMText
10
113.5
20
273.557141372
30
0
40
6.25
41
18.0555555556
71
5
72
1
1
165.0
7
standard
210
0
220
0
230
1
50
0
73
2
44
1
0
LINE
5
F7
100
AcDbEntity
8
0
6
CONTINUOUS
62
7
370
0
100
AcDbLine
10
31
20
256.5625
11
31
21
271.994641372
0
LINE
5
F8
100
AcDbEntity
8
0
6
CONTINUOUS
62
7
370
0
100
AcDbLine
10
196
20
256.5625
11
196
21
271.994641372
0
ENDBLK
5
6F
330
6D
100
AcDbEntity
8
0
100
AcDbBlockEnd
0
BLOCK
5
71
330
70
100
AcDbEntity
8
0
100
AcDbBlockBegin
2
*D23
70
1
10
0
20
0
3
*D23
1

0
LINE
5
F9
100
AcDbEntity
8
0
6
CONTINUOUS
62
7
370
0
100
AcDbLine
10
220
20
395.32701116
11
294
21
395.32701116
0
SOLID
5
FA
100
AcDbEntity
8
0
6
CONTINUOUS
62
7
370
0
100
AcDbTrace
10
220
20
395.32701116
30
0
11
226.25
21
396.367722805
31
0
12
226.25
22
394.286299516
32
0
13
226.25
23
394.286299516
33
0
0
SOLID
5
FB
100
AcDbEntity
8
0
6
CONTINUOUS
62
7
370
0
100
AcDbTrace
10
294
20
395.32701116
30
0
11
287.75
21
394.286299516
31
0
12
287.75
22
396.367722805
32
0
13
287.75
23
396.367722805
33
0
0
MTEXT
5
FC
100
AcDbEntity
8
0
6
CONTINUOUS
62
7
370
0
100
AcDbMText
10
257
20
400.01451116
30
0
40
6.25
41
15.2777777778
71
5
72
1
1
74.0
7
standard
210
0
220
0
230
1
50
0
73
2
44
1
0
LINE
5
FD
100
AcDbEntity
8
0
6
CONTINUOUS
62
7
370
0
100
AcDbLine
10
220
20
384.5625
11
220
21
398.45201116
0
LINE
5
FE
100
AcDbEntity
8
0
6
CONTINUOUS
62
7
370
0
100
AcDbLine
10
294
20
384.5625
11
294
21
398.45201116
0
ENDBLK
5
72
330
70
100
AcDbEntity
8
0
100
AcDbBlockEnd
0
BLOCK
5
74
330
73
100
AcDbEntity
8
0
100
AcDbBlockBegin
2
*D28
70
1
10
0
20
0
3
*D28
1

0
LINE
5
FF
100
AcDbEntity
8
0
6
CONTINUOUS
62
7
370
0
100
AcDbLine
10
223.515505172
20
380.19086786
11
255.86935102
21
361.053518414
0
LINE
5
100
100
AcDbEntity
8
0
6
CONTINUOUS
62
7
370
0
100
AcDbLine
10
255.86935102
20
361.053518414
11
343.325849752
21
371.099197322
0
SOLID
5
101
100
AcDbEntity
8
0
6
CONTINUOUS
62
7
370
0
100
AcDbTrace
10
223.515505172
20
380.19086786
30
0
11
229.424733427
21
377.904691541
31
0
12
228.365065822
22
376.113204038
32
0
13
228.365065822
23
376.113204038
33
0
0
ENDBLK
5
75
330
73
100
AcDbEntity
8
0
100
AcDbBlockEnd
0
BLOCK
5
77
330
76
100
AcDbEntity
8
0
100
AcDbBlockBegin
2
*D17
70
1
10
0
20
0
3
*D17
1

0
LINE
5
102
100
AcDbEntity
8
0
6
CONTINUOUS
62
7
370
0
100
AcDbLine
10
43.1373270773
20
358
11
43.1373270773
21
423
0
SOLID
5
103
100
AcDbEntity
8
0
6
CONTINUOUS
62
7
370
0
100
AcDbTrace
10
43.1373270773
20
358
30
0
11
42.0966154329
21
364.25
31
0
12
44.1780387217
22
364.25
32
0
13
44.1780387217
23
364.25
33
0
0
SOLID
5
104
100
AcDbEntity
8
0
6
CONTINUOUS
62
7
370
0
100
AcDbTrace
10
43.1373270773
20
423
30
0
11
44.1780387217
21
416.75
31
0
12
42.0966154329
22
416.75
32
0
13
42.0966154329
23
416.75
33
0
0
MTEXT
5
105
100
AcDbEntity
8
0
6
CONTINUOUS
62
7
370
0
100
AcDbMText
10
38.4498270773
20
390.5
30
0
40
6.25
41
14.5833333333
71
5
72
1
1
65.0
7
standard
210
0
220
0
230
1
50
90
73
2
44
1
0
LINE
5
106
100
AcDbEntity
8
0
6
CONTINUOUS
62
7
370
0
100
AcDbLine
10
58.4375
20
358
11
40.0123270773
21
358
0
LINE
5
107
100
AcDbEntity
8
0
6
CONTINUOUS
62
7
370
0
100
AcDbLine
10
59.8934180279
20
423
11
40.0123270773
21
423
0
ENDBLK
5
78
330
76
100
AcDbEntity
8
0
100
AcDbBlockEnd
0
BLOCK
5
7A
330
79
100
AcDbEntity
8
0
100
AcDbBlockBegin
2
*D25
70
1
10
0
20
0
3
*D25
1

0
LINE
5
108
100
AcDbEntity
8
0
6
CONTINUOUS
62
7
370
0
100
AcDbLine
10
203.868189612
20
300.5
11
203.868189612
21
334.5
0
SOLID
5
109
100
AcDbEntity
8
0
6
CONTINUOUS
62
7
370
0
100
AcDbTrace
10
203.868189612
20
313
30
0
11
204.908901256
21
306.75
31
0
12
202.827477967
22
306.75
32
0
13
202.827477967
23
306.75
33
0
0
SOLID
5
10A
100
AcDbEntity
8
0
6
CONTINUOUS
62
7
370
0
100
AcDbTrace
10
203.868189612
20
322
30
0
11
202.827477967
21
328.25
31
0
12
204.908901256
22
328.25
32
0
13
204.908901256
23
328.25
33
0
0
MTEXT
5
10B
100
AcDbEntity
8
0
6
CONTINUOUS
62
7
370
0
100
AcDbMText
10
199.180689612
20
328.423611111
30
0
40
6.25
41
9.72222222222
71
5
72
1
1
9.0
7
standard
210
0
220
0
230
1
50
90
73
2
44
1
0
LINE
5
10C
100
AcDbEntity
8
0
6
CONTINUOUS
62
7
370
0
100
AcDbLine
10
218.4375
20
313
11
200.743189612
21
313
0
LINE
5
10D
100
AcDbEntity
8
0
6
CONTINUOUS
62
7
370
0
100
AcDbLine
10
334.4375
20
322
11
200.743189612
21
322
0
ENDBLK
5
7B
330
79
100
AcDbEntity
8
0
100
AcDbBlockEnd
0
BLOCK
5
7D
330
7C
100
AcDbEntity
8
0
100
AcDbBlockBegin
2
*D7
70
1
10
0
20
0
3
*D7
1

0
LINE
5
10E
100
AcDbEntity
8
0
6
CONTINUOUS
62
7
370
0
100
AcDbLine
10
306
20
47.9102398768
11
361
21
47.9102398768
0
SOLID
5
10F
100
AcDbEntity
8
0
6
CONTINUOUS
62
7
370
0
100
AcDbTrace
10
306
20
47.9102398768
30
0
11
312.25
21
48.9509515212
31
0
12
312.25
22
46.8695282324
32
0
13
312.25
23
46.8695282324
33
0
0
SOLID
5
110
100
AcDbEntity
8
0
6
CONTINUOUS
62
7
370
0
100
AcDbTrace
10
361
20
47.9102398768
30
0
11
354.75
21
46.8695282324
31
0
12
354.75
22
48.9509515212
32
0
13
354.75
23
48.9509515212
33
0
0
MTEXT
5
111
100
AcDbEntity
8
0
6
CONTINUOUS
62
7
370
0
100
AcDbMText
10
333.5
20
52.5977398768
30
0
40
6.25
41
14.5833333333
71
5
72
1
1
55.0
7
standard
210
0
220
0
230
1
50
0
73
2
44
1
0
LINE
5
112
100
AcDbEntity
8
0
6
CONTINUOUS
62
7
370
0
100
AcDbLine
10
306
20
32.5625
11
306
21
51.0352398768
0
LINE
5
113
100
AcDbEntity
8
0
6
CONTINUOUS
62
7
370
0
100
AcDbLine
10
361
20
32.5625
11
361
21
51.0352398768
0
ENDBLK
5
7E
330
7C
100
AcDbEntity
8
0
100
AcDbBlockEnd
0
BLOCK
5
80
330
7F
100
AcDbEntity
8
0
100
AcDbBlockBegin
2
*D22
70
1
10
0
20
0
3
*D22
1

0
LINE
5
114
100
AcDbEntity
8
0
6
CONTINUOUS
62
7
370
0
100
AcDbLine
10
209.18649021
20
383
11
209.18649021
21
423
0
SOLID
5
115
100
AcDbEntity
8
0
6
CONTINUOUS
62
7
370
0
100
AcDbTrace
10
209.18649021
20
383
30
0
11
208.145778566
21
389.25
31
0
12
210.227201855
22
389.25
32
0
13
210.227201855
23
389.25
33
0
0
SOLID
5
116
100
AcDbEntity
8
0
6
CONTINUOUS
62
7
370
0
100
AcDbTrace
10
209.18649021
20
423
30
0
11
210.227201855
21
416.75
31
0
12
208.145778566
22
416.75
32
0
13
208.145778566
23
416.75
33
0
0
MTEXT
5
117
100
AcDbEntity
8
0
6
CONTINUOUS
62
7
370
0
100
AcDbMText
10
204.49899021
20
403
30
0
40
6.25
41
15.2777777778
71
5
72
1
1
40.0
7
standard
210
0
220
0
230
1
50
90
73
2
44
1
0
LINE
5
118
100
AcDbEntity
8
0
6
CONTINUOUS
62
7
370
0
100
AcDbLine
10
218.4375
20
383
11
206.06149021
21
383
0
LINE
5
119
100
AcDbEntity
8
0
6
CONTINUOUS
62
7
370
0
100
AcDbLine
10
214.715057675
20
423
11
206.06149021
21
423
0
ENDBLK
5
81
330
7F
100
AcDbEntity
8
0
100
AcDbBlockEnd
0
BLOCK
5
83
330
82
100
AcDbEntity
8
0
100
AcDbBlockBegin
2
*D33
70
1
10
0
20
0
3
*D33
1

0
LINE
5
11A
100
AcDbEntity
8
0
6
CONTINUOUS
62
7
370
0
100
AcDbLine
10
0
20
436.196577282
11
394
21
436.196577282
0
SOLID
5
11B
100
AcDbEntity
8
0
6
CONTINUOUS
62
7
370
0
100
AcDbTrace
10
0
20
436.196577282
30
0
11
6.25
21
437.237288927
31
0
12
6.25
22
435.155865638
32
0
13
6.25
23
435.155865638
33
0
0
SOLID
5
11C
100
AcDbEntity
8
0
6
CONTINUOUS
62
7
370
0
100
AcDbTrace
10
394
20
436.196577282
30
0
11
387.75
21
435.155865638
31
0
12
387.75
22
437.237288927
32
0
13
387.75
23
437.237288927
33
0
0
MTEXT
5
11D
100
AcDbEntity
8
0
6
CONTINUOUS
62
7
370
0
100
AcDbMText
10
197
20
440.884077282
30
0
40
6.25
41
20.1388888889
71
5
72
1
1
394.0
7
standard
210
0
220
0
230
1
50
0
73
2
44
1
0
LINE
5
11E
100
AcDbEntity
8
0
6
CONTINUOUS
62
7
370
0
100
AcDbLine
10
9.56755311834e-17
20
424.5625
11
1.91351062367e-16
21
439.321577282
0
LINE
5
11F
100
AcDbEntity
8
0
6
CONTINUOUS
62
7
370
0
100
AcDbLine
10
394
20
424.5625
11
394
21
439.321577282
0
ENDBLK
5
84
330
82
100
AcDbEntity
8
0
100
AcDbBlockEnd
0
BLOCK
5
86
330
85
100
AcDbEntity
8
0
100
AcDbBlockBegin
2
*D18
70
1
10
0
20
0
3
*D18
1

0
LINE
5
120
100
AcDbEntity
8
0
6
CONTINUOUS
62
7
370
0
100
AcDbLine
10
43.1373270773
20
358
11
43.1373270773
21
313.5
0
SOLID
5
121
100
AcDbEntity
8
0
6
CONTINUOUS
62
7
370
0
100
AcDbTrace
10
43.1373270773
20
358
30
0
11
44.1780387217
21
351.75
31
0
12
42.0966154329
22
351.75
32
0
13
42.0966154329
23
351.75
33
0
0
SOLID
5
122
100
AcDbEntity
8
0
6
CONTINUOUS
62
7
370
0
100
AcDbTrace
10
43.1373270773
20
313.5
30
0
11
42.0966154329
21
319.75
31
0
12
44.1780387217
22
319.75
32
0
13
44.1780387217
23
319.75
33
0
0
MTEXT
5
123
100
AcDbEntity
8
0
6
CONTINUOUS
62
7
370
0
100
AcDbMText
10
38.4498270773
20
335.75
30
0
40
6.25
41
15.9722222222
71
5
72
1
1
44.5
7
standard
210
0
220
0
230
1
50
90
73
2
44
1
0
LINE
5
124
100
AcDbEntity
8
0
6
CONTINUOUS
62
7
370
0
100
AcDbLine
10
58.4375
20
358
11
40.0123270773
21
358
0
LINE
5
125
100
AcDbEntity
8
0
6
CONTINUOUS
62
7
370
0
100
AcDbLine
10
58.4375
20
313.5
11
40.0123270773
21
313.5
0
ENDBLK
5
87
330
85
100
AcDbEntity
8
0
100
AcDbBlockEnd
0
BLOCK
5
89
330
88
100
AcDbEntity
8
0
100
AcDbBlockBegin
2
*D29
70
1
10
0
20
0
3
*D29
1

0
LINE
5
126
100
AcDbEntity
8
0
6
CONTINUOUS
62
7
370
0
100
AcDbLine
10
302.55221183
20
380.553953942
11
343.325849752
21
374.644731055
0
SOLID
5
127
100
AcDbEntity
8
0
6
CONTINUOUS
62
7
370
0
100
AcDbTrace
10
302.55221183
20
380.553953942
30
0
11
308.886858879
21
380.68747355
31
0
12
308.588322268
22
378.627570931
32
0
13
308.588322268
23
378.627570931
33
0
0
ENDBLK
5
8A
330
88
100
AcDbEntity
8
0
100
AcDbBlockEnd
0
BLOCK
5
8C
330
8B
100
AcDbEntity
8
0
100
AcDbBlockBegin
2
*D11
70
1
10
0
20
0
3
*D11
1

0
LINE
5
128
100
AcDbEntity
8
0
6
CONTINUOUS
62
7
370
0
100
AcDbLine
10
251
20
149.592514532
11
306
21
149.592514532
0
SOLID
5
129
100
AcDbEntity
8
0
6
CONTINUOUS
62
7
370
0
100
AcDbTrace
10
251
20
149.592514532
30
0
11
257.25
21
150.633226177
31
0
12
257.25
22
148.551802888
32
0
13
257.25
23
148.551802888
33
0
0
SOLID
5
12A
100
AcDbEntity
8
0
6
CONTINUOUS
62
7
370
0
100
AcDbTrace
10
306
20
149.592514532
30
0
11
299.75
21
148.551802888
31
0
12
299.75
22
150.633226177
32
0
13
299.75
23
150.633226177
33
0
0
MTEXT
5
12B
100
AcDbEntity
8
0
6
CONTINUOUS
62
7
370
0
100
AcDbMText
10
278.5
20
154.280014532
30
0
40
6.25
41
14.5833333333
71
5
72
1
1
55.0
7
standard
210
0
220
0
230
1
50
0
73
2
44
1
0
LINE
5
12C
100
AcDbEntity
8
0
6
CONTINUOUS
62
7
370
0
100
AcDbLine
10
251
20
131.5625
11
251
21
152.717514532
0
LINE
5
12D
100
AcDbEntity
8
0
6
CONTINUOUS
62
7
370
0
100
AcDbLine
10
306
20
131.5625
11
306
21
152.717514532
0
ENDBLK
5
8D
330
8B
100
AcDbEntity
8
0
100
AcDbBlockEnd
0
BLOCK
5
8F
330
8E
100
AcDbEntity
8
0
100
AcDbBlockBegin
2
*D32
70
1
10
0
20
0
3
*D32
1

0
LINE
5
12E
100
AcDbEntity
8
0
6
CONTINUOUS
62
7
370
0
100
AcDbLine
10
342.734927463
20
304.324978696
11
355.144295527
21
333.871093132
0
LINE
5
12F
100
AcDbEntity
8
0
6
CONTINUOUS
62
7
370
0
100
AcDbLine
10
355.144295527
20
333.871093132
11
351.007839506
21
365.780896724
0
SOLID
5
130
100
AcDbEntity
8
0
6
CONTINUOUS
62
7
370
0
100
AcDbTrace
10
342.734927463
20
304.324978696
30
0
11
344.195612977
21
310.490364212
31
0
12
346.114648004
22
309.6843695
32
0
13
346.114648004
23
309.6843695
33
0
0
ENDBLK
5
90
330
8E
100
AcDbEntity
8
0
100
AcDbBlockEnd
0
BLOCK
5
92
330
91
100
AcDbEntity
8
0
100
AcDbBlockBegin
2
*D4
70
1
10
0
20
0
3
*D4
1

0
LINE
5
131
100
AcDbEntity
8
0
6
CONTINUOUS
62
7
370
0
100
AcDbLine
10
141
20
47.9102398768
11
196
21
47.9102398768
0
SOLID
5
132
100
AcDbEntity
8
0
6
CONTINUOUS
62
7
370
0
100
AcDbTrace
10
141
20
47.9102398768
30
0
11
147.25
21
48.9509515212
31
0
12
147.25
22
46.8695282324
32
0
13
147.25
23
46.8695282324
33
0
0
SOLID
5
133
100
AcDbEntity
8
0
6
CONTINUOUS
62
7
370
0
100
AcDbTrace
10
196
20
47.9102398768
30
0
11
189.75
21
46.8695282324
31
0
12
189.75
22
48.9509515212
32
0
13
189.75
23
48.9509515212
33
0
0
MTEXT
5
134
100
AcDbEntity
8
0
6
CONTINUOUS
62
7
370
0
100
AcDbMText
10
168.5
20
52.5977398768
30
0
40
6.25
41
14.5833333333
71
5
72
1
1
55.0
7
standard
210
0
220
0
230
1
50
0
73
2
44
1
0
LINE
5
135
100
AcDbEntity
8
0
6
CONTINUOUS
62
7
370
0
100
AcDbLine
10
141
20
32.5625
11
141
21
51.0352398768
0
LINE
5
136
100
AcDbEntity
8
0
6
CONTINUOUS
62
7
370
0
100
AcDbLine
10
196
20
32.5625
11
196
21
51.0352398768
0
ENDBLK
5
93
330
91
100
AcDbEntity
8
0
100
AcDbBlockEnd
0
BLOCK
5
95
330
94
100
AcDbEntity
8
0
100
AcDbBlockBegin
2
*D1
70
1
10
0
20
0
3
*D1
1

0
LINE
5
137
100
AcDbEntity
8
0
6
CONTINUOUS
62
7
370
0
100
AcDbLine
10
0
20
47.9456825213
11
31
21
47.9456825213
0
SOLID
5
138
100
AcDbEntity
8
0
6
CONTINUOUS
62
7
370
0
100
AcDbTrace
10
0
20
47.9456825213
30
0
11
6.25
21
48.9863941657
31
0
12
6.25
22
46.9049708769
32
0
13
6.25
23
46.9049708769
33
0
0
SOLID
5
139
100
AcDbEntity
8
0
6
CONTINUOUS
62
7
370
0
100
AcDbTrace
10
31
20
47.9456825213
30
0
11
24.75
21
46.9049708769
31
0
12
24.75
22
48.9863941657
32
0
13
24.75
23
48.9863941657
33
0
0
MTEXT
5
13A
100
AcDbEntity
8
0
6
CONTINUOUS
62
7
370
0
100
AcDbMText
10
15.5
20
52.6331825213
30
0
40
6.25
41
13.1944444444
71
5
72
1
1
31.0
7
standard
210
0
220
0
230
1
50
0
73
2
44
1
0
LINE
5
13B
100
AcDbEntity
8
0
6
CONTINUOUS
62
7
370
0
100
AcDbLine
10
9.56755311834e-17
20
33.5262883475
11
1.91351062367e-16
21
51.0706825213
0
LINE
5
13C
100
AcDbEntity
8
0
6
CONTINUOUS
62
7
370
0
100
AcDbLine
10
31
20
32.5625
11
31
21
51.0706825213
0
ENDBLK
5
96
330
94
100
AcDbEntity
8
0
100
AcDbBlockEnd
0
BLOCK
5
98
330
97
100
AcDbEntity
8
0
100
AcDbBlockBegin
2
*D26
70
1
10
0
20
0
3
*D26
1

0
LINE
5
13D
100
AcDbEntity
8
0
6
CONTINUOUS
62
7
370
0
100
AcDbLine
10
336
20
340.371238308
11
394
21
340.371238308
0
SOLID
5
13E
100
AcDbEntity
8
0
6
CONTINUOUS
62
7
370
0
100
AcDbTrace
10
336
20
340.371238308
30
0
11
342.25
21
341.411949953
31
0
12
342.25
22
339.330526664
32
0
13
342.25
23
339.330526664
33
0
0
SOLID
5
13F
100
AcDbEntity
8
0
6
CONTINUOUS
62
7
370
0
100
AcDbTrace
10
394
20
340.371238308
30
0
11
387.75
21
339.330526664
31
0
12
387.75
22
341.411949953
32
0
13
387.75
23
341.411949953
33
0
0
MTEXT
5
140
100
AcDbEntity
8
0
6
CONTINUOUS
62
7
370
0
100
AcDbMText
10
365
20
345.058738308
30
0
40
6.25
41
14.5833333333
71
5
72
1
1
58.0
7
standard
210
0
220
0
230
1
50
0
73
2
44
1
0
LINE
5
141
100
AcDbEntity
8
0
6
CONTINUOUS
62
7
370
0
100
AcDbLine
10
336
20
323.5625
11
336
21
343.496238308
0
LINE
5
142
100
AcDbEntity
8
0
6
CONTINUOUS
62
7
370
0
100
AcDbLine
10
394
20
319.478691337
11
394
21
343.496238308
0
ENDBLK
5
99
330
97
100
AcDbEntity
8
0
100
AcDbBlockEnd
0
BLOCK
5
9B
330
9A
100
AcDbEntity
8
0
100
AcDbBlockBegin
2
*D10
70
1
10
0
20
0
3
*D10
1

0
LINE
5
143
100
AcDbEntity
8
0
6
CONTINUOUS
62
7
370
0
100
AcDbLine
10
196
20
149.592514532
11
251
21
149.592514532
0
SOLID
5
144
100
AcDbEntity
8
0
6
CONTINUOUS
62
7
370
0
100
AcDbTrace
10
196
20
149.592514532
30
0
11
202.25
21
150.633226177
31
0
12
202.25
22
148.551802888
32
0
13
202.25
23
148.551802888
33
0
0
SOLID
5
145
100
AcDbEntity
8
0
6
CONTINUOUS
62
7
370
0
100
AcDbTrace
10
251
20
149.592514532
30
0
11
244.75
21
148.551802888
31
0
12
244.75
22
150.633226177
32
0
13
244.75
23
150.633226177
33
0
0
MTEXT
5
146
100
AcDbEntity
8
0
6
CONTINUOUS
62
7
370
0
100
AcDbMText
10
223.5
20
154.280014532
30
0
40
6.25
41
14.5833333333
71
5
72
1
1
55.0
7
standard
210
0
220
0
230
1
50
0
73
2
44
1
0
LINE
5
147
100
AcDbEntity
8
0
6
CONTINUOUS
62
7
370
0
100
AcDbLine
10
196
20
131.5625
11
196
21
152.717514532
0
LINE
5
148
100
AcDbEntity
8
0
6
CONTINUOUS
62
7
370
0
100
AcDbLine
10
251
20
131.5625
11
251
21
152.717514532
0
ENDBLK
5
9C
330
9A
100
AcDbEntity
8
0
100
AcDbBlockEnd
0
BLOCK
5
9E
330
9D
100
AcDbEntity
8
0
100
AcDbBlockBegin
2
*D5
70
1
10
0
20
0
3
*D5
1

0
LINE
5
149
100
AcDbEntity
8
0
6
CONTINUOUS
62
7
370
0
100
AcDbLine
10
196
20
47.9102398768
11
251
21
47.9102398768
0
SOLID
5
14A
100
AcDbEntity
8
0
6
CONTINUOUS
62
7
370
0
100
AcDbTrace
10
196
20
47.9102398768
30
0
11
202.25
21
48.9509515212
31
0
12
202.25
22
46.8695282324
32
0
13
202.25
23
46.8695282324
33
0
0
SOLID
5
14B
100
AcDbEntity
8
0
6
CONTINUOUS
62
7
370
0
100
AcDbTrace
10
251
20
47.9102398768
30
0
11
244.75
21
46.8695282324
31
0
12
244.75
22
48.9509515212
32
0
13
244.75
23
48.9509515212
33
0
0
MTEXT
5
14C
100
AcDbEntity
8
0
6
CONTINUOUS
62
7
370
0
100
AcDbMText
10
223.5
20
52.5977398768
30
0
40
6.25
41
14.5833333333
71
5
72
1
1
55.0
7
standard
210
0
220
0
230
1
50
0
73
2
44
1
0
LINE
5
14D
100
AcDbEntity
8
0
6
CONTINUOUS
62
7
370
0
100
AcDbLine
10
196
20
32.5625
11
196
21
51.0352398768
0
LINE
5
14E
100
AcDbEntity
8
0
6
CONTINUOUS
62
7
370
0
100
AcDbLine
10
251
20
32.5625
11
251
21
51.0352398768
0
ENDBLK
5
9F
330
9D
100
AcDbEntity
8
0
100
AcDbBlockEnd
0
BLOCK
5
A1
330
A0
100
AcDbEntity
8
0
100
AcDbBlockBegin
2
*D24
70
1
10
0
20
0
3
*D24
1

0
LINE
5
14F
100
AcDbEntity
8
0
6
CONTINUOUS
62
7
370
0
100
AcDbLine
10
325.007258802
20
322
11
325.007258802
21
304
0
SOLID
5
150
100
AcDbEntity
8
0
6
CONTINUOUS
62
7
370
0
100
AcDbTrace
10
325.007258802
20
322
30
0
11
326.047970446
21
315.75
31
0
12
323.966547157
22
315.75
32
0
13
323.966547157
23
315.75
33
0
0
SOLID
5
151
100
AcDbEntity
8
0
6
CONTINUOUS
62
7
370
0
100
AcDbTrace
10
325.007258802
20
304
30
0
11
323.966547157
21
310.25
31
0
12
326.047970446
22
310.25
32
0
13
326.047970446
23
310.25
33
0
0
MTEXT
5
152
100
AcDbEntity
8
0
6
CONTINUOUS
62
7
370
0
100
AcDbMText
10
320.319758802
20
313
30
0
40
6.25
41
13.1944444444
71
5
72
1
1
18.0
7
standard
210
0
220
0
230
1
50
90
73
2
44
1
0
LINE
5
153
100
AcDbEntity
8
0
6
CONTINUOUS
62
7
370
0
100
AcDbLine
10
334.4375
20
322
11
321.882258802
21
322
0
LINE
5
154
100
AcDbEntity
8
0
6
CONTINUOUS
62
7
370
0
100
AcDbLine
10
334.4375
20
304
11
321.882258802
21
304
0
ENDBLK
5
A2
330
A0
100
AcDbEntity
8
0
100
AcDbBlockEnd
0
BLOCK
5
A4
330
A3
100
AcDbEntity
8
0
100
AcDbBlockBegin
2
*D6
70
1
10
0
20
0
3
*D6
1

0
LINE
5
155
100
AcDbEntity
8
0
6
CONTINUOUS
62
7
370
0
100
AcDbLine
10
251
20
47.9102398768
11
306
21
47.9102398768
0
SOLID
5
156
100
AcDbEntity
8
0
6
CONTINUOUS
62
7
370
0
100
AcDbTrace
10
251
20
47.9102398768
30
0
11
257.25
21
48.9509515212
31
0
12
257.25
22
46.8695282324
32
0
13
257.25
23
46.8695282324
33
0
0
SOLID
5
157
100
AcDbEntity
8
0
6
CONTINUOUS
62
7
370
0
100
AcDbTrace
10
306
20
47.9102398768
30
0
11
299.75
21
46.8695282324
31
0
12
299.75
22
48.9509515212
32
0
13
299.75
23
48.9509515212
33
0
0
MTEXT
5
158
100
AcDbEntity
8
0
6
CONTINUOUS
62
7
370
0
100
AcDbMText
10
278.5
20
52.5977398768
30
0
40
6.25
41
14.5833333333
71
5
72
1
1
55.0
7
standard
210
0
220
0
230
1
50
0
73
2
44
1
0
LINE
5
159
100
AcDbEntity
8
0
6
CONTINUOUS
62
7
370
0
100
AcDbLine
10
251
20
32.5625
11
251
21
51.0352398768
0
LINE
5
15A
100
AcDbEntity
8
0
6
CONTINUOUS
62
7
370
0
100
AcDbLine
10
306
20
32.5625
11
306
21
51.0352398768
0
ENDBLK
5
A5
330
A3
100
AcDbEntity
8
0
100
AcDbBlockEnd
0
BLOCK
5
A7
330
A6
100
AcDbEntity
8
0
100
AcDbBlockBegin
2
*D34
70
1
10
0
20
0
3
*D34
1

0
LINE
5
15B
100
AcDbEntity
8
0
6
CONTINUOUS
62
7
370
0
100
AcDbLine
10
411.048066862
20
423
11
411.048066862
21
0
0
SOLID
5
15C
100
AcDbEntity
8
0
6
CONTINUOUS
62
7
370
0
100
AcDbTrace
10
411.048066862
20
423
30
0
11
412.088778507
21
416.75
31
0
12
410.007355218
22
416.75
32
0
13
410.007355218
23
416.75
33
0
0
SOLID
5
15D
100
AcDbEntity
8
0
6
CONTINUOUS
62
7
370
0
100
AcDbTrace
10
411.048066862
20
0
30
0
11
410.007355218
21
6.25
31
0
12
412.088778507
22
6.25
32
0
13
412.088778507
23
6.25
33
0
0
MTEXT
5
15E
100
AcDbEntity
8
0
6
CONTINUOUS
62
7
370
0
100
AcDbMText
10
406.360566862
20
211.5
30
0
40
6.25
41
20.1388888889
71
5
72
1
1
423.0
7
standard
210
0
220
0
230
1
50
90
73
2
44
1
0
LINE
5
15F
100
AcDbEntity
8
0
6
CONTINUOUS
62
7
370
0
100
AcDbLine
10
395.5625
20
423
11
414.173066862
21
423
0
LINE
5
160
100
AcDbEntity
8
0
6
CONTINUOUS
62
7
370
0
100
AcDbLine
10
395.5625
20
0
11
414.173066862
21
0
0
ENDBLK
5
A8
330
A6
100
AcDbEntity
8
0
100
AcDbBlockEnd
0
BLOCK
5
AA
330
A9
100
AcDbEntity
8
0
100
AcDbBlockBegin
2
*D16
70
1
10
0
20
0
3
*D16
1

0
LINE
5
161
100
AcDbEntity
8
0
6
CONTINUOUS
62
7
370
0
100
AcDbLine
10
196
20
268.869641372
11
361
21
268.869641372
0
SOLID
5
162
100
AcDbEntity
8
0
6
CONTINUOUS
62
7
370
0
100
AcDbTrace
10
196
20
268.869641372
30
0
11
202.25
21
269.910353017
31
0
12
202.25
22
267.828929728
32
0
13
202.25
23
267.828929728
33
0
0
SOLID
5
163
100
AcDbEntity
8
0
6
CONTINUOUS
62
7
370
0
100
AcDbTrace
10
361
20
268.869641372
30
0
11
354.75
21
267.828929728
31
0
12
354.75
22
269.910353017
32
0
13
354.75
23
269.910353017
33
0
0
MTEXT
5
164
100
AcDbEntity
8
0
6
CONTINUOUS
62
7
370
0
100
AcDbMText
10
278.5
20
273.557141372
30
0
40
6.25
41
18.0555555556
71
5
72
1
1
165.0
7
standard
210
0
220
0
230
1
50
0
73
2
44
1
0
LINE
5
165
100
AcDbEntity
8
0
6
CONTINUOUS
62
7
370
0
100
AcDbLine
10
196
20
256.5625
11
196
21
271.994641372
0
LINE
5
166
100
AcDbEntity
8
0
6
CONTINUOUS
62
7
370
0
100
AcDbLine
10
361
20
256.5625
11
361
21
271.994641372
0
ENDBLK
5
AB
330
A9
100
AcDbEntity
8
0
100
AcDbBlockEnd
0
ENDSEC
0
SECTION
2
ENTITIES
0
LINE
5
167
100
AcDbEntity
8
0
6
ByLayer
62
256
370
60
100
AcDbLine
10
394
20
423
11
0
21
423
0
LINE
5
168
100
AcDbEntity
8
0
6
ByLayer
62
256
370
60
100
AcDbLine
10
0
20
423
11
0
21
0
0
CIRCLE
5
169
100
AcDbEntity
8
0
6
ByLayer
62
256
370
60
100
AcDbCircle
10
31
20
31
40
5.5
0
CIRCLE
5
16A
100
AcDbEntity
8
0
6
ByLayer
62
256
370
60
100
AcDbCircle
10
86
20
31
40
5.5
0
CIRCLE
5
16B
100
AcDbEntity
8
0
6
ByLayer
62
256
370
60
100
AcDbCircle
10
141
20
31
40
5.5
0
CIRCLE
5
16C
100
AcDbEntity
8
0
6
ByLayer
62
256
370
60
100
AcDbCircle
10
196
20
31
40
5.5
0
CIRCLE
5
16D
100
AcDbEntity
8
0
6
ByLayer
62
256
370
60
100
AcDbCircle
10
251
20
31
40
5.5
0
CIRCLE
5
16E
100
AcDbEntity
8
0
6
ByLayer
62
256
370
60
100
AcDbCircle
10
306
20
31
40
5.5
0
CIRCLE
5
16F
100
AcDbEntity
8
0
6
ByLayer
62
256
370
60
100
AcDbCircle
10
361
20
31
40
5.5
0
CIRCLE
5
170
100
AcDbEntity
8
0
6
ByLayer
62
256
370
60
100
AcDbCircle
10
86
20
130
40
5.5
0
CIRCLE
5
171
100
AcDbEntity
8
0
6
ByLayer
62
256
370
60
100
AcDbCircle
10
141
20
130
40
5.5
0
CIRCLE
5
172
100
AcDbEntity
8
0
6
ByLayer
62
256
370
60
100
AcDbCircle
10
196
20
130
40
5.5
0
CIRCLE
5
173
100
AcDbEntity
8
0
6
ByLayer
62
256
370
60
100
AcDbCircle
10
251
20
130
40
5.5
0
CIRCLE
5
174
100
AcDbEntity
8
0
6
ByLayer
62
256
370
60
100
AcDbCircle
10
306
20
130
40
5.5
0
CIRCLE
5
175
100
AcDbEntity
8
0
6
ByLayer
62
256
370
60
100
AcDbCircle
10
31
20
255
40
5.5
0
CIRCLE
5
176
100
AcDbEntity
8
0
6
ByLayer
62
256
370
60
100
AcDbCircle
10
196
20
255
40
5.5
0
CIRCLE
5
177
100
AcDbEntity
8
0
6
ByLayer
62
256
370
60
100
AcDbCircle
10
361
20
255
40
5.5
0
CIRCLE
5
178
100
AcDbEntity
8
0
6
ByLayer
62
256
370
60
100
AcDbCircle
10
60
20
358
40
5.5
0
CIRCLE
5
179
100
AcDbEntity
8
0
6
ByLayer
62
256
370
60
100
AcDbCircle
10
60
20
313.5
40
5.5
0
CIRCLE
5
17A
100
AcDbEntity
8
0
6
ByLayer
62
256
370
60
100
AcDbCircle
10
155
20
313.5
40
5.5
0
CIRCLE
5
17B
100
AcDbEntity
8
0
6
ByLayer
62
256
370
60
100
AcDbCircle
10
155
20
358
40
5.5
0
CIRCLE
5
17C
100
AcDbEntity
8
0
6
ByLayer
62
256
370
60
100
AcDbCircle
10
294
20
383
40
4.5
0
CIRCLE
5
17D
100
AcDbEntity
8
0
6
ByLayer
62
256
370
60
100
AcDbCircle
10
220
20
383
40
4.5
0
CIRCLE
5
17E
100
AcDbEntity
8
0
6
ByLayer
62
256
370
60
100
AcDbCircle
10
220
20
313
40
4.5
0
CIRCLE
5
17F
100
AcDbEntity
8
0
6
ByLayer
62
256
370
60
100
AcDbCircle
10
336
20
322
40
4.5
0
CIRCLE
5
180
100
AcDbEntity
8
0
6
ByLayer
62
256
370
60
100
AcDbCircle
10
336
20
304
40
4.5
0
DIMENSION
5
181
100
AcDbEntity
8
0
6
ByLayer
62
256
370
60
100
AcDbDimension
2
*D1
10
31
20
47.9456825213
30
0
11
15.5
21
52.6331825213
31
0
70
32
71
5
3
Standard
53
0
210
0
220
0
230
1
100
AcDbAlignedDimension
13
0
23
31.9637883475
33
0
14
31
24
31
34
0
100
AcDbRotatedDimension
0
DIMENSION
5
182
100
AcDbEntity
8
0
6
ByLayer
62
256
370
60
100
AcDbDimension
2
*D2
10
86
20
47.9102398768
30
0
11
58.5
21
52.5977398768
31
0
70
32
71
5
3
Standard
53
0
210
0
220
0
230
1
100
AcDbAlignedDimension
13
31
23
31
33
0
14
86
24
31
34
0
100
AcDbRotatedDimension
0
DIMENSION
5
183
100
AcDbEntity
8
0
6
ByLayer
62
256
370
60
100
AcDbDimension
2
*D3
10
141
20
47.9102398768
30
0
11
113.5
21
52.5977398768
31
0
70
32
71
5
3
Standard
53
0
210
0
220
0
230
1
100
AcDbAlignedDimension
13
86
23
31
33
0
14
141
24
31
34
0
100
AcDbRotatedDimension
0
DIMENSION
5
184
100
AcDbEntity
8
0
6
ByLayer
62
256
370
60
100
AcDbDimension
2
*D4
10
196
20
47.9102398768
30
0
11
168.5
21
52.5977398768
31
0
70
32
71
5
3
Standard
53
0
210
0
220
0
230
1
100
AcDbAlignedDimension
13
141
23
31
33
0
14
196
24
31
34
0
100
AcDbRotatedDimension
0
DIMENSION
5
185
100
AcDbEntity
8
0
6
ByLayer
62
256
370
60
100
AcDbDimension
2
*D5
10
251
20
47.9102398768
30
0
11
223.5
21
52.5977398768
31
0
70
32
71
5
3
Standard
53
0
210
0
220
0
230
1
100
AcDbAlignedDimension
13
196
23
31
33
0
14
251
24
31
34
0
100
AcDbRotatedDimension
0
DIMENSION
5
186
100
AcDbEntity
8
0
6
ByLayer
62
256
370
60
100
AcDbDimension
2
*D6
10
306
20
47.9102398768
30
0
11
278.5
21
52.5977398768
31
0
70
32
71
5
3
Standard
53
0
210
0
220
0
230
1
100
AcDbAlignedDimension
13
251
23
31
33
0
14
306
24
31
34
0
100
AcDbRotatedDimension
0
DIMENSION
5
187
100
AcDbEntity
8
0
6
ByLayer
62
256
370
60
100
AcDbDimension
2
*D7
10
361
20
47.9102398768
30
0
11
333.5
21
52.5977398768
31
0
70
32
71
5
3
Standard
53
0
210
0
220
0
230
1
100
AcDbAlignedDimension
13
306
23
31
33
0
14
361
24
31
34
0
100
AcDbRotatedDimension
0
DIMENSION
5
188
100
AcDbEntity
8
0
6
ByLayer
62
256
370
60
100
AcDbDimension
2
*D8
10
141
20
149.627828735
30
0
11
113.5
21
154.315328735
31
0
70
32
71
5
3
Standard
53
0
210
0
220
0
230
1
100
AcDbAlignedDimension
13
86
23
130
33
0
14
141
24
130
34
0
100
AcDbRotatedDimension
0
DIMENSION
5
189
100
AcDbEntity
8
0
6
ByLayer
62
256
370
60
100
AcDbDimension
2
*D9
10
196
20
149.592514532
30
0
11
168.5
21
154.280014532
31
0
70
32
71
5
3
Standard
53
0
210
0
220
0
230
1
100
AcDbAlignedDimension
13
141
23
130
33
0
14
196
24
130
34
0
100
AcDbRotatedDimension
0
DIMENSION
5
18A
100
AcDbEntity
8
0
6
ByLayer
62
256
370
60
100
AcDbDimension
2
*D10
10
251
20
149.592514532
30
0
11
223.5
21
154.280014532
31
0
70
32
71
5
3
Standard
53
0
210
0
220
0
230
1
100
AcDbAlignedDimension
13
196
23
130
33
0
14
251
24
130
34
0
100
AcDbRotatedDimension
0
DIMENSION
5
18B
100
AcDbEntity
8
0
6
ByLayer
62
256
370
60
100
AcDbDimension
2
*D11
10
306
20
149.592514532
30
0
11
278.5
21
154.280014532
31
0
70
32
71
5
3
Standard
53
0
210
0
220
0
230
1
100
AcDbAlignedDimension
13
251
23
130
33
0
14
306
24
130
34
0
100
AcDbRotatedDimension
0
DIMENSION
5
18C
100
AcDbEntity
8
0
6
ByLayer
62
256
370
60
100
AcDbDimension
2
*D12
10
74.45620838
20
130
30
0
11
69.76870838
21
80.5
31
0
70
32
71
5
3
Standard
53
0
210
0
220
0
230
1
100
AcDbAlignedDimension
13
86
23
31
33
0
14
86
24
130
34
0
50
90
100
AcDbRotatedDimension
0
DIMENSION
5
18D
100
AcDbEntity
8
0
6
ByLayer
62
256
370
60
100
AcDbDimension
2
*D13
10
24.8187361267
20
255
30
0
11
20.1312361267
21
143
31
0
70
32
71
5
3
Standard
53
0
210
0
220
0
230
1
100
AcDbAlignedDimension
13
31
23
31
33
0
14
31
24
255
34
0
50
90
100
AcDbRotatedDimension
0
DIMENSION
5
18E
100
AcDbEntity
8
0
6
ByLayer
62
256
370
60
100
AcDbDimension
2
*D14
10
24.8187361267
20
5.06569762607e-16
30
0
11
20.1312361267
21
15.5
31
0
70
32
71
5
3
Standard
53
0
210
0
220
0
230
1
100
AcDbAlignedDimension
13
31
23
31
33
0
14
28.9551921478
24
0
34
0
50
90
100
AcDbRotatedDimension
0
DIMENSION
5
18F
100
AcDbEntity
8
0
6
ByLayer
62
256
370
60
100
AcDbDimension
2
*D15
10
196
20
268.869641372
30
0
11
113.5
21
273.557141372
31
0
70
32
71
5
3
Standard
53
0
210
0
220
0
230
1
100
AcDbAlignedDimension
13
31
23
255
33
0
14
196
24
255
34
0
100
AcDbRotatedDimension
0
DIMENSION
5
190
100
AcDbEntity
8
0
6
ByLayer
62
256
370
60
100
AcDbDimension
2
*D16
10
361
20
268.869641372
30
0
11
278.5
21
273.557141372
31
0
70
32
71
5
3
Standard
53
0
210
0
220
0
230
1
100
AcDbAlignedDimension
13
196
23
255
33
0
14
361
24
255
34
0
100
AcDbRotatedDimension
0
DIMENSION
5
191
100
AcDbEntity
8
0
6
ByLayer
62
256
370
60
100
AcDbDimension
2
*D17
10
43.1373270773
20
423
30
0
11
38.4498270773
21
390.5
31
0
70
32
71
5
3
Standard
53
0
210
0
220
0
230
1
100
AcDbAlignedDimension
13
60
23
358
33
0
14
61.4559180279
24
423
34
0
50
90
100
AcDbRotatedDimension
0
DIMENSION
5
192
100
AcDbEntity
8
0
6
ByLayer
62
256
370
60
100
AcDbDimension
2
*D18
10
43.1373270773
20
313.5
30
0
11
38.4498270773
21
335.75
31
0
70
32
71
5
3
Standard
53
0
210
0
220
0
230
1
100
AcDbAlignedDimension
13
60
23
358
33
0
14
60
24
313.5
34
0
50
90
100
AcDbRotatedDimension
0
DIMENSION
5
193
100
AcDbEntity
8
0
6
ByLayer
62
256
370
60
100
AcDbDimension
2
*D19
10
-7.5985464391e-16
20
301.370367252
30
0
11
30
21
306.057867252
31
0
70
32
71
5
3
Standard
53
0
210
0
220
0
230
1
100
AcDbAlignedDimension
13
60
23
313.5
33
0
14
0
24
313.779735316
34
0
100
AcDbRotatedDimension
0
DIMENSION
5
194
100
AcDbEntity
8
0
6
ByLayer
62
256
370
60
100
AcDbDimension
2
*D20
10
60
20
301.370367252
30
0
11
107.5
21
306.057867252
31
0
70
32
71
5
3
Standard
53
0
210
0
220
0
230
1
100
AcDbAlignedDimension
13
155
23
313.5
33
0
14
60
24
313.5
34
0
100
AcDbRotatedDimension
0
DIMENSION
5
195
100
AcDbEntity
8
0
6
ByLayer
62
256
370
60
100
AcDbDimension
2
*D21
10
155
20
370.508275034
30
0
11
107.5
21
375.195775034
31
0
70
32
71
5
3
Standard
53
0
210
0
220
0
230
1
100
AcDbAlignedDimension
13
60
23
358
33
0
14
155
24
358
34
0
100
AcDbRotatedDimension
0
DIMENSION
5
196
100
AcDbEntity
8
0
6
ByLayer
62
256
370
60
100
AcDbDimension
2
*D22
10
209.18649021
20
423
30
0
11
204.49899021
21
403
31
0
70
32
71
5
3
Standard
53
0
210
0
220
0
230
1
100
AcDbAlignedDimension
13
220
23
383
33
0
14
216.277557675
24
423
34
0
50
90
100
AcDbRotatedDimension
0
DIMENSION
5
197
100
AcDbEntity
8
0
6
ByLayer
62
256
370
60
100
AcDbDimension
2
*D23
10
294
20
395.32701116
30
0
11
257
21
400.01451116
31
0
70
32
71
5
3
Standard
53
0
210
0
220
0
230
1
100
AcDbAlignedDimension
13
220
23
383
33
0
14
294
24
383
34
0
100
AcDbRotatedDimension
0
DIMENSION
5
198
100
AcDbEntity
8
0
6
ByLayer
62
256
370
60
100
AcDbDimension
2
*D24
10
325.007258802
20
304
30
0
11
320.319758802
21
313
31
0
70
32
71
5
3
Standard
53
0
210
0
220
0
230
1
100
AcDbAlignedDimension
13
336
23
322
33
0
14
336
24
304
34
0
50
90
100
AcDbRotatedDimension
0
DIMENSION
5
199
100
AcDbEntity
8
0
6
ByLayer
62
256
370
60
100
AcDbDimension
2
*D25
10
203.868189612
20
322
30
0
11
199.180689612
21
317.5
31
0
70
32
71
5
3
Standard
53
0
210
0
220
0
230
1
100
AcDbAlignedDimension
13
220
23
313
33
0
14
336
24
322
34
0
50
90
100
AcDbRotatedDimension
0
DIMENSION
5
19A
100
AcDbEntity
8
0
6
ByLayer
62
256
370
60
100
AcDbDimension
2
*D26
10
394
20
340.371238308
30
0
11
365
21
345.058738308
31
0
70
32
71
5
3
Standard
53
0
210
0
220
0
230
1
100
AcDbAlignedDimension
13
336
23
322
33
0
14
394
24
317.916191337
34
0
100
AcDbRotatedDimension
0
DIMENSION
5
19B
100
AcDbEntity
8
0
6
ByLayer
62
256
370
60
100
AcDbDimension
2
*D27
10
336
20
290.733766055
30
0
11
278
21
295.421266055
31
0
70
32
71
5
3
Standard
53
0
210
0
220
0
230
1
100
AcDbAlignedDimension
13
220
23
313
33
0
14
336
24
304
34
0
100
AcDbRotatedDimension
0
LEADER
5
19C
100
AcDbEntity
8
0
6
ByLayer
62
256
370
60
100
AcDbLeader
3
Standard
71
1
72
0
73
3
74
0
75
0
40
1
41
10
76
3
76
3
10
223.515505172
20
380.19086786
30
0
10
255.86935102
20
361.053518414
30
0
10
343.325849752
20
371.099197322
30
0
0
LEADER
5
19D
100
AcDbEntity
8
0
6
ByLayer
62
256
370
60
100
AcDbLeader
3
Standard
71
1
72
0
73
3
74
0
75
0
40
1
41
10
76
2
76
2
10
302.55221183
20
380.553953942
30
0
10
343.325849752
20
374.644731055
30
0
0
LEADER
5
19E
100
AcDbEntity
8
0
6
ByLayer
62
256
370
60
100
AcDbLeader
3
Standard
71
1
72
0
73
3
74
0
75
0
40
1
41
10
76
2
76
2
10
225.141392006
20
318.507113625
30
0
10
340.962160597
20
367.55366359
30
0
0
LEADER
5
19F
100
AcDbEntity
8
0
6
ByLayer
62
256
370
60
100
AcDbLeader
3
Standard
71
1
72
0
73
3
74
0
75
0
40
1
41
10
76
3
76
3
10
343.325849752
20
324.416336513
30
0
10
351.598761794
20
352.189684083
30
0
10
349.235072639
20
365.189974435
30
0
0
LEADER
5
1A0
100
AcDbEntity
8
0
6
ByLayer
62
256
370
60
100
AcDbLeader
3
Standard
71
1
72
0
73
3
74
0
75
0
40
1
41
10
76
3
76
3
10
342.734927463
20
304.324978696
30
0
10
355.144295527
20
333.871093132
30
0
10
351.007839506
20
365.780896724
30
0
0
MTEXT
5
1A1
100
AcDbEntity
8
0
6
ByLayer
62
256
370
60
100
AcDbMText
10
350.416917217
20
375.235653344
30
0
40
10
41
121.666670698
71
1
72
1
1
%%C=4.5mm (5 holes)
7

210
0
220
0
230
1
50
0
73
2
44
1
0
MTEXT
5
1A2
100
AcDbEntity
8
0
6
ByLayer
62
256
370
60
100
AcDbMText
10
157.074577894
20
203.837238488
30
0
40
10
41
173.611115143
71
1
72
1
1
%%C=5.5mm (all other holes)
7

210
0
220
0
230
1
50
0
73
2
44
1
0
LINE
5
1A3
100
AcDbEntity
8
0
6
ByLayer
62
256
370
60
100
AcDbLine
10
394
20
0
11
394
21
423
0
LINE
5
1A4
100
AcDbEntity
8
0
6
ByLayer
62
256
370
60
100
AcDbLine
10
0
20
0
11
394
21
0
0
DIMENSION
5
1A5
100
AcDbEntity
8
0
6
ByLayer
62
256
370
60
100
AcDbDimension
2
*D33
10
394
20
436.196577282
30
0
11
197
21
440.884077282
31
0
70
32
71
5
3
Standard
53
0
210
0
220
0
230
1
100
AcDbAlignedDimension
13
0
23
423
33
0
14
394
24
423
34
0
100
AcDbRotatedDimension
0
DIMENSION
5
1A6
100
AcDbEntity
8
0
6
ByLayer
62
256
370
60
100
AcDbDimension
2
*D34
10
411.048066862
20
-2.08778605147e-15
30
0
11
406.360566862
21
211.5
31
0
70
32
71
5
3
Standard
53
0
210
0
220
0
230
1
100
AcDbAlignedDimension
13
394
23
423
33
0
14
394
24
0
34
0
50
90
100
AcDbRotatedDimension
0
ENDSEC
0
SECTION
2
OBJECTS
0
DICTIONARY
5
C
330
0
100
AcDbDictionary
281
1
3
ACAD_GROUP
350
D
0
DICTIONARY
5
D
330
C
100
AcDbDictionary
281
1
0
ENDSEC
0
EOF
