%FSAX25Y25*%
%MOIN*%
G70*
G01*
G75*
G04 Layer_Color=16711935*
%ADD10R,0.41339X0.33071*%
%ADD11R,0.04134X0.12992*%
%ADD12R,0.05118X0.05906*%
%ADD13R,0.10000X0.15000*%
%ADD14O,0.10000X0.15000*%
%ADD15R,0.20000X0.09500*%
%ADD16R,0.20000X0.04500*%
%ADD17R,0.04331X0.05512*%
%ADD18R,0.05512X0.04331*%
%ADD19R,0.08661X0.07874*%
%ADD20R,0.04331X0.06693*%
%ADD21R,0.01575X0.08465*%
%ADD22R,0.01575X0.08465*%
%ADD23R,0.06693X0.04331*%
%ADD24R,0.07874X0.08661*%
%ADD25R,0.08000X0.07200*%
%ADD26O,0.06500X0.03000*%
%ADD27R,0.06500X0.03000*%
%ADD28O,0.04000X0.20000*%
%ADD29R,0.01181X0.03169*%
%ADD30R,0.03169X0.01181*%
%ADD31R,0.26378X0.26378*%
%ADD32R,0.06496X0.01181*%
%ADD33R,0.33071X0.41339*%
%ADD34R,0.12992X0.04134*%
%ADD35R,0.04331X0.02559*%
%ADD36O,0.07480X0.02362*%
%ADD37C,0.01969*%
%ADD38O,0.02362X0.08661*%
%ADD39R,0.10236X0.05906*%
%ADD40R,0.04000X0.16000*%
%ADD41R,0.16000X0.04000*%
%ADD42R,0.05906X0.05118*%
%ADD43O,0.03150X0.00984*%
%ADD44O,0.00984X0.03150*%
%ADD45R,0.10236X0.10236*%
%ADD46C,0.03543*%
%ADD47C,0.00500*%
%ADD48C,0.03150*%
%ADD49C,0.00787*%
%ADD50C,0.01000*%
%ADD51C,0.01181*%
%ADD52C,0.01969*%
%ADD53C,0.03937*%
%ADD54C,0.02362*%
%ADD55C,0.01575*%
%ADD56C,0.00900*%
%ADD57R,0.11909X0.03543*%
%ADD58R,0.09843X0.09843*%
%ADD59C,0.09843*%
%ADD60R,0.05906X0.05906*%
%ADD61C,0.05906*%
%ADD62C,0.05000*%
%ADD63C,0.14961*%
%ADD64C,0.06299*%
%ADD65R,0.06299X0.06299*%
%ADD66C,0.02598*%
%ADD67C,0.03150*%
%ADD68R,0.05709X0.02165*%
%ADD69O,0.07874X0.01378*%
%ADD70C,0.00984*%
%ADD71C,0.00394*%
%ADD72C,0.00600*%
%ADD73C,0.00720*%
%ADD74C,0.00800*%
%ADD75C,0.00300*%
%ADD76R,0.00100X0.00100*%
%ADD77R,3.15000X0.30000*%
%ADD78R,0.42139X0.33871*%
%ADD79R,0.04934X0.13792*%
%ADD80R,0.05918X0.06706*%
%ADD81R,0.10800X0.15800*%
%ADD82O,0.10800X0.15800*%
%ADD83R,0.20800X0.10300*%
%ADD84R,0.20800X0.05300*%
%ADD85R,0.05131X0.06312*%
%ADD86R,0.06312X0.05131*%
%ADD87R,0.09461X0.08674*%
%ADD88R,0.05131X0.07493*%
%ADD89R,0.02375X0.09265*%
%ADD90R,0.02375X0.09265*%
%ADD91R,0.07493X0.05131*%
%ADD92R,0.08674X0.09461*%
%ADD93R,0.08800X0.08000*%
%ADD94O,0.07300X0.03800*%
%ADD95R,0.07300X0.03800*%
%ADD96O,0.04800X0.20800*%
%ADD97R,0.01981X0.03969*%
%ADD98R,0.03969X0.01981*%
%ADD99R,0.27178X0.27178*%
%ADD100R,0.07296X0.01981*%
%ADD101R,0.33871X0.42139*%
%ADD102R,0.13792X0.04934*%
%ADD103R,0.05131X0.03359*%
%ADD104O,0.08280X0.03162*%
%ADD105C,0.02769*%
%ADD106O,0.03162X0.09461*%
%ADD107R,0.11036X0.06706*%
%ADD108R,0.04800X0.16800*%
%ADD109R,0.16800X0.04800*%
%ADD110R,0.06706X0.05918*%
%ADD111O,0.03950X0.01784*%
%ADD112O,0.01784X0.03950*%
%ADD113R,0.11036X0.11036*%
%ADD114R,0.10642X0.10642*%
%ADD115C,0.10642*%
%ADD116R,0.06706X0.06706*%
%ADD117C,0.06706*%
%ADD118C,0.05800*%
%ADD119C,0.15761*%
%ADD120C,0.07099*%
%ADD121R,0.07099X0.07099*%
%ADD122C,0.03950*%
%ADD123R,0.06509X0.02965*%
%ADD124O,0.08674X0.02178*%
%ADD125C,0.03398*%
D56*
X0638322Y0370148D02*
X0637894Y0369720D01*
X0638322Y0369291D01*
X0638751Y0369720D01*
X0638322Y0370148D01*
X0647149Y0376147D02*
X0646720Y0377004D01*
X0645863Y0377861D01*
X0645007Y0378289D01*
X0643293D01*
X0642436Y0377861D01*
X0641579Y0377004D01*
X0641150Y0376147D01*
X0640722Y0374862D01*
Y0372719D01*
X0641150Y0371434D01*
X0641579Y0370577D01*
X0642436Y0369720D01*
X0643293Y0369291D01*
X0645007D01*
X0645863Y0369720D01*
X0646720Y0370577D01*
X0647149Y0371434D01*
Y0372719D01*
X0645007D02*
X0647149D01*
X0649206Y0378289D02*
Y0369291D01*
Y0378289D02*
X0653062D01*
X0654347Y0377861D01*
X0654776Y0377432D01*
X0655204Y0376575D01*
Y0375718D01*
X0654776Y0374862D01*
X0654347Y0374433D01*
X0653062Y0374005D01*
X0649206D02*
X0653062D01*
X0654347Y0373576D01*
X0654776Y0373148D01*
X0655204Y0372291D01*
Y0371005D01*
X0654776Y0370148D01*
X0654347Y0369720D01*
X0653062Y0369291D01*
X0649206D01*
X0663217Y0377004D02*
X0662360Y0377861D01*
X0661074Y0378289D01*
X0659361D01*
X0658075Y0377861D01*
X0657218Y0377004D01*
Y0376147D01*
X0657647Y0375290D01*
X0658075Y0374862D01*
X0658932Y0374433D01*
X0661503Y0373576D01*
X0662360Y0373148D01*
X0662788Y0372719D01*
X0663217Y0371862D01*
Y0370577D01*
X0662360Y0369720D01*
X0661074Y0369291D01*
X0659361D01*
X0658075Y0369720D01*
X0657218Y0370577D01*
D77*
X0286772Y-0005996D02*
D03*
D80*
X0190354Y0357382D02*
D03*
X0197835D02*
D03*
X0205315Y0303839D02*
D03*
X0197835D02*
D03*
D83*
X-0010591Y0391398D02*
D03*
Y0368878D02*
D03*
X-0010197Y0205177D02*
D03*
Y0182658D02*
D03*
D85*
X0306102Y0217618D02*
D03*
X0312008D02*
D03*
X0298228Y0203051D02*
D03*
X0292323D02*
D03*
X0298228Y0193996D02*
D03*
X0292323D02*
D03*
X0298228Y0185335D02*
D03*
X0292323D02*
D03*
X0298228Y0176279D02*
D03*
X0292323D02*
D03*
X0407283Y0225886D02*
D03*
X0401378D02*
D03*
X0407283Y0235335D02*
D03*
X0401378D02*
D03*
X0407283Y0262894D02*
D03*
X0401378D02*
D03*
X0299803Y0268012D02*
D03*
X0305709D02*
D03*
X0209252Y0227067D02*
D03*
X0203346D02*
D03*
X0363583Y0031004D02*
D03*
X0357677D02*
D03*
X0319488D02*
D03*
X0313583D02*
D03*
X0271063D02*
D03*
X0265158D02*
D03*
X0227362D02*
D03*
X0221457D02*
D03*
X0173425Y0029035D02*
D03*
X0167520D02*
D03*
X0226575Y0281791D02*
D03*
X0220669D02*
D03*
X0205709Y0249508D02*
D03*
X0199803D02*
D03*
X0205709Y0238484D02*
D03*
X0199803D02*
D03*
X0299803Y0275098D02*
D03*
X0305709D02*
D03*
X0312008Y0291634D02*
D03*
X0317913D02*
D03*
X0407283Y0255807D02*
D03*
X0401378D02*
D03*
D86*
X0385433Y0196949D02*
D03*
Y0202854D02*
D03*
X0408268Y0280413D02*
D03*
Y0274508D02*
D03*
X0397244Y0296949D02*
D03*
Y0291043D02*
D03*
X0405118Y0296949D02*
D03*
Y0291043D02*
D03*
X0401181Y0274508D02*
D03*
Y0280413D02*
D03*
X0370866Y0199705D02*
D03*
Y0193799D02*
D03*
X0204724Y0274508D02*
D03*
Y0268602D02*
D03*
X0243307Y0213878D02*
D03*
Y0207972D02*
D03*
D88*
X0347835Y0293209D02*
D03*
X0337205D02*
D03*
X0307677Y0260138D02*
D03*
X0297047D02*
D03*
X0199409Y0129823D02*
D03*
X0188779D02*
D03*
X0114665Y0329331D02*
D03*
X0125295D02*
D03*
X0125394Y0339173D02*
D03*
X0114764D02*
D03*
D91*
X0168504Y0330413D02*
D03*
Y0341043D02*
D03*
X0170472Y0312697D02*
D03*
Y0323327D02*
D03*
X0305512Y0149705D02*
D03*
Y0139075D02*
D03*
X0179921Y0318996D02*
D03*
Y0308366D02*
D03*
D96*
X0439272Y-0001496D02*
D03*
X0434272D02*
D03*
X0429272D02*
D03*
X0424272D02*
D03*
X0419272D02*
D03*
X0414272D02*
D03*
X0409272D02*
D03*
X0404272D02*
D03*
X0399272D02*
D03*
X0394272D02*
D03*
X0389272D02*
D03*
X0384272D02*
D03*
X0379272D02*
D03*
X0374272D02*
D03*
X0369272D02*
D03*
X0364272D02*
D03*
X0359272D02*
D03*
X0354272D02*
D03*
X0349272D02*
D03*
X0344272D02*
D03*
X0339272D02*
D03*
X0334272D02*
D03*
X0329272D02*
D03*
X0324272D02*
D03*
X0319272D02*
D03*
X0314272D02*
D03*
X0309272D02*
D03*
X0304272D02*
D03*
X0299272D02*
D03*
X0294272D02*
D03*
X0289272D02*
D03*
X0284272D02*
D03*
X0279272D02*
D03*
X0274272D02*
D03*
X0269272D02*
D03*
X0264272D02*
D03*
X0259272D02*
D03*
X0254272D02*
D03*
X0249272D02*
D03*
X0244272D02*
D03*
X0239272D02*
D03*
X0234272D02*
D03*
X0229272D02*
D03*
X0224272D02*
D03*
X0219272D02*
D03*
X0214272D02*
D03*
X0209272D02*
D03*
X0204272D02*
D03*
X0199272D02*
D03*
X0184272D02*
D03*
X0179272D02*
D03*
X0174272D02*
D03*
X0169272D02*
D03*
X0164272D02*
D03*
X0159272D02*
D03*
X0154272D02*
D03*
X0149272D02*
D03*
X0144272D02*
D03*
X0139272D02*
D03*
X0134272D02*
D03*
D100*
X0373398Y0055961D02*
D03*
Y0053401D02*
D03*
Y0050842D02*
D03*
Y0048283D02*
D03*
Y0045724D02*
D03*
Y0043165D02*
D03*
Y0040606D02*
D03*
Y0038047D02*
D03*
X0351547Y0055961D02*
D03*
Y0053401D02*
D03*
Y0050842D02*
D03*
Y0048283D02*
D03*
Y0045724D02*
D03*
Y0043165D02*
D03*
Y0040606D02*
D03*
Y0038047D02*
D03*
X0329398Y0055961D02*
D03*
Y0053401D02*
D03*
Y0050842D02*
D03*
Y0048283D02*
D03*
Y0045724D02*
D03*
Y0043165D02*
D03*
Y0040606D02*
D03*
Y0038047D02*
D03*
X0307547Y0055961D02*
D03*
Y0053401D02*
D03*
Y0050842D02*
D03*
Y0048283D02*
D03*
Y0045724D02*
D03*
Y0043165D02*
D03*
Y0040606D02*
D03*
Y0038047D02*
D03*
X0283398Y0055961D02*
D03*
Y0053401D02*
D03*
Y0050842D02*
D03*
Y0048283D02*
D03*
Y0045724D02*
D03*
Y0043165D02*
D03*
Y0040606D02*
D03*
Y0038047D02*
D03*
X0261547Y0055961D02*
D03*
Y0053401D02*
D03*
Y0050842D02*
D03*
Y0048283D02*
D03*
Y0045724D02*
D03*
Y0043165D02*
D03*
Y0040606D02*
D03*
Y0038047D02*
D03*
X0237398Y0055961D02*
D03*
Y0053401D02*
D03*
Y0050842D02*
D03*
Y0048283D02*
D03*
Y0045724D02*
D03*
Y0043165D02*
D03*
Y0040606D02*
D03*
Y0038047D02*
D03*
X0215547Y0055961D02*
D03*
Y0053401D02*
D03*
Y0050842D02*
D03*
Y0048283D02*
D03*
Y0045724D02*
D03*
Y0043165D02*
D03*
Y0040606D02*
D03*
Y0038047D02*
D03*
X0189398Y0055961D02*
D03*
Y0053401D02*
D03*
Y0050842D02*
D03*
Y0048283D02*
D03*
Y0045724D02*
D03*
Y0043165D02*
D03*
Y0040606D02*
D03*
Y0038047D02*
D03*
X0167547Y0055961D02*
D03*
Y0053401D02*
D03*
Y0050842D02*
D03*
Y0048283D02*
D03*
Y0045724D02*
D03*
Y0043165D02*
D03*
Y0040606D02*
D03*
Y0038047D02*
D03*
D105*
X0490256Y0306201D02*
D03*
X0450787Y0306299D02*
D03*
X0451378Y0326378D02*
D03*
X0342913Y0082579D02*
D03*
X0305906Y0081004D02*
D03*
X0347638Y0155807D02*
D03*
X0065256Y0242717D02*
D03*
X0063681Y0262402D02*
D03*
X0220669Y0174508D02*
D03*
X0211319Y0174902D02*
D03*
X0220768Y0183268D02*
D03*
X0215551Y0185925D02*
D03*
X0269325Y0294139D02*
D03*
X0353642Y0291535D02*
D03*
X0271161Y0258071D02*
D03*
X0304921Y0254528D02*
D03*
X0330315Y0270768D02*
D03*
X0244291Y0168819D02*
D03*
X0317028Y0188779D02*
D03*
X0259449Y0169685D02*
D03*
X0264567Y0170472D02*
D03*
X0320866Y0186811D02*
D03*
X0321063Y0192717D02*
D03*
X0326673Y0196161D02*
D03*
X0275197Y0167618D02*
D03*
X0193799Y0146752D02*
D03*
X0333858Y0176083D02*
D03*
X0344587Y0186811D02*
D03*
X0346063Y0270768D02*
D03*
X0346063Y0266831D02*
D03*
X0338189Y0270768D02*
D03*
X0373622Y0262894D02*
D03*
X0365748Y0266831D02*
D03*
X0357874D02*
D03*
X0346063Y0262894D02*
D03*
X0336221Y0210728D02*
D03*
X0338189Y0223524D02*
D03*
X0330315Y0223524D02*
D03*
X0342126Y0223524D02*
D03*
X0353937D02*
D03*
Y0219587D02*
D03*
X0342126Y0266831D02*
D03*
X0353937Y0258957D02*
D03*
Y0262894D02*
D03*
X0357874D02*
D03*
X0365748Y0258957D02*
D03*
Y0262894D02*
D03*
X0369685Y0266831D02*
D03*
X0373622Y0270768D02*
D03*
Y0266831D02*
D03*
X0369685Y0270768D02*
D03*
X0377559Y0266831D02*
D03*
X0381496Y0243209D02*
D03*
X0377559Y0251083D02*
D03*
Y0247146D02*
D03*
Y0243209D02*
D03*
X0373622Y0251083D02*
D03*
X0377559Y0255020D02*
D03*
X0373622Y0255020D02*
D03*
X0369685Y0255020D02*
D03*
X0369685Y0251083D02*
D03*
X0373622Y0247146D02*
D03*
X0373622Y0243209D02*
D03*
X0373622Y0239272D02*
D03*
X0377559Y0239272D02*
D03*
X0377559Y0258957D02*
D03*
X0373622D02*
D03*
X0369685D02*
D03*
X0377559Y0262894D02*
D03*
Y0270768D02*
D03*
X0353937Y0266831D02*
D03*
X0346063Y0255020D02*
D03*
X0350000D02*
D03*
X0357874Y0258957D02*
D03*
X0361811Y0255020D02*
D03*
X0369685Y0247146D02*
D03*
X0365748D02*
D03*
Y0243209D02*
D03*
X0369685D02*
D03*
Y0239272D02*
D03*
X0369685Y0235335D02*
D03*
X0373622Y0235335D02*
D03*
X0377559Y0235335D02*
D03*
X0346063Y0231398D02*
D03*
X0350000Y0231398D02*
D03*
X0353937D02*
D03*
X0357874Y0231398D02*
D03*
X0361811Y0231398D02*
D03*
X0365748Y0235335D02*
D03*
X0365748Y0231398D02*
D03*
X0373622D02*
D03*
X0377559D02*
D03*
X0377559Y0227461D02*
D03*
X0373622Y0227461D02*
D03*
X0369685Y0227461D02*
D03*
X0365748D02*
D03*
X0361811D02*
D03*
X0357874D02*
D03*
X0353937D02*
D03*
X0350000D02*
D03*
X0361811Y0235335D02*
D03*
X0357874D02*
D03*
X0353937D02*
D03*
X0350000D02*
D03*
X0361811Y0239272D02*
D03*
X0365748D02*
D03*
X0357874Y0243209D02*
D03*
Y0247146D02*
D03*
X0346063Y0247146D02*
D03*
X0342126D02*
D03*
Y0243209D02*
D03*
X0342126Y0239272D02*
D03*
X0346063Y0239272D02*
D03*
Y0235335D02*
D03*
X0342126Y0231398D02*
D03*
X0346063Y0227461D02*
D03*
X0342126D02*
D03*
X0338189Y0255020D02*
D03*
X0338189Y0247146D02*
D03*
X0338189Y0243209D02*
D03*
X0338189Y0239272D02*
D03*
X0338189Y0235335D02*
D03*
X0338189Y0231398D02*
D03*
Y0227461D02*
D03*
X0334252Y0227461D02*
D03*
X0334252Y0231398D02*
D03*
X0334252Y0235335D02*
D03*
Y0239272D02*
D03*
Y0243209D02*
D03*
X0334289Y0266775D02*
D03*
Y0262838D02*
D03*
Y0254964D02*
D03*
X0338189Y0266831D02*
D03*
X0342126Y0270768D02*
D03*
X0334350Y0270669D02*
D03*
X0350000Y0270768D02*
D03*
X0353937D02*
D03*
X0357874D02*
D03*
X0361811D02*
D03*
X0365748D02*
D03*
X0092520Y0240846D02*
D03*
X0095177Y0259055D02*
D03*
X-0001575Y0035728D02*
D03*
X-0001476Y0030315D02*
D03*
X0001575D02*
D03*
X-0004575Y0030461D02*
D03*
X0049425Y0039484D02*
D03*
X0053362D02*
D03*
X0057268D02*
D03*
Y0035516D02*
D03*
X0053331D02*
D03*
X0049394D02*
D03*
X0110457Y0045004D02*
D03*
X0114347D02*
D03*
Y0040673D02*
D03*
X0110457D02*
D03*
X-0004724Y0035728D02*
D03*
X0001575D02*
D03*
X0410425Y0028846D02*
D03*
X0415543D02*
D03*
X0420284D02*
D03*
Y0024106D02*
D03*
X0415543D02*
D03*
X0410441D02*
D03*
X0474260Y0034004D02*
D03*
X0479378D02*
D03*
Y0029185D02*
D03*
X0474165D02*
D03*
X0501968Y0151476D02*
D03*
Y0156201D02*
D03*
X0497638D02*
D03*
Y0151476D02*
D03*
X0139272Y0014371D02*
D03*
X0149272Y0014409D02*
D03*
X0204272Y0014920D02*
D03*
X0249272Y0014802D02*
D03*
X0294272Y0014684D02*
D03*
X0339272Y0014765D02*
D03*
X0414272Y0014763D02*
D03*
X0419272Y0014843D02*
D03*
X0429272Y0014724D02*
D03*
X0434272Y0014842D02*
D03*
X0424213Y0014862D02*
D03*
X0072736Y0260530D02*
D03*
X0073526Y0242321D02*
D03*
X0079822Y0240747D02*
D03*
X0102067Y0232283D02*
D03*
X0103445Y0274213D02*
D03*
X0072736Y0278150D02*
D03*
X0052658Y0269882D02*
D03*
X0408268Y0238090D02*
D03*
X0213779Y0274311D02*
D03*
X0211024Y0266831D02*
D03*
X0232677Y0283366D02*
D03*
X0210236Y0249508D02*
D03*
X0210630Y0238090D02*
D03*
Y0242421D02*
D03*
X0212598Y0245177D02*
D03*
X0213386Y0227461D02*
D03*
X0222441Y0219193D02*
D03*
X0229528D02*
D03*
X0232677D02*
D03*
X0251181Y0217618D02*
D03*
X0251575Y0228248D02*
D03*
X0266142Y0223524D02*
D03*
X0275984Y0238878D02*
D03*
X0258661Y0240059D02*
D03*
X0267323Y0257776D02*
D03*
X0259055Y0259744D02*
D03*
X0251969Y0275492D02*
D03*
X0250787Y0265256D02*
D03*
X0229134Y0266043D02*
D03*
X0193307Y0254626D02*
D03*
X0193701Y0238484D02*
D03*
X0190059Y0236122D02*
D03*
X0242126Y0218799D02*
D03*
X0408465Y0341437D02*
D03*
X0355906Y0286910D02*
D03*
X0478346Y0318799D02*
D03*
X0426772Y0198721D02*
D03*
X0465748Y0196752D02*
D03*
X0461417D02*
D03*
Y0193209D02*
D03*
X0465748D02*
D03*
X0407480Y0269193D02*
D03*
X0372441Y0205413D02*
D03*
X0351575Y0032972D02*
D03*
X0371654Y0031004D02*
D03*
X0367323Y0049508D02*
D03*
X0357087Y0050689D02*
D03*
X0301575Y0046752D02*
D03*
X0335039Y0046358D02*
D03*
X0288976D02*
D03*
X0255118Y0046752D02*
D03*
X0209055D02*
D03*
X0242913Y0046358D02*
D03*
X0225197Y0038484D02*
D03*
X0194882Y0046752D02*
D03*
X0159843Y0047146D02*
D03*
X0176378Y0034941D02*
D03*
X0308268Y0032972D02*
D03*
X0258661Y0033366D02*
D03*
X0215748D02*
D03*
X0170472Y0022343D02*
D03*
X0242126Y0156988D02*
D03*
X0272835Y0159744D02*
D03*
X0270472Y0167224D02*
D03*
X0243701Y0192028D02*
D03*
X0204331Y0139272D02*
D03*
X0184252Y0145965D02*
D03*
X0322638Y0345374D02*
D03*
X0416732Y0390650D02*
D03*
X0390158Y0292815D02*
D03*
X0421260Y0307382D02*
D03*
X0425984Y0345571D02*
D03*
X0490158Y0328248D02*
D03*
X0448032Y0255020D02*
D03*
X0499213Y0234547D02*
D03*
X0481890Y0218012D02*
D03*
X0485433Y0229035D02*
D03*
X0396063Y0036516D02*
D03*
X0394488Y0049114D02*
D03*
X0452756Y0048327D02*
D03*
X0450787Y0036122D02*
D03*
X0502756Y0060925D02*
D03*
X0503150Y0129823D02*
D03*
X0495669Y0180610D02*
D03*
X0507087Y0206594D02*
D03*
X0296457Y0214075D02*
D03*
X0321260Y0212500D02*
D03*
X0320866Y0201083D02*
D03*
X0320472Y0196358D02*
D03*
X0310236Y0189665D02*
D03*
X0303150Y0170768D02*
D03*
X0285039Y0193996D02*
D03*
X0285433Y0185335D02*
D03*
X0284252Y0171161D02*
D03*
X0245276Y0198721D02*
D03*
X0390551Y0209744D02*
D03*
X0302165Y0280413D02*
D03*
X0291732Y0257382D02*
D03*
X0289370Y0278248D02*
D03*
X0008268Y0205413D02*
D03*
X0004724Y0179035D02*
D03*
X0134252Y0018406D02*
D03*
X0144095D02*
D03*
X0439370Y0020768D02*
D03*
X0321260Y0281398D02*
D03*
X0384252Y0190847D02*
D03*
X0371654Y0184941D02*
D03*
X0300787Y0061713D02*
D03*
X0287008Y0061319D02*
D03*
X0255906D02*
D03*
X0206693Y0060925D02*
D03*
X0160630Y0065650D02*
D03*
X0344882Y0060138D02*
D03*
X0379528Y0062106D02*
D03*
X0333071Y0060138D02*
D03*
X0294882Y0061319D02*
D03*
X0242520D02*
D03*
X0197638Y0060532D02*
D03*
X0278346Y0029035D02*
D03*
X0325590Y0029429D02*
D03*
X0368110Y0027461D02*
D03*
X0359842Y0023524D02*
D03*
X0317323Y0038484D02*
D03*
X0314567Y0026280D02*
D03*
X0266535Y0025886D02*
D03*
X0222441Y0026280D02*
D03*
X0235039Y0254232D02*
D03*
X0238976D02*
D03*
X0242913D02*
D03*
Y0250295D02*
D03*
X0238976D02*
D03*
X0235039D02*
D03*
Y0246358D02*
D03*
X0242913D02*
D03*
X0246850D02*
D03*
Y0250295D02*
D03*
Y0254232D02*
D03*
X0242913Y0242421D02*
D03*
X0238976D02*
D03*
X0235039D02*
D03*
X0238976Y0246358D02*
D03*
X0246850Y0242421D02*
D03*
Y0238484D02*
D03*
X0242913D02*
D03*
X0238976D02*
D03*
X0235039D02*
D03*
X0231102D02*
D03*
Y0242421D02*
D03*
Y0246358D02*
D03*
Y0250295D02*
D03*
Y0254232D02*
D03*
X0331122Y0327776D02*
D03*
X0336122Y0327854D02*
D03*
X0341122Y0327933D02*
D03*
X0346122Y0327913D02*
D03*
X0325000Y0327756D02*
D03*
X0190354Y0351279D02*
D03*
X0203150Y0340551D02*
D03*
X0183169Y0324016D02*
D03*
X0323819Y0296457D02*
D03*
X0299114Y0296555D02*
D03*
X0250787Y0295472D02*
D03*
X0189469Y0306201D02*
D03*
Y0301870D02*
D03*
X0189370Y0294390D02*
D03*
X0199606Y0327559D02*
D03*
Y0320866D02*
D03*
X0206693Y0324016D02*
D03*
X0342126Y0274705D02*
D03*
X0369685D02*
D03*
X0312598Y0246211D02*
D03*
D110*
X0180315Y0346555D02*
D03*
Y0339075D02*
D03*
D114*
X-0002756Y0137106D02*
D03*
D115*
X0016929D02*
D03*
X-0002756Y0166634D02*
D03*
X0016929D02*
D03*
D116*
X0285039Y0390059D02*
D03*
X0183465Y0108957D02*
D03*
X0183858Y0157382D02*
D03*
X0135669Y0364331D02*
D03*
X0145669Y0354331D02*
D03*
D117*
X0285039Y0380059D02*
D03*
X0275039Y0390059D02*
D03*
Y0380059D02*
D03*
X0265039Y0390059D02*
D03*
Y0380059D02*
D03*
X0255039Y0390059D02*
D03*
Y0380059D02*
D03*
X0183465Y0118957D02*
D03*
X0193465Y0108957D02*
D03*
Y0118957D02*
D03*
X0203465Y0108957D02*
D03*
Y0118957D02*
D03*
X0213465Y0108957D02*
D03*
Y0118957D02*
D03*
X0223465Y0108957D02*
D03*
Y0118957D02*
D03*
X0183858Y0167382D02*
D03*
X0193858Y0157382D02*
D03*
Y0167382D02*
D03*
X0203858Y0157382D02*
D03*
Y0167382D02*
D03*
X0213858Y0157382D02*
D03*
Y0167382D02*
D03*
X0223858Y0157382D02*
D03*
Y0167382D02*
D03*
X0125669Y0354331D02*
D03*
X0135669D02*
D03*
D118*
X0534547Y0380610D02*
D03*
X0533465Y0036220D02*
D03*
X-0006693Y0347933D02*
D03*
Y0325098D02*
D03*
Y0301476D02*
D03*
Y0277067D02*
D03*
Y0253445D02*
D03*
Y0359744D02*
D03*
Y0241634D02*
D03*
Y0265256D02*
D03*
Y0288878D02*
D03*
Y0313287D02*
D03*
Y0336122D02*
D03*
X0113779Y0151083D02*
D03*
X0091732D02*
D03*
X0070472D02*
D03*
X0049213D02*
D03*
X0027953D02*
D03*
X0004331D02*
D03*
X0534252Y0345571D02*
D03*
Y0325886D02*
D03*
Y0307776D02*
D03*
Y0288878D02*
D03*
Y0269193D02*
D03*
Y0248721D02*
D03*
Y0229823D02*
D03*
Y0212500D02*
D03*
Y0194390D02*
D03*
Y0176279D02*
D03*
Y0158169D02*
D03*
Y0140059D02*
D03*
Y0121161D02*
D03*
Y0103051D02*
D03*
Y0084941D02*
D03*
Y0066831D02*
D03*
X0027953Y0203839D02*
D03*
X0039370D02*
D03*
X0050000D02*
D03*
X0060630D02*
D03*
X0071260D02*
D03*
X0081890D02*
D03*
X0092520D02*
D03*
X0103150D02*
D03*
X0113779D02*
D03*
X0124409D02*
D03*
X0161417Y0259350D02*
D03*
Y0268012D02*
D03*
Y0276673D02*
D03*
Y0285335D02*
D03*
Y0293996D02*
D03*
Y0302658D02*
D03*
Y0311713D02*
D03*
Y0320374D02*
D03*
X0159449Y0338090D02*
D03*
Y0347146D02*
D03*
Y0365256D02*
D03*
Y0374311D02*
D03*
X0148819D02*
D03*
X0139764D02*
D03*
X0130709D02*
D03*
X0121653D02*
D03*
X0112598D02*
D03*
X0103150D02*
D03*
X0094095D02*
D03*
X0085039D02*
D03*
X0075984D02*
D03*
X0401083Y0133366D02*
D03*
X0375295Y0087106D02*
D03*
X0384842D02*
D03*
X0393799Y0128248D02*
D03*
D119*
X0477244Y0385768D02*
D03*
X0429843D02*
D03*
D120*
X0458465Y0375098D02*
D03*
X0448622D02*
D03*
X0458465Y0367224D02*
D03*
D121*
X0448622D02*
D03*
D122*
X0110138Y0348622D02*
D03*
D123*
X0315256Y0176575D02*
D03*
X0306004D02*
D03*
X0315354Y0185138D02*
D03*
X0306102D02*
D03*
X0315354Y0194193D02*
D03*
X0306102D02*
D03*
X0315453Y0203051D02*
D03*
X0306201D02*
D03*
D124*
X0213779Y0345669D02*
D03*
Y0343110D02*
D03*
Y0340551D02*
D03*
Y0337992D02*
D03*
Y0335433D02*
D03*
Y0332874D02*
D03*
Y0330315D02*
D03*
Y0327756D02*
D03*
Y0325197D02*
D03*
Y0322638D02*
D03*
Y0320079D02*
D03*
Y0317520D02*
D03*
Y0314961D02*
D03*
Y0312402D02*
D03*
X0190945Y0345669D02*
D03*
Y0343110D02*
D03*
Y0340551D02*
D03*
Y0337992D02*
D03*
Y0335433D02*
D03*
Y0332874D02*
D03*
Y0330315D02*
D03*
Y0327756D02*
D03*
Y0325197D02*
D03*
Y0322638D02*
D03*
Y0320079D02*
D03*
Y0317520D02*
D03*
Y0314961D02*
D03*
Y0312402D02*
D03*
D125*
X0086122Y0249409D02*
D03*
X0081398D02*
D03*
X0086122Y0254134D02*
D03*
X0081398D02*
D03*
M02*
