%FSAX25Y25*%
%MOIN*%
G70*
G01*
G75*
G04 Layer_Color=32896*
%ADD10R,0.41339X0.33071*%
%ADD11R,0.04134X0.12992*%
%ADD12R,0.05118X0.05906*%
%ADD13R,0.10000X0.15000*%
%ADD14O,0.10000X0.15000*%
%ADD15R,0.20000X0.09500*%
%ADD16R,0.20000X0.04500*%
%ADD17R,0.04331X0.05512*%
%ADD18R,0.05512X0.04331*%
%ADD19R,0.08661X0.07874*%
%ADD20R,0.04331X0.06693*%
%ADD21R,0.01575X0.08465*%
%ADD22R,0.01575X0.08465*%
%ADD23R,0.06693X0.04331*%
%ADD24R,0.07874X0.08661*%
%ADD25R,0.08000X0.07200*%
%ADD26O,0.06500X0.03000*%
%ADD27R,0.06500X0.03000*%
%ADD28O,0.04000X0.20000*%
%ADD29R,0.01181X0.03169*%
%ADD30R,0.03169X0.01181*%
%ADD31R,0.26378X0.26378*%
%ADD32R,0.06496X0.01181*%
%ADD33R,0.33071X0.41339*%
%ADD34R,0.12992X0.04134*%
%ADD35R,0.04331X0.02559*%
%ADD36O,0.07480X0.02362*%
%ADD37C,0.01969*%
%ADD38O,0.02362X0.08661*%
%ADD39R,0.10236X0.05906*%
%ADD40R,0.04000X0.16000*%
%ADD41R,0.16000X0.04000*%
%ADD42R,0.05906X0.05118*%
%ADD43O,0.03150X0.00984*%
%ADD44O,0.00984X0.03150*%
%ADD45R,0.10236X0.10236*%
%ADD46C,0.03543*%
%ADD47C,0.00500*%
%ADD48C,0.03150*%
%ADD49C,0.00787*%
%ADD50C,0.01000*%
%ADD51C,0.01181*%
%ADD52C,0.01969*%
%ADD53C,0.03937*%
%ADD54C,0.02362*%
%ADD55C,0.01575*%
%ADD56C,0.00900*%
%ADD57R,0.11909X0.03543*%
%ADD58R,0.09843X0.09843*%
%ADD59C,0.09843*%
%ADD60R,0.05906X0.05906*%
%ADD61C,0.05906*%
%ADD62C,0.05000*%
%ADD63C,0.14961*%
%ADD64C,0.06299*%
%ADD65R,0.06299X0.06299*%
%ADD66C,0.02598*%
%ADD67C,0.03150*%
%ADD68R,0.05709X0.02165*%
%ADD69O,0.07874X0.01378*%
%ADD70C,0.00984*%
%ADD71C,0.00394*%
%ADD72C,0.00600*%
%ADD73C,0.00720*%
%ADD74C,0.00800*%
%ADD75C,0.00300*%
%ADD76R,0.00100X0.00100*%
%ADD77R,3.15000X0.30000*%
%ADD78R,0.42139X0.33871*%
%ADD79R,0.04934X0.13792*%
%ADD80R,0.05918X0.06706*%
%ADD81R,0.10800X0.15800*%
%ADD82O,0.10800X0.15800*%
%ADD83R,0.20800X0.10300*%
%ADD84R,0.20800X0.05300*%
%ADD85R,0.05131X0.06312*%
%ADD86R,0.06312X0.05131*%
%ADD87R,0.09461X0.08674*%
%ADD88R,0.05131X0.07493*%
%ADD89R,0.02375X0.09265*%
%ADD90R,0.02375X0.09265*%
%ADD91R,0.07493X0.05131*%
%ADD92R,0.08674X0.09461*%
%ADD93R,0.08800X0.08000*%
%ADD94O,0.07300X0.03800*%
%ADD95R,0.07300X0.03800*%
%ADD96O,0.04800X0.20800*%
%ADD97R,0.01981X0.03969*%
%ADD98R,0.03969X0.01981*%
%ADD99R,0.27178X0.27178*%
%ADD100R,0.07296X0.01981*%
%ADD101R,0.33871X0.42139*%
%ADD102R,0.13792X0.04934*%
%ADD103R,0.05131X0.03359*%
%ADD104O,0.08280X0.03162*%
%ADD105C,0.02769*%
%ADD106O,0.03162X0.09461*%
%ADD107R,0.11036X0.06706*%
%ADD108R,0.04800X0.16800*%
%ADD109R,0.16800X0.04800*%
%ADD110R,0.06706X0.05918*%
%ADD111O,0.03950X0.01784*%
%ADD112O,0.01784X0.03950*%
%ADD113R,0.11036X0.11036*%
%ADD114R,0.10642X0.10642*%
%ADD115C,0.10642*%
%ADD116R,0.06706X0.06706*%
%ADD117C,0.06706*%
%ADD118C,0.05800*%
%ADD119C,0.15761*%
%ADD120C,0.07099*%
%ADD121R,0.07099X0.07099*%
%ADD122C,0.03950*%
%ADD123R,0.06509X0.02965*%
%ADD124O,0.08674X0.02178*%
%ADD125C,0.03398*%
D49*
X0364507Y0036964D02*
G03*
X0360438Y0036964I-0002034J0000000D01*
G01*
X0320507D02*
G03*
X0316438Y0036964I-0002034J0000000D01*
G01*
X0274506D02*
G03*
X0270438Y0036964I-0002034J0000000D01*
G01*
X0228506D02*
G03*
X0224438Y0036964I-0002034J0000000D01*
G01*
X0180507D02*
G03*
X0176438Y0036964I-0002034J0000000D01*
G01*
X0314370Y0178740D02*
Y0179528D01*
X0306890Y0178740D02*
Y0179528D01*
X0314370Y0173622D02*
Y0174409D01*
X0306890Y0173622D02*
Y0174409D01*
Y0179528D02*
X0314370D01*
X0306890Y0173622D02*
X0314370D01*
X0312795Y0174409D02*
X0314370D01*
X0312795Y0173622D02*
Y0174409D01*
Y0178740D02*
Y0179528D01*
Y0178740D02*
X0314370D01*
X0314469Y0187303D02*
Y0188091D01*
X0306988Y0187303D02*
Y0188091D01*
X0314469Y0182185D02*
Y0182973D01*
X0306988Y0182185D02*
Y0182973D01*
Y0188091D02*
X0314469D01*
X0306988Y0182185D02*
X0314469D01*
X0312894Y0182973D02*
X0314469D01*
X0312894Y0182185D02*
Y0182973D01*
Y0187303D02*
Y0188091D01*
Y0187303D02*
X0314469D01*
Y0196358D02*
Y0197146D01*
X0306988Y0196358D02*
Y0197146D01*
X0314469Y0191240D02*
Y0192028D01*
X0306988Y0191240D02*
Y0192028D01*
Y0197146D02*
X0314469D01*
X0306988Y0191240D02*
X0314469D01*
X0312894Y0192028D02*
X0314469D01*
X0312894Y0191240D02*
Y0192028D01*
Y0196358D02*
Y0197146D01*
Y0196358D02*
X0314469D01*
X0314567Y0205217D02*
Y0206004D01*
X0307087Y0205217D02*
Y0206004D01*
X0314567Y0200098D02*
Y0200886D01*
X0307087Y0200098D02*
Y0200886D01*
Y0206004D02*
X0314567D01*
X0307087Y0200098D02*
X0314567D01*
X0312992Y0200886D02*
X0314567D01*
X0312992Y0200098D02*
Y0200886D01*
Y0205217D02*
Y0206004D01*
Y0205217D02*
X0314567D01*
X0340945Y0296161D02*
X0344094D01*
X0340945Y0290256D02*
X0344094D01*
X0300787Y0263091D02*
X0303937D01*
X0300787Y0257185D02*
X0303937D01*
X0171457Y0334154D02*
Y0337303D01*
X0165551Y0334154D02*
Y0337303D01*
X0173425Y0316437D02*
Y0319587D01*
X0167520Y0316437D02*
Y0319587D01*
X0192520Y0132776D02*
X0195669D01*
X0192520Y0126870D02*
X0195669D01*
X0302559Y0142815D02*
Y0145965D01*
X0308465Y0142815D02*
Y0145965D01*
X0368575Y0036964D02*
Y0057043D01*
X0356370Y0036964D02*
Y0057043D01*
X0368575D01*
X0364507Y0036964D02*
X0368575D01*
X0356370D02*
X0360438D01*
X0324575D02*
Y0057043D01*
X0312370Y0036964D02*
Y0057043D01*
X0324575D01*
X0320507Y0036964D02*
X0324575D01*
X0312370D02*
X0316438D01*
X0278575D02*
Y0057043D01*
X0266370Y0036964D02*
Y0057043D01*
X0278575D01*
X0274506Y0036964D02*
X0278575D01*
X0266370D02*
X0270438D01*
X0232575D02*
Y0057043D01*
X0220370Y0036964D02*
Y0057043D01*
X0232575D01*
X0228506Y0036964D02*
X0232575D01*
X0220370D02*
X0224438D01*
X0184575D02*
Y0057043D01*
X0172370Y0036964D02*
Y0057043D01*
X0184575D01*
X0180507Y0036964D02*
X0184575D01*
X0172370D02*
X0176438D01*
X0186614Y0354823D02*
Y0359941D01*
X0176969Y0312106D02*
Y0315256D01*
X0182874Y0312106D02*
Y0315256D01*
X0194095Y0301279D02*
Y0306398D01*
X0177756Y0350295D02*
X0182874D01*
X0208268Y0309744D02*
Y0348327D01*
X0196457Y0309744D02*
Y0348327D01*
X0208268D01*
X0196457Y0309744D02*
X0208268D01*
X0118405Y0326378D02*
X0121555D01*
X0118405Y0332283D02*
X0121555D01*
X0118504Y0342126D02*
X0121653D01*
X0118504Y0336221D02*
X0121653D01*
X0130157Y0369843D02*
X0141181D01*
X0130157Y0358819D02*
Y0369843D01*
Y0358819D02*
X0141181D01*
X0141181Y0358819D02*
Y0369843D01*
X0150669Y0349331D02*
Y0359331D01*
X0120669D02*
X0150669D01*
X0120669Y0349331D02*
Y0359331D01*
Y0349331D02*
X0150669D01*
D50*
X0220374Y0126870D02*
Y0132868D01*
X0217375D01*
X0216375Y0131869D01*
Y0129869D01*
X0217375Y0128869D01*
X0220374D01*
X0218375D02*
X0216375Y0126870D01*
X0214376D02*
X0212377D01*
X0213376D01*
Y0132868D01*
X0214376Y0131869D01*
X0209378Y0127870D02*
X0208378Y0126870D01*
X0206379D01*
X0205379Y0127870D01*
Y0131869D01*
X0206379Y0132868D01*
X0208378D01*
X0209378Y0131869D01*
Y0130869D01*
X0208378Y0129869D01*
X0205379D01*
X0165551Y0345965D02*
X0171549D01*
Y0348964D01*
X0170550Y0349963D01*
X0168550D01*
X0167551Y0348964D01*
Y0345965D01*
Y0347964D02*
X0165551Y0349963D01*
Y0351963D02*
Y0353962D01*
Y0352962D01*
X0171549D01*
X0170550Y0351963D01*
X0171549Y0360960D02*
Y0356961D01*
X0168550D01*
X0169550Y0358960D01*
Y0359960D01*
X0168550Y0360960D01*
X0166551D01*
X0165551Y0359960D01*
Y0357961D01*
X0166551Y0356961D01*
X0182972Y0301378D02*
X0176974D01*
Y0298379D01*
X0177974Y0297379D01*
X0179973D01*
X0180973Y0298379D01*
Y0301378D01*
Y0299379D02*
X0182972Y0297379D01*
Y0295380D02*
Y0293380D01*
Y0294380D01*
X0176974D01*
X0177974Y0295380D01*
Y0290382D02*
X0176974Y0289382D01*
Y0287383D01*
X0177974Y0286383D01*
X0178974D01*
X0179973Y0287383D01*
Y0288382D01*
Y0287383D01*
X0180973Y0286383D01*
X0181973D01*
X0182972Y0287383D01*
Y0289382D01*
X0181973Y0290382D01*
X0173327Y0308071D02*
X0167329D01*
Y0305072D01*
X0168328Y0304072D01*
X0170328D01*
X0171327Y0305072D01*
Y0308071D01*
Y0306071D02*
X0173327Y0304072D01*
Y0302073D02*
Y0300074D01*
Y0301073D01*
X0167329D01*
X0168328Y0302073D01*
X0173327Y0293076D02*
Y0297074D01*
X0169328Y0293076D01*
X0168328D01*
X0167329Y0294075D01*
Y0296075D01*
X0168328Y0297074D01*
X0205844Y0297518D02*
X0206843Y0298518D01*
X0208843D01*
X0209842Y0297518D01*
Y0293519D01*
X0208843Y0292520D01*
X0206843D01*
X0205844Y0293519D01*
X0203844Y0298518D02*
X0199846D01*
Y0297518D01*
X0203844Y0293519D01*
Y0292520D01*
X0194847D02*
Y0298518D01*
X0197846Y0295519D01*
X0193848D01*
X0417556Y0265038D02*
X0418556Y0266037D01*
X0420555D01*
X0421555Y0265038D01*
Y0261039D01*
X0420555Y0260039D01*
X0418556D01*
X0417556Y0261039D01*
X0415557Y0265038D02*
X0414557Y0266037D01*
X0412558D01*
X0411558Y0265038D01*
Y0264038D01*
X0412558Y0263038D01*
X0413558D01*
X0412558D01*
X0411558Y0262039D01*
Y0261039D01*
X0412558Y0260039D01*
X0414557D01*
X0415557Y0261039D01*
X0417458Y0237479D02*
X0418458Y0238478D01*
X0420457D01*
X0421457Y0237479D01*
Y0233480D01*
X0420457Y0232480D01*
X0418458D01*
X0417458Y0233480D01*
X0412460Y0232480D02*
Y0238478D01*
X0415459Y0235479D01*
X0411460D01*
X0383387Y0188816D02*
X0382388Y0189816D01*
Y0191815D01*
X0383387Y0192815D01*
X0387386D01*
X0388386Y0191815D01*
Y0189816D01*
X0387386Y0188816D01*
X0382388Y0182818D02*
Y0186817D01*
X0385387D01*
X0384387Y0184818D01*
Y0183818D01*
X0385387Y0182818D01*
X0387386D01*
X0388386Y0183818D01*
Y0185817D01*
X0387386Y0186817D01*
X0297773Y0220057D02*
X0298773Y0221057D01*
X0300772D01*
X0301772Y0220057D01*
Y0216059D01*
X0300772Y0215059D01*
X0298773D01*
X0297773Y0216059D01*
X0295774D02*
X0294774Y0215059D01*
X0292775D01*
X0291775Y0216059D01*
Y0220057D01*
X0292775Y0221057D01*
X0294774D01*
X0295774Y0220057D01*
Y0219058D01*
X0294774Y0218058D01*
X0291775D01*
X0395691Y0312930D02*
X0394691Y0313930D01*
Y0315929D01*
X0395691Y0316929D01*
X0399689D01*
X0400689Y0315929D01*
Y0313930D01*
X0399689Y0312930D01*
X0400689Y0310931D02*
Y0308932D01*
Y0309931D01*
X0394691D01*
X0395691Y0310931D01*
Y0305933D02*
X0394691Y0304933D01*
Y0302934D01*
X0395691Y0301934D01*
X0399689D01*
X0400689Y0302934D01*
Y0304933D01*
X0399689Y0305933D01*
X0395691D01*
X0283304Y0178325D02*
X0284304Y0179325D01*
X0286303D01*
X0287303Y0178325D01*
Y0174326D01*
X0286303Y0173327D01*
X0284304D01*
X0283304Y0174326D01*
X0281305Y0173327D02*
X0279306D01*
X0280305D01*
Y0179325D01*
X0281305Y0178325D01*
X0276307Y0173327D02*
X0274307D01*
X0275307D01*
Y0179325D01*
X0276307Y0178325D01*
X0283797Y0187971D02*
X0284796Y0188970D01*
X0286796D01*
X0287795Y0187971D01*
Y0183972D01*
X0286796Y0182972D01*
X0284796D01*
X0283797Y0183972D01*
X0281797Y0182972D02*
X0279798D01*
X0280798D01*
Y0188970D01*
X0281797Y0187971D01*
X0272800Y0182972D02*
X0276799D01*
X0272800Y0186971D01*
Y0187971D01*
X0273800Y0188970D01*
X0275799D01*
X0276799Y0187971D01*
X0283698Y0196239D02*
X0284698Y0197238D01*
X0286697D01*
X0287697Y0196239D01*
Y0192240D01*
X0286697Y0191240D01*
X0284698D01*
X0283698Y0192240D01*
X0281699Y0191240D02*
X0279699D01*
X0280699D01*
Y0197238D01*
X0281699Y0196239D01*
X0276700D02*
X0275701Y0197238D01*
X0273701D01*
X0272702Y0196239D01*
Y0195239D01*
X0273701Y0194239D01*
X0274701D01*
X0273701D01*
X0272702Y0193239D01*
Y0192240D01*
X0273701Y0191240D01*
X0275701D01*
X0276700Y0192240D01*
X0283304Y0205490D02*
X0284304Y0206490D01*
X0286303D01*
X0287303Y0205490D01*
Y0201492D01*
X0286303Y0200492D01*
X0284304D01*
X0283304Y0201492D01*
X0281305Y0200492D02*
X0279306D01*
X0280305D01*
Y0206490D01*
X0281305Y0205490D01*
X0273308Y0200492D02*
Y0206490D01*
X0276307Y0203491D01*
X0272308D01*
X0290293Y0270254D02*
X0291292Y0271254D01*
X0293292D01*
X0294291Y0270254D01*
Y0266256D01*
X0293292Y0265256D01*
X0291292D01*
X0290293Y0266256D01*
X0288293Y0265256D02*
X0286294D01*
X0287294D01*
Y0271254D01*
X0288293Y0270254D01*
X0283295Y0271254D02*
X0279296D01*
Y0270254D01*
X0283295Y0266256D01*
Y0265256D01*
X0408698Y0219467D02*
X0409698Y0220467D01*
X0411697D01*
X0412697Y0219467D01*
Y0215468D01*
X0411697Y0214469D01*
X0409698D01*
X0408698Y0215468D01*
X0406699Y0214469D02*
X0404699D01*
X0405699D01*
Y0220467D01*
X0406699Y0219467D01*
X0401700D02*
X0400701Y0220467D01*
X0398701D01*
X0397702Y0219467D01*
Y0218467D01*
X0398701Y0217467D01*
X0397702Y0216468D01*
Y0215468D01*
X0398701Y0214469D01*
X0400701D01*
X0401700Y0215468D01*
Y0216468D01*
X0400701Y0217467D01*
X0401700Y0218467D01*
Y0219467D01*
X0400701Y0217467D02*
X0398701D01*
X0360258Y0199446D02*
X0359258Y0200446D01*
Y0202445D01*
X0360258Y0203445D01*
X0364256D01*
X0365256Y0202445D01*
Y0200446D01*
X0364256Y0199446D01*
X0365256Y0193448D02*
Y0197447D01*
X0361257Y0193448D01*
X0360258D01*
X0359258Y0194448D01*
Y0196447D01*
X0360258Y0197447D01*
Y0191449D02*
X0359258Y0190449D01*
Y0188450D01*
X0360258Y0187450D01*
X0364256D01*
X0365256Y0188450D01*
Y0190449D01*
X0364256Y0191449D01*
X0360258D01*
X0414884Y0280352D02*
X0413884Y0281351D01*
Y0283351D01*
X0414884Y0284350D01*
X0418882D01*
X0419882Y0283351D01*
Y0281351D01*
X0418882Y0280352D01*
X0419882Y0274354D02*
Y0278352D01*
X0415883Y0274354D01*
X0414884D01*
X0413884Y0275353D01*
Y0277353D01*
X0414884Y0278352D01*
X0419882Y0272354D02*
Y0270355D01*
Y0271355D01*
X0413884D01*
X0414884Y0272354D01*
X0330118Y0177947D02*
Y0171949D01*
X0327119D01*
X0326119Y0172949D01*
Y0176947D01*
X0327119Y0177947D01*
X0330118D01*
X0324120Y0171949D02*
X0322121D01*
X0323120D01*
Y0177947D01*
X0324120Y0176947D01*
X0338189Y0188380D02*
Y0182382D01*
X0335190D01*
X0334190Y0183382D01*
Y0187380D01*
X0335190Y0188380D01*
X0338189D01*
X0328192Y0182382D02*
X0332191D01*
X0328192Y0186381D01*
Y0187380D01*
X0329192Y0188380D01*
X0331191D01*
X0332191Y0187380D01*
X0340551Y0197140D02*
Y0191142D01*
X0337552D01*
X0336553Y0192141D01*
Y0196140D01*
X0337552Y0197140D01*
X0340551D01*
X0334553Y0196140D02*
X0333553Y0197140D01*
X0331554D01*
X0330554Y0196140D01*
Y0195140D01*
X0331554Y0194141D01*
X0332554D01*
X0331554D01*
X0330554Y0193141D01*
Y0192141D01*
X0331554Y0191142D01*
X0333553D01*
X0334553Y0192141D01*
X0325098Y0200400D02*
Y0206398D01*
X0328098D01*
X0329097Y0205398D01*
Y0201399D01*
X0328098Y0200400D01*
X0325098D01*
X0334096Y0206398D02*
Y0200400D01*
X0331097Y0203399D01*
X0335095D01*
X0292323Y0257087D02*
Y0263085D01*
X0289324D01*
X0288324Y0262085D01*
Y0260086D01*
X0289324Y0259086D01*
X0292323D01*
X0290323D02*
X0288324Y0257087D01*
X0282326D02*
X0286325D01*
X0282326Y0261085D01*
Y0262085D01*
X0283326Y0263085D01*
X0285325D01*
X0286325Y0262085D01*
X0347638Y0298327D02*
Y0304325D01*
X0344639D01*
X0343639Y0303325D01*
Y0301326D01*
X0344639Y0300326D01*
X0347638D01*
X0345638D02*
X0343639Y0298327D01*
X0341640Y0303325D02*
X0340640Y0304325D01*
X0338641D01*
X0337641Y0303325D01*
Y0302326D01*
X0338641Y0301326D01*
X0339640D01*
X0338641D01*
X0337641Y0300326D01*
Y0299326D01*
X0338641Y0298327D01*
X0340640D01*
X0341640Y0299326D01*
X0308490Y0155510D02*
Y0161508D01*
X0305491D01*
X0304492Y0160509D01*
Y0158509D01*
X0305491Y0157510D01*
X0308490D01*
X0306491D02*
X0304492Y0155510D01*
X0302492Y0161508D02*
X0298494D01*
Y0160509D01*
X0302492Y0156510D01*
Y0155510D01*
X0224381Y0293159D02*
X0225380Y0294159D01*
X0227380D01*
X0228380Y0293159D01*
Y0289160D01*
X0227380Y0288161D01*
X0225380D01*
X0224381Y0289160D01*
X0218383Y0288161D02*
X0222381D01*
X0218383Y0292159D01*
Y0293159D01*
X0219382Y0294159D01*
X0221382D01*
X0222381Y0293159D01*
X0212385Y0294159D02*
X0216383D01*
Y0291160D01*
X0214384Y0292159D01*
X0213384D01*
X0212385Y0291160D01*
Y0289160D01*
X0213384Y0288161D01*
X0215384D01*
X0216383Y0289160D01*
X0194313Y0275824D02*
X0193313Y0276824D01*
Y0278823D01*
X0194313Y0279823D01*
X0198311D01*
X0199311Y0278823D01*
Y0276824D01*
X0198311Y0275824D01*
X0199311Y0269826D02*
Y0273825D01*
X0195312Y0269826D01*
X0194313D01*
X0193313Y0270826D01*
Y0272825D01*
X0194313Y0273825D01*
X0193313Y0263828D02*
X0194313Y0265827D01*
X0196312Y0267827D01*
X0198311D01*
X0199311Y0266827D01*
Y0264828D01*
X0198311Y0263828D01*
X0197312D01*
X0196312Y0264828D01*
Y0267827D01*
X0193639Y0229113D02*
X0194639Y0230112D01*
X0196638D01*
X0197638Y0229113D01*
Y0225114D01*
X0196638Y0224114D01*
X0194639D01*
X0193639Y0225114D01*
X0187641Y0224114D02*
X0191640D01*
X0187641Y0228113D01*
Y0229113D01*
X0188641Y0230112D01*
X0190640D01*
X0191640Y0229113D01*
X0185642Y0230112D02*
X0181643D01*
Y0229113D01*
X0185642Y0225114D01*
Y0224114D01*
X0214333Y0236439D02*
X0213334Y0235439D01*
X0211334D01*
X0210335Y0236439D01*
Y0240437D01*
X0211334Y0241437D01*
X0213334D01*
X0214333Y0240437D01*
X0220331Y0241437D02*
X0216333D01*
X0220331Y0237438D01*
Y0236439D01*
X0219332Y0235439D01*
X0217332D01*
X0216333Y0236439D01*
X0222331D02*
X0223330Y0235439D01*
X0225330D01*
X0226329Y0236439D01*
Y0237438D01*
X0225330Y0238438D01*
X0226329Y0239438D01*
Y0240437D01*
X0225330Y0241437D01*
X0223330D01*
X0222331Y0240437D01*
Y0239438D01*
X0223330Y0238438D01*
X0222331Y0237438D01*
Y0236439D01*
X0223330Y0238438D02*
X0225330D01*
X0222478Y0250865D02*
X0223477Y0251864D01*
X0225477D01*
X0226476Y0250865D01*
Y0246866D01*
X0225477Y0245866D01*
X0223477D01*
X0222478Y0246866D01*
X0216480Y0245866D02*
X0220478D01*
X0216480Y0249865D01*
Y0250865D01*
X0217479Y0251864D01*
X0219479D01*
X0220478Y0250865D01*
X0214480Y0246866D02*
X0213480Y0245866D01*
X0211481D01*
X0210482Y0246866D01*
Y0250865D01*
X0211481Y0251864D01*
X0213480D01*
X0214480Y0250865D01*
Y0249865D01*
X0213480Y0248865D01*
X0210482D01*
X0364111Y0024782D02*
X0365111Y0025782D01*
X0367111D01*
X0368110Y0024782D01*
Y0020783D01*
X0367111Y0019783D01*
X0365111D01*
X0364111Y0020783D01*
X0362112Y0024782D02*
X0361112Y0025782D01*
X0359113D01*
X0358114Y0024782D01*
Y0023782D01*
X0359113Y0022783D01*
X0360113D01*
X0359113D01*
X0358114Y0021783D01*
Y0020783D01*
X0359113Y0019783D01*
X0361112D01*
X0362112Y0020783D01*
X0352115Y0019783D02*
X0356114D01*
X0352115Y0023782D01*
Y0024782D01*
X0353115Y0025782D01*
X0355114D01*
X0356114Y0024782D01*
X0227497D02*
X0228497Y0025782D01*
X0230496D01*
X0231496Y0024782D01*
Y0020783D01*
X0230496Y0019783D01*
X0228497D01*
X0227497Y0020783D01*
X0225498Y0024782D02*
X0224498Y0025782D01*
X0222499D01*
X0221499Y0024782D01*
Y0023782D01*
X0222499Y0022783D01*
X0223499D01*
X0222499D01*
X0221499Y0021783D01*
Y0020783D01*
X0222499Y0019783D01*
X0224498D01*
X0225498Y0020783D01*
X0215501Y0025782D02*
X0219500D01*
Y0022783D01*
X0217501Y0023782D01*
X0216501D01*
X0215501Y0022783D01*
Y0020783D01*
X0216501Y0019783D01*
X0218500D01*
X0219500Y0020783D01*
X0271493Y0024782D02*
X0272493Y0025782D01*
X0274493D01*
X0275492Y0024782D01*
Y0020783D01*
X0274493Y0019783D01*
X0272493D01*
X0271493Y0020783D01*
X0269494Y0024782D02*
X0268494Y0025782D01*
X0266495D01*
X0265495Y0024782D01*
Y0023782D01*
X0266495Y0022783D01*
X0267495D01*
X0266495D01*
X0265495Y0021783D01*
Y0020783D01*
X0266495Y0019783D01*
X0268494D01*
X0269494Y0020783D01*
X0259497Y0025782D02*
X0261497Y0024782D01*
X0263496Y0022783D01*
Y0020783D01*
X0262496Y0019783D01*
X0260497D01*
X0259497Y0020783D01*
Y0021783D01*
X0260497Y0022783D01*
X0263496D01*
X0319525Y0025176D02*
X0320525Y0026175D01*
X0322524D01*
X0323524Y0025176D01*
Y0021177D01*
X0322524Y0020177D01*
X0320525D01*
X0319525Y0021177D01*
X0317526Y0025176D02*
X0316526Y0026175D01*
X0314527D01*
X0313527Y0025176D01*
Y0024176D01*
X0314527Y0023176D01*
X0315526D01*
X0314527D01*
X0313527Y0022176D01*
Y0021177D01*
X0314527Y0020177D01*
X0316526D01*
X0317526Y0021177D01*
X0311527Y0026175D02*
X0307529D01*
Y0025176D01*
X0311527Y0021177D01*
Y0020177D01*
X0170509Y0023207D02*
X0171509Y0024207D01*
X0173508D01*
X0174508Y0023207D01*
Y0019208D01*
X0173508Y0018209D01*
X0171509D01*
X0170509Y0019208D01*
X0164511Y0024207D02*
X0166510Y0023207D01*
X0168510Y0021208D01*
Y0019208D01*
X0167510Y0018209D01*
X0165511D01*
X0164511Y0019208D01*
Y0020208D01*
X0165511Y0021208D01*
X0168510D01*
X0162512Y0023207D02*
X0161512Y0024207D01*
X0159513D01*
X0158513Y0023207D01*
Y0022207D01*
X0159513Y0021208D01*
X0158513Y0020208D01*
Y0019208D01*
X0159513Y0018209D01*
X0161512D01*
X0162512Y0019208D01*
Y0020208D01*
X0161512Y0021208D01*
X0162512Y0022207D01*
Y0023207D01*
X0161512Y0021208D02*
X0159513D01*
X0286072Y0066438D02*
Y0061440D01*
X0285073Y0060440D01*
X0283073D01*
X0282074Y0061440D01*
Y0066438D01*
X0276076D02*
X0278075Y0065439D01*
X0280074Y0063439D01*
Y0061440D01*
X0279075Y0060440D01*
X0277075D01*
X0276076Y0061440D01*
Y0062440D01*
X0277075Y0063439D01*
X0280074D01*
X0192072Y0066438D02*
Y0061440D01*
X0191073Y0060440D01*
X0189073D01*
X0188074Y0061440D01*
Y0066438D01*
X0186074Y0061440D02*
X0185075Y0060440D01*
X0183075D01*
X0182076Y0061440D01*
Y0065439D01*
X0183075Y0066438D01*
X0185075D01*
X0186074Y0065439D01*
Y0064439D01*
X0185075Y0063439D01*
X0182076D01*
X0332072Y0066402D02*
Y0061404D01*
X0331073Y0060404D01*
X0329073D01*
X0328074Y0061404D01*
Y0066402D01*
X0326074Y0060404D02*
X0324075D01*
X0325075D01*
Y0066402D01*
X0326074Y0065402D01*
X0321076D02*
X0320076Y0066402D01*
X0318077D01*
X0317077Y0065402D01*
Y0061404D01*
X0318077Y0060404D01*
X0320076D01*
X0321076Y0061404D01*
Y0065402D01*
X0376072Y0066402D02*
Y0061404D01*
X0375073Y0060404D01*
X0373073D01*
X0372074Y0061404D01*
Y0066402D01*
X0370074Y0060404D02*
X0368075D01*
X0369075D01*
Y0066402D01*
X0370074Y0065402D01*
X0365076Y0060404D02*
X0363077D01*
X0364076D01*
Y0066402D01*
X0365076Y0065402D01*
X0240072Y0066438D02*
Y0061440D01*
X0239073Y0060440D01*
X0237073D01*
X0236074Y0061440D01*
Y0066438D01*
X0230076Y0060440D02*
X0234074D01*
X0230076Y0064439D01*
Y0065439D01*
X0231075Y0066438D01*
X0233075D01*
X0234074Y0065439D01*
X0228076D02*
X0227077Y0066438D01*
X0225077D01*
X0224078Y0065439D01*
Y0061440D01*
X0225077Y0060440D01*
X0227077D01*
X0228076Y0061440D01*
Y0065439D01*
X0250120Y0209190D02*
X0249120Y0210190D01*
Y0212189D01*
X0250120Y0213189D01*
X0254118D01*
X0255118Y0212189D01*
Y0210190D01*
X0254118Y0209190D01*
X0249120Y0207191D02*
Y0203192D01*
X0250120D01*
X0254118Y0207191D01*
X0255118D01*
Y0201193D02*
Y0199194D01*
Y0200193D01*
X0249120D01*
X0250120Y0201193D01*
X0177777Y0365096D02*
X0176778Y0366095D01*
Y0368095D01*
X0177777Y0369094D01*
X0181776D01*
X0182776Y0368095D01*
Y0366095D01*
X0181776Y0365096D01*
X0177777Y0363096D02*
X0176778Y0362097D01*
Y0360097D01*
X0177777Y0359098D01*
X0178777D01*
X0179777Y0360097D01*
X0180776Y0359098D01*
X0181776D01*
X0182776Y0360097D01*
Y0362097D01*
X0181776Y0363096D01*
X0180776D01*
X0179777Y0362097D01*
X0178777Y0363096D01*
X0177777D01*
X0179777Y0362097D02*
Y0360097D01*
X0176778Y0357098D02*
Y0353100D01*
X0177777D01*
X0181776Y0357098D01*
X0182776D01*
X0197478Y0367990D02*
X0198477Y0368990D01*
X0200477D01*
X0201476Y0367990D01*
Y0363992D01*
X0200477Y0362992D01*
X0198477D01*
X0197478Y0363992D01*
X0195478Y0367990D02*
X0194479Y0368990D01*
X0192479D01*
X0191480Y0367990D01*
Y0366991D01*
X0192479Y0365991D01*
X0191480Y0364991D01*
Y0363992D01*
X0192479Y0362992D01*
X0194479D01*
X0195478Y0363992D01*
Y0364991D01*
X0194479Y0365991D01*
X0195478Y0366991D01*
Y0367990D01*
X0194479Y0365991D02*
X0192479D01*
X0189480Y0367990D02*
X0188481Y0368990D01*
X0186481D01*
X0185482Y0367990D01*
Y0366991D01*
X0186481Y0365991D01*
X0185482Y0364991D01*
Y0363992D01*
X0186481Y0362992D01*
X0188481D01*
X0189480Y0363992D01*
Y0364991D01*
X0188481Y0365991D01*
X0189480Y0366991D01*
Y0367990D01*
X0188481Y0365991D02*
X0186481D01*
X0423856Y0256672D02*
X0424855Y0257671D01*
X0426855D01*
X0427854Y0256672D01*
Y0252673D01*
X0426855Y0251673D01*
X0424855D01*
X0423856Y0252673D01*
X0421856Y0256672D02*
X0420857Y0257671D01*
X0418857D01*
X0417858Y0256672D01*
Y0255672D01*
X0418857Y0254672D01*
X0417858Y0253673D01*
Y0252673D01*
X0418857Y0251673D01*
X0420857D01*
X0421856Y0252673D01*
Y0253673D01*
X0420857Y0254672D01*
X0421856Y0255672D01*
Y0256672D01*
X0420857Y0254672D02*
X0418857D01*
X0415858Y0252673D02*
X0414858Y0251673D01*
X0412859D01*
X0411860Y0252673D01*
Y0256672D01*
X0412859Y0257671D01*
X0414858D01*
X0415858Y0256672D01*
Y0255672D01*
X0414858Y0254672D01*
X0411860D01*
X0390474Y0281434D02*
X0389474Y0282434D01*
Y0284433D01*
X0390474Y0285433D01*
X0394473D01*
X0395472Y0284433D01*
Y0282434D01*
X0394473Y0281434D01*
Y0279435D02*
X0395472Y0278435D01*
Y0276436D01*
X0394473Y0275436D01*
X0390474D01*
X0389474Y0276436D01*
Y0278435D01*
X0390474Y0279435D01*
X0391474D01*
X0392473Y0278435D01*
Y0275436D01*
X0390474Y0273437D02*
X0389474Y0272437D01*
Y0270438D01*
X0390474Y0269438D01*
X0394473D01*
X0395472Y0270438D01*
Y0272437D01*
X0394473Y0273437D01*
X0390474D01*
X0412521Y0298954D02*
X0411522Y0299954D01*
Y0301953D01*
X0412521Y0302953D01*
X0416520D01*
X0417520Y0301953D01*
Y0299954D01*
X0416520Y0298954D01*
Y0296955D02*
X0417520Y0295955D01*
Y0293956D01*
X0416520Y0292956D01*
X0412521D01*
X0411522Y0293956D01*
Y0295955D01*
X0412521Y0296955D01*
X0413521D01*
X0414521Y0295955D01*
Y0292956D01*
X0417520Y0290957D02*
Y0288957D01*
Y0289957D01*
X0411522D01*
X0412521Y0290957D01*
X0303512Y0286490D02*
X0304511Y0287489D01*
X0306511D01*
X0307510Y0286490D01*
Y0282491D01*
X0306511Y0281491D01*
X0304511D01*
X0303512Y0282491D01*
X0301512D02*
X0300513Y0281491D01*
X0298513D01*
X0297514Y0282491D01*
Y0286490D01*
X0298513Y0287489D01*
X0300513D01*
X0301512Y0286490D01*
Y0285490D01*
X0300513Y0284490D01*
X0297514D01*
X0291515Y0281491D02*
X0295514D01*
X0291515Y0285490D01*
Y0286490D01*
X0292515Y0287489D01*
X0294514D01*
X0295514Y0286490D01*
X0315674Y0302996D02*
X0316673Y0303996D01*
X0318673D01*
X0319672Y0302996D01*
Y0298997D01*
X0318673Y0297998D01*
X0316673D01*
X0315674Y0298997D01*
X0313674D02*
X0312675Y0297998D01*
X0310675D01*
X0309676Y0298997D01*
Y0302996D01*
X0310675Y0303996D01*
X0312675D01*
X0313674Y0302996D01*
Y0301996D01*
X0312675Y0300997D01*
X0309676D01*
X0307676Y0302996D02*
X0306677Y0303996D01*
X0304677D01*
X0303678Y0302996D01*
Y0301996D01*
X0304677Y0300997D01*
X0305677D01*
X0304677D01*
X0303678Y0299997D01*
Y0298997D01*
X0304677Y0297998D01*
X0306677D01*
X0307676Y0298997D01*
X0214573Y0364272D02*
X0219571D01*
X0220571Y0363272D01*
Y0361273D01*
X0219571Y0360273D01*
X0214573D01*
X0220571Y0354275D02*
Y0358274D01*
X0216572Y0354275D01*
X0215573D01*
X0214573Y0355275D01*
Y0357274D01*
X0215573Y0358274D01*
X0220571Y0352275D02*
Y0350276D01*
Y0351276D01*
X0214573D01*
X0215573Y0352275D01*
X0108465Y0336319D02*
Y0342317D01*
X0105465D01*
X0104466Y0341317D01*
Y0339318D01*
X0105465Y0338318D01*
X0108465D01*
X0106465D02*
X0104466Y0336319D01*
X0098468D02*
X0102466D01*
X0098468Y0340318D01*
Y0341317D01*
X0099467Y0342317D01*
X0101467D01*
X0102466Y0341317D01*
X0096468Y0336319D02*
X0094469D01*
X0095469D01*
Y0342317D01*
X0096468Y0341317D01*
X0109843Y0326083D02*
Y0332081D01*
X0106843D01*
X0105844Y0331081D01*
Y0329082D01*
X0106843Y0328082D01*
X0109843D01*
X0107843D02*
X0105844Y0326083D01*
X0099846D02*
X0103844D01*
X0099846Y0330081D01*
Y0331081D01*
X0100845Y0332081D01*
X0102845D01*
X0103844Y0331081D01*
X0093848Y0326083D02*
X0097846D01*
X0093848Y0330081D01*
Y0331081D01*
X0094847Y0332081D01*
X0096847D01*
X0097846Y0331081D01*
X0162500Y0353150D02*
Y0359148D01*
X0159501D01*
X0158501Y0358148D01*
Y0356149D01*
X0159501Y0355149D01*
X0162500D01*
X0156502Y0358148D02*
X0155502Y0359148D01*
X0153503D01*
X0152503Y0358148D01*
Y0357148D01*
X0153503Y0356149D01*
X0152503Y0355149D01*
Y0354149D01*
X0153503Y0353150D01*
X0155502D01*
X0156502Y0354149D01*
Y0355149D01*
X0155502Y0356149D01*
X0156502Y0357148D01*
Y0358148D01*
X0155502Y0356149D02*
X0153503D01*
X0126018Y0366239D02*
X0126936D01*
X0126477D01*
Y0363943D01*
X0126936Y0363484D01*
X0127395D01*
X0127854Y0363943D01*
X0123263Y0363484D02*
X0125099D01*
X0123263Y0365321D01*
Y0365780D01*
X0123722Y0366239D01*
X0124640D01*
X0125099Y0365780D01*
X0136772Y0014004D02*
Y0017203D01*
X0135173Y0018802D01*
X0133573Y0017203D01*
Y0014004D01*
Y0016403D01*
X0136772D01*
X0131974Y0014004D02*
X0130375D01*
X0131174D01*
Y0018802D01*
X0131974Y0018003D01*
X0206772Y0014004D02*
Y0017203D01*
X0205173Y0018802D01*
X0203573Y0017203D01*
Y0014004D01*
Y0016403D01*
X0206772D01*
X0201974Y0014004D02*
X0200375D01*
X0201174D01*
Y0018802D01*
X0201974Y0018003D01*
X0195576Y0014004D02*
Y0018802D01*
X0197975Y0016403D01*
X0194776D01*
X0446772Y0014004D02*
Y0017203D01*
X0445173Y0018802D01*
X0443574Y0017203D01*
Y0014004D01*
Y0016403D01*
X0446772D01*
X0438775Y0018802D02*
X0440375Y0018003D01*
X0441974Y0016403D01*
Y0014804D01*
X0441174Y0014004D01*
X0439575D01*
X0438775Y0014804D01*
Y0015603D01*
X0439575Y0016403D01*
X0441974D01*
X0433977Y0014004D02*
X0437176D01*
X0433977Y0017203D01*
Y0018003D01*
X0434776Y0018802D01*
X0436376D01*
X0437176Y0018003D01*
X0186772Y0014004D02*
Y0017203D01*
X0185173Y0018802D01*
X0183573Y0017203D01*
Y0014004D01*
Y0016403D01*
X0186772D01*
X0181974Y0014004D02*
X0180375D01*
X0181174D01*
Y0018802D01*
X0181974Y0018003D01*
X0177975Y0014004D02*
X0176376D01*
X0177175D01*
Y0018802D01*
X0177975Y0018003D01*
X0154921Y0347538D02*
Y0345702D01*
X0154003Y0344783D01*
X0153085Y0345702D01*
Y0347538D01*
X0151707Y0346620D02*
X0150789D01*
X0150330Y0346161D01*
Y0344783D01*
X0151707D01*
X0152166Y0345243D01*
X0151707Y0345702D01*
X0150330D01*
X0149411Y0346620D02*
Y0344783D01*
Y0345702D01*
X0148952Y0346161D01*
X0148493Y0346620D01*
X0148034D01*
X0115683Y0356101D02*
X0117520D01*
Y0354724D01*
X0116601D01*
X0117520D01*
Y0353346D01*
X0114765D02*
X0113846D01*
X0114305D01*
Y0355183D01*
X0114765D01*
X0112469D02*
X0110632Y0353346D01*
X0111550Y0354265D01*
X0110632Y0355183D01*
X0112469Y0353346D01*
X0108336D02*
X0109255D01*
X0109714Y0353806D01*
Y0354724D01*
X0109255Y0355183D01*
X0108336D01*
X0107877Y0354724D01*
Y0354265D01*
X0109714D01*
X0105122Y0356101D02*
Y0353346D01*
X0106500D01*
X0106959Y0353806D01*
Y0354724D01*
X0106500Y0355183D01*
X0105122D01*
X0288190Y0372835D02*
X0292126D01*
Y0370867D01*
X0291470Y0370211D01*
X0290814D01*
X0290158D01*
X0289502Y0370867D01*
Y0372835D01*
X0292126Y0368899D02*
Y0367587D01*
Y0368243D01*
X0289502D01*
Y0368899D01*
X0288846Y0364963D02*
X0289502D01*
Y0365619D01*
Y0364307D01*
Y0364963D01*
X0291470D01*
X0292126Y0364307D01*
X0288846Y0358404D02*
X0288190Y0357748D01*
Y0356436D01*
X0288846Y0355780D01*
X0291470D01*
X0292126Y0356436D01*
Y0357748D01*
X0291470Y0358404D01*
X0288846D01*
X0246556Y0372342D02*
X0250492D01*
Y0370375D01*
X0249836Y0369719D01*
X0249180D01*
X0248524D01*
X0247868Y0370375D01*
Y0372342D01*
X0250492Y0368407D02*
Y0367095D01*
Y0367751D01*
X0247868D01*
Y0368407D01*
X0247212Y0364471D02*
X0247868D01*
Y0365127D01*
Y0363815D01*
Y0364471D01*
X0249836D01*
X0250492Y0363815D01*
X0247212Y0357911D02*
X0246556Y0357256D01*
Y0355944D01*
X0247212Y0355288D01*
X0247868D01*
X0248524Y0355944D01*
Y0356600D01*
Y0355944D01*
X0249180Y0355288D01*
X0249836D01*
X0250492Y0355944D01*
Y0357256D01*
X0249836Y0357911D01*
D54*
X0205512Y0344390D02*
G03*
X0205512Y0344390I-0001181J0000000D01*
G01*
D70*
X0352039Y0035291D02*
G03*
X0352039Y0035291I-0000492J0000000D01*
G01*
X0308039D02*
G03*
X0308039Y0035291I-0000492J0000000D01*
G01*
X0262039D02*
G03*
X0262039Y0035291I-0000492J0000000D01*
G01*
X0216039D02*
G03*
X0216039Y0035291I-0000492J0000000D01*
G01*
X0168039D02*
G03*
X0168039Y0035291I-0000492J0000000D01*
G01*
X0214272Y0348524D02*
G03*
X0214272Y0348524I-0000492J0000000D01*
G01*
X0136161Y0372402D02*
G03*
X0136161Y0372402I-0000492J0000000D01*
G01*
M02*
