%FSAX25Y25*%
%MOIN*%
G70*
G01*
G75*
G04 Layer_Color=65535*
%ADD10R,0.41339X0.33071*%
%ADD11R,0.04134X0.12992*%
%ADD12R,0.05118X0.05906*%
%ADD13R,0.10000X0.15000*%
%ADD14O,0.10000X0.15000*%
%ADD15R,0.20000X0.09500*%
%ADD16R,0.20000X0.04500*%
%ADD17R,0.04331X0.05512*%
%ADD18R,0.05512X0.04331*%
%ADD19R,0.08661X0.07874*%
%ADD20R,0.04331X0.06693*%
%ADD21R,0.01575X0.08465*%
%ADD22R,0.01575X0.08465*%
%ADD23R,0.06693X0.04331*%
%ADD24R,0.07874X0.08661*%
%ADD25R,0.08000X0.07200*%
%ADD26O,0.06500X0.03000*%
%ADD27R,0.06500X0.03000*%
%ADD28O,0.04000X0.20000*%
%ADD29R,0.01181X0.03169*%
%ADD30R,0.03169X0.01181*%
%ADD31R,0.26378X0.26378*%
%ADD32R,0.06496X0.01181*%
%ADD33R,0.33071X0.41339*%
%ADD34R,0.12992X0.04134*%
%ADD35R,0.04331X0.02559*%
%ADD36O,0.07480X0.02362*%
%ADD37C,0.01969*%
%ADD38O,0.02362X0.08661*%
%ADD39R,0.10236X0.05906*%
%ADD40R,0.04000X0.16000*%
%ADD41R,0.16000X0.04000*%
%ADD42R,0.05906X0.05118*%
%ADD43O,0.03150X0.00984*%
%ADD44O,0.00984X0.03150*%
%ADD45R,0.10236X0.10236*%
%ADD46C,0.03543*%
%ADD47C,0.00500*%
%ADD48C,0.03150*%
%ADD49C,0.00787*%
%ADD50C,0.01000*%
%ADD51C,0.01181*%
%ADD52C,0.01969*%
%ADD53C,0.03937*%
%ADD54C,0.02362*%
%ADD55C,0.01575*%
%ADD56C,0.00900*%
%ADD57R,0.11909X0.03543*%
%ADD58R,0.09843X0.09843*%
%ADD59C,0.09843*%
%ADD60R,0.05906X0.05906*%
%ADD61C,0.05906*%
%ADD62C,0.05000*%
%ADD63C,0.14961*%
%ADD64C,0.06299*%
%ADD65R,0.06299X0.06299*%
%ADD66C,0.02598*%
%ADD67C,0.03150*%
%ADD68R,0.05709X0.02165*%
%ADD69O,0.07874X0.01378*%
%ADD70C,0.00984*%
%ADD71C,0.00394*%
%ADD72C,0.00600*%
%ADD73C,0.00720*%
%ADD74C,0.00800*%
%ADD75C,0.00300*%
G36*
X0250081Y0220182D02*
X0248581D01*
Y0221182D01*
X0250081D01*
Y0220182D01*
D02*
G37*
G36*
X0267295Y0231490D02*
X0266295D01*
Y0232990D01*
X0267295D01*
Y0231490D01*
D02*
G37*
G36*
X0328346Y0213681D02*
X0324409D01*
Y0217618D01*
X0328346Y0213681D01*
D02*
G37*
G36*
X0230396Y0220182D02*
X0228896D01*
Y0221182D01*
X0230396D01*
Y0220182D01*
D02*
G37*
G36*
X0214650Y0233459D02*
X0213650D01*
Y0234959D01*
X0214650D01*
Y0233459D01*
D02*
G37*
G36*
X0224490Y0272826D02*
X0222990D01*
Y0273826D01*
X0224490D01*
Y0272826D01*
D02*
G37*
G36*
X0244175D02*
X0242675D01*
Y0273826D01*
X0244175D01*
Y0272826D01*
D02*
G37*
G36*
X0267295Y0251175D02*
X0266295D01*
Y0252675D01*
X0267295D01*
Y0251175D01*
D02*
G37*
G36*
X0214650Y0253144D02*
X0213650D01*
Y0254644D01*
X0214650D01*
Y0253144D01*
D02*
G37*
D49*
X-0022835Y0146949D02*
G03*
X-0022835Y0156791I0000000J0004921D01*
G01*
X0430118Y0326279D02*
G03*
X0430118Y0331004I0000000J0002362D01*
G01*
X0274506Y0036964D02*
G03*
X0270438Y0036964I-0002034J0000000D01*
G01*
X0228506D02*
G03*
X0224438Y0036964I-0002034J0000000D01*
G01*
X0180507D02*
G03*
X0176438Y0036964I-0002034J0000000D01*
G01*
X0320507D02*
G03*
X0316438Y0036964I-0002034J0000000D01*
G01*
X0364507D02*
G03*
X0360438Y0036964I-0002034J0000000D01*
G01*
X-0022835Y0133169D02*
Y0146949D01*
Y0156791D02*
Y0170571D01*
X0026772D01*
Y0133169D02*
Y0170571D01*
X-0022835Y0133169D02*
X0026772D01*
X0132945Y0082768D02*
Y0088673D01*
X0092000Y0082768D02*
X0132945D01*
X0092000D02*
Y0088673D01*
X0076945Y0082768D02*
Y0088673D01*
X0036000Y0082768D02*
X0076945D01*
X0036000D02*
Y0088673D01*
X0022945Y0082768D02*
Y0088673D01*
X-0018000Y0082768D02*
X0022945D01*
X-0018000D02*
Y0088673D01*
X0179528Y0226870D02*
Y0231988D01*
Y0219783D02*
Y0224902D01*
X0481811Y0163693D02*
Y0169008D01*
X0481614Y0178260D02*
X0481811D01*
X0493228Y0163693D02*
Y0169008D01*
Y0178260D02*
X0493425D01*
X0481614Y0163693D02*
Y0178260D01*
X0493425Y0163693D02*
Y0178260D01*
X0493228Y0146945D02*
Y0152260D01*
Y0137693D02*
X0493425D01*
X0481811Y0146945D02*
Y0152260D01*
X0481614Y0137693D02*
X0481811D01*
X0493425D02*
Y0152260D01*
X0481614Y0137693D02*
Y0152260D01*
X0498032Y0186693D02*
Y0192008D01*
X0497835Y0201260D02*
X0498032D01*
X0509449Y0186693D02*
Y0192008D01*
Y0201260D02*
X0509646D01*
X0497835Y0186693D02*
Y0201260D01*
X0509646Y0186693D02*
Y0201260D01*
X0509449Y0221945D02*
Y0227260D01*
Y0212693D02*
X0509646D01*
X0498032Y0221945D02*
Y0227260D01*
X0497835Y0212693D02*
X0498032D01*
X0509646D02*
Y0227260D01*
X0497835Y0212693D02*
Y0227260D01*
X0450000Y0356004D02*
X0453150D01*
X0450000Y0350098D02*
X0453150D01*
X0430118Y0321555D02*
Y0326279D01*
Y0331004D02*
Y0335728D01*
X0471457Y0321555D02*
Y0335728D01*
X0430118Y0321555D02*
X0471457D01*
X0430118Y0335728D02*
X0471457D01*
X0428346Y0350098D02*
X0431496D01*
X0428346Y0356004D02*
X0431496D01*
X0250039Y0375059D02*
Y0395059D01*
X0290039Y0375059D02*
Y0395059D01*
X0250039Y0375059D02*
X0290039D01*
X0250039Y0395059D02*
X0290039D01*
X0287992Y0361319D02*
Y0364469D01*
X0282087Y0361319D02*
Y0364469D01*
X0278150Y0361319D02*
Y0364469D01*
X0272244Y0361319D02*
Y0364469D01*
X0267913Y0361319D02*
Y0364469D01*
X0262008Y0361319D02*
Y0364469D01*
X0258071Y0361319D02*
Y0364469D01*
X0252165Y0361319D02*
Y0364469D01*
X0165551Y0160925D02*
Y0164075D01*
X0171457Y0160925D02*
Y0164075D01*
X0187795Y0136319D02*
X0190945D01*
X0187795Y0142224D02*
X0190945D01*
X0212598Y0136319D02*
X0215748D01*
X0212598Y0142224D02*
X0215748D01*
X0259449Y0179626D02*
X0262598D01*
X0259449Y0185531D02*
X0262598D01*
X0104441Y0049295D02*
X0109756D01*
X0095189Y0049098D02*
Y0049295D01*
X0104441Y0060713D02*
X0109756D01*
X0095189D02*
Y0060909D01*
Y0049098D02*
X0109756D01*
X0095189Y0060909D02*
X0109756D01*
X0119189Y0060713D02*
X0124504D01*
X0133756D02*
Y0060909D01*
X0119189Y0049295D02*
X0124504D01*
X0133756Y0049098D02*
Y0049295D01*
X0119189Y0060909D02*
X0133756D01*
X0119189Y0049098D02*
X0133756D01*
X0063189Y0060713D02*
X0068504D01*
X0077756D02*
Y0060909D01*
X0063189Y0049295D02*
X0068504D01*
X0077756Y0049098D02*
Y0049295D01*
X0063189Y0060909D02*
X0077756D01*
X0063189Y0049098D02*
X0077756D01*
X0048441Y0049295D02*
X0053756D01*
X0039189Y0049098D02*
Y0049295D01*
X0048441Y0060713D02*
X0053756D01*
X0039189D02*
Y0060909D01*
Y0049098D02*
X0053756D01*
X0039189Y0060909D02*
X0053756D01*
X0009189Y0060713D02*
X0014504D01*
X0023756D02*
Y0060909D01*
X0009189Y0049295D02*
X0014504D01*
X0023756Y0049098D02*
Y0049295D01*
X0009189Y0060909D02*
X0023756D01*
X0009189Y0049098D02*
X0023756D01*
X-0005559Y0049295D02*
X-0000244D01*
X-0014811Y0049098D02*
Y0049295D01*
X-0005559Y0060713D02*
X-0000244D01*
X-0014811D02*
Y0060909D01*
Y0049098D02*
X-0000244D01*
X-0014811Y0060909D02*
X-0000244D01*
X0469441Y0040295D02*
X0474756D01*
X0460189Y0040098D02*
Y0040295D01*
X0469441Y0051713D02*
X0474756D01*
X0460189D02*
Y0051910D01*
Y0040098D02*
X0474756D01*
X0460189Y0051910D02*
X0474756D01*
X0409441Y0041295D02*
X0414756D01*
X0400189Y0041098D02*
Y0041295D01*
X0409441Y0052713D02*
X0414756D01*
X0400189D02*
Y0052909D01*
Y0041098D02*
X0414756D01*
X0400189Y0052909D02*
X0414756D01*
X0426189Y0052713D02*
X0431504D01*
X0440756D02*
Y0052909D01*
X0426189Y0041295D02*
X0431504D01*
X0440756Y0041098D02*
Y0041295D01*
X0426189Y0052909D02*
X0440756D01*
X0426189Y0041098D02*
X0440756D01*
X0228465Y0103957D02*
Y0123957D01*
X0178465Y0103957D02*
Y0123957D01*
X0228465D01*
X0178465Y0103957D02*
X0228465D01*
X0228858Y0152382D02*
Y0172382D01*
X0178858Y0152382D02*
Y0172382D01*
X0228858D01*
X0178858Y0152382D02*
X0228858D01*
X0266370Y0036964D02*
Y0057043D01*
X0278575Y0036964D02*
Y0057043D01*
X0266370D02*
X0278575D01*
X0266370Y0036964D02*
X0270438D01*
X0274506D02*
X0278575D01*
X0220370D02*
Y0057043D01*
X0232575Y0036964D02*
Y0057043D01*
X0220370D02*
X0232575D01*
X0220370Y0036964D02*
X0224438D01*
X0228506D02*
X0232575D01*
X0172370D02*
Y0057043D01*
X0184575Y0036964D02*
Y0057043D01*
X0172370D02*
X0184575D01*
X0172370Y0036964D02*
X0176438D01*
X0180507D02*
X0184575D01*
X0312370D02*
Y0057043D01*
X0324575Y0036964D02*
Y0057043D01*
X0312370D02*
X0324575D01*
X0312370Y0036964D02*
X0316438D01*
X0320507D02*
X0324575D01*
X0356370D02*
Y0057043D01*
X0368575Y0036964D02*
Y0057043D01*
X0356370D02*
X0368575D01*
X0356370Y0036964D02*
X0360438D01*
X0364507D02*
X0368575D01*
X0486189Y0051713D02*
X0491504D01*
X0500756D02*
Y0051910D01*
X0486189Y0040295D02*
X0491504D01*
X0500756Y0040098D02*
Y0040295D01*
X0486189Y0051910D02*
X0500756D01*
X0486189Y0040098D02*
X0500756D01*
X0497945Y0077768D02*
Y0083673D01*
X0457000Y0077768D02*
X0497945D01*
X0457000D02*
Y0083673D01*
X0449850Y0175449D02*
X0455756D01*
Y0134504D02*
Y0175449D01*
X0449850Y0134504D02*
X0455756D01*
X0478756Y0199874D02*
Y0212079D01*
X0480724Y0199874D02*
Y0212079D01*
X0478756D02*
X0480724D01*
X0478756Y0199874D02*
X0480724D01*
X0253937Y0147146D02*
X0261811D01*
X0253937Y0166831D02*
X0261811D01*
Y0147146D02*
Y0166831D01*
X0253937Y0147146D02*
Y0166831D01*
X0324409Y0217618D02*
X0328346Y0213681D01*
X0324409D02*
X0391339D01*
X0324409Y0280610D02*
X0391339D01*
X0324409Y0213681D02*
Y0280610D01*
X0391339Y0213681D02*
Y0280610D01*
X0219291Y0205610D02*
X0222441D01*
X0219291Y0211516D02*
X0222441D01*
X0328937Y0342618D02*
X0368307D01*
X0328937Y0349705D02*
X0368307D01*
X0328937Y0342618D02*
Y0349705D01*
X0368307Y0342618D02*
Y0349705D01*
X0312008Y0364862D02*
X0315158D01*
X0312008Y0358957D02*
X0315158D01*
X0308071Y0375098D02*
Y0381791D01*
X0294685Y0375098D02*
X0296260Y0373130D01*
X0306496Y0373130D02*
X0308071Y0375098D01*
X0294685Y0375098D02*
Y0381791D01*
X0296260Y0373130D02*
X0306496D01*
X0294685Y0395177D02*
X0308071D01*
Y0387697D02*
Y0395177D01*
X0294685Y0387697D02*
Y0395177D01*
X0322638Y0375098D02*
Y0381791D01*
X0309252Y0375098D02*
X0310827Y0373130D01*
X0321063Y0373130D02*
X0322638Y0375098D01*
X0309252Y0375098D02*
Y0381791D01*
X0310827Y0373130D02*
X0321063D01*
X0309252Y0395177D02*
X0322638D01*
Y0387697D02*
Y0395177D01*
X0309252Y0387697D02*
Y0395177D01*
X0337205Y0375098D02*
Y0381791D01*
X0323819Y0375098D02*
X0325394Y0373130D01*
X0335630Y0373130D02*
X0337205Y0375098D01*
X0323819Y0375098D02*
Y0381791D01*
X0325394Y0373130D02*
X0335630D01*
X0323819Y0395177D02*
X0337205D01*
Y0387697D02*
Y0395177D01*
X0323819Y0387697D02*
Y0395177D01*
X0351772Y0375098D02*
Y0381791D01*
X0338386Y0375098D02*
X0339961Y0373130D01*
X0350197Y0373130D02*
X0351772Y0375098D01*
X0338386Y0375098D02*
Y0381791D01*
X0339961Y0373130D02*
X0350197D01*
X0338386Y0395177D02*
X0351772D01*
Y0387697D02*
Y0395177D01*
X0338386Y0387697D02*
Y0395177D01*
X0366339Y0375098D02*
Y0381791D01*
X0352953Y0375098D02*
X0354528Y0373130D01*
X0364764Y0373130D02*
X0366339Y0375098D01*
X0352953Y0375098D02*
Y0381791D01*
X0354528Y0373130D02*
X0364764D01*
X0352953Y0395177D02*
X0366339D01*
Y0387697D02*
Y0395177D01*
X0352953Y0387697D02*
Y0395177D01*
X0380906Y0375098D02*
Y0381791D01*
X0367520Y0375098D02*
X0369094Y0373130D01*
X0379331Y0373130D02*
X0380906Y0375098D01*
X0367520Y0375098D02*
Y0381791D01*
X0369094Y0373130D02*
X0379331D01*
X0367520Y0395177D02*
X0380906D01*
Y0387697D02*
Y0395177D01*
X0367520Y0387697D02*
Y0395177D01*
X0395472Y0375098D02*
Y0381791D01*
X0382087Y0375098D02*
X0383661Y0373130D01*
X0393898Y0373130D02*
X0395472Y0375098D01*
X0382087Y0375098D02*
Y0381791D01*
X0383661Y0373130D02*
X0393898D01*
X0382087Y0395177D02*
X0395472D01*
Y0387697D02*
Y0395177D01*
X0382087Y0387697D02*
Y0395177D01*
X0410039Y0375098D02*
Y0381791D01*
X0396654Y0375098D02*
X0398228Y0373130D01*
X0408465Y0373130D02*
X0410039Y0375098D01*
X0396654Y0375098D02*
Y0381791D01*
X0398228Y0373130D02*
X0408465D01*
X0396654Y0395177D02*
X0410039D01*
Y0387697D02*
Y0395177D01*
X0396654Y0387697D02*
Y0395177D01*
X0207480Y0190256D02*
Y0195374D01*
X0207087Y0180413D02*
Y0185531D01*
X0094193Y0278150D02*
X0099311D01*
X0086713D02*
X0091831D01*
X0090256Y0237205D02*
X0095374D01*
X0010827Y0186516D02*
Y0189665D01*
X0016732Y0186516D02*
Y0189665D01*
X0075492Y0243504D02*
X0076772D01*
X0075492D02*
Y0244783D01*
Y0260039D02*
X0076772D01*
X0075492Y0258760D02*
Y0260039D01*
X0090748D02*
X0092027D01*
Y0258760D02*
Y0260039D01*
X0090748Y0243504D02*
X0092027D01*
Y0244783D01*
X0436945Y0076768D02*
Y0082673D01*
X0396000Y0076768D02*
X0436945D01*
X0396000D02*
Y0082673D01*
X0429843Y0361673D02*
Y0376713D01*
Y0361673D02*
X0477244D01*
X0477244D02*
Y0376713D01*
Y0394823D02*
Y0426240D01*
X0429843D02*
X0477244D01*
X0429843Y0394823D02*
Y0426240D01*
D50*
X0016969Y0299287D02*
G03*
X0016969Y0309287I0000000J0005000D01*
G01*
X0060256Y0245433D02*
G03*
X0057756Y0245433I-0001250J0000000D01*
G01*
X0016969Y0309287D02*
X0096969D01*
Y0299287D02*
Y0309287D01*
X0016969Y0299287D02*
X0096969D01*
X0447638Y0217598D02*
X0450138Y0220098D01*
X0427638Y0217598D02*
X0447638D01*
X0427638Y0230098D02*
Y0240098D01*
Y0250098D02*
Y0252598D01*
X0450138D01*
Y0250098D02*
Y0252598D01*
Y0230098D02*
Y0240098D01*
X0427638Y0217598D02*
Y0220098D01*
X0058506Y0245433D02*
Y0260433D01*
X0059506D01*
Y0245433D02*
Y0260433D01*
X0057756Y0245433D02*
X0059506D01*
X0058506D02*
X0060256D01*
X0009512Y0217844D02*
Y0379644D01*
Y0217844D02*
X0175312D01*
Y0383644D01*
X0013512D02*
X0175312D01*
X0009512Y0379644D02*
X0013512Y0383644D01*
X0029035Y0167421D02*
X0035034D01*
Y0164422D01*
X0034034Y0163423D01*
X0032035D01*
X0031035Y0164422D01*
Y0167421D01*
X0030035Y0161423D02*
X0029035Y0160424D01*
Y0158424D01*
X0030035Y0157424D01*
X0034034D01*
X0035034Y0158424D01*
Y0160424D01*
X0034034Y0161423D01*
X0033034D01*
X0032035Y0160424D01*
Y0157424D01*
X0185848Y0239629D02*
X0184848Y0238629D01*
Y0236630D01*
X0185848Y0235630D01*
X0189847D01*
X0190847Y0236630D01*
Y0238629D01*
X0189847Y0239629D01*
X0185848Y0241628D02*
X0184848Y0242628D01*
Y0244627D01*
X0185848Y0245627D01*
X0186848D01*
X0187847Y0244627D01*
X0188847Y0245627D01*
X0189847D01*
X0190847Y0244627D01*
Y0242628D01*
X0189847Y0241628D01*
X0188847D01*
X0187847Y0242628D01*
X0186848Y0241628D01*
X0185848D01*
X0187847Y0242628D02*
Y0244627D01*
X0184848Y0251625D02*
Y0247626D01*
X0187847D01*
X0186848Y0249625D01*
Y0250625D01*
X0187847Y0251625D01*
X0189847D01*
X0190847Y0250625D01*
Y0248626D01*
X0189847Y0247626D01*
X0177916Y0214152D02*
X0176916Y0215152D01*
X0174917D01*
X0173917Y0214152D01*
Y0210153D01*
X0174917Y0209154D01*
X0176916D01*
X0177916Y0210153D01*
X0179915Y0214152D02*
X0180915Y0215152D01*
X0182914D01*
X0183914Y0214152D01*
Y0213152D01*
X0182914Y0212153D01*
X0183914Y0211153D01*
Y0210153D01*
X0182914Y0209154D01*
X0180915D01*
X0179915Y0210153D01*
Y0211153D01*
X0180915Y0212153D01*
X0179915Y0213152D01*
Y0214152D01*
X0180915Y0212153D02*
X0182914D01*
X0189912Y0215152D02*
X0187913Y0214152D01*
X0185913Y0212153D01*
Y0210153D01*
X0186913Y0209154D01*
X0188912D01*
X0189912Y0210153D01*
Y0211153D01*
X0188912Y0212153D01*
X0185913D01*
X0485101Y0371254D02*
X0483102D01*
X0484101D01*
Y0366256D01*
X0483102Y0365256D01*
X0482102D01*
X0481102Y0366256D01*
X0487100Y0365256D02*
X0489100D01*
X0488100D01*
Y0371254D01*
X0487100Y0370254D01*
X0480407Y0323130D02*
X0475409D01*
X0474409Y0322130D01*
Y0320131D01*
X0475409Y0319131D01*
X0480407D01*
X0474409Y0313133D02*
Y0317132D01*
X0478408Y0313133D01*
X0479408D01*
X0480407Y0314133D01*
Y0316132D01*
X0479408Y0317132D01*
X0474409Y0308135D02*
X0480407D01*
X0477409Y0311134D01*
Y0307135D01*
X0050058Y0269975D02*
X0054057D01*
X0052058D01*
Y0263977D01*
X0056056Y0268975D02*
X0057056Y0269975D01*
X0059055D01*
X0060055Y0268975D01*
Y0267976D01*
X0059055Y0266976D01*
X0058056D01*
X0059055D01*
X0060055Y0265977D01*
Y0264977D01*
X0059055Y0263977D01*
X0057056D01*
X0056056Y0264977D01*
X0463287Y0349213D02*
Y0355211D01*
X0466286D01*
X0467286Y0354211D01*
Y0352212D01*
X0466286Y0351212D01*
X0463287D01*
X0465287D02*
X0467286Y0349213D01*
X0469285D02*
X0471285D01*
X0470285D01*
Y0355211D01*
X0469285Y0354211D01*
X0474284Y0349213D02*
X0476283D01*
X0475283D01*
Y0355211D01*
X0474284Y0354211D01*
X0403937Y0350394D02*
Y0356392D01*
X0406936D01*
X0407936Y0355392D01*
Y0353393D01*
X0406936Y0352393D01*
X0403937D01*
X0405936D02*
X0407936Y0350394D01*
X0409935D02*
X0411934D01*
X0410935D01*
Y0356392D01*
X0409935Y0355392D01*
X0414933D02*
X0415933Y0356392D01*
X0417933D01*
X0418932Y0355392D01*
Y0351393D01*
X0417933Y0350394D01*
X0415933D01*
X0414933Y0351393D01*
Y0355392D01*
X0493467Y0339742D02*
X0492467Y0340742D01*
X0490468D01*
X0489468Y0339742D01*
Y0335744D01*
X0490468Y0334744D01*
X0492467D01*
X0493467Y0335744D01*
X0495467Y0339742D02*
X0496466Y0340742D01*
X0498466D01*
X0499465Y0339742D01*
Y0338743D01*
X0498466Y0337743D01*
X0499465Y0336743D01*
Y0335744D01*
X0498466Y0334744D01*
X0496466D01*
X0495467Y0335744D01*
Y0336743D01*
X0496466Y0337743D01*
X0495467Y0338743D01*
Y0339742D01*
X0496466Y0337743D02*
X0498466D01*
X0501465Y0334744D02*
X0503464D01*
X0502464D01*
Y0340742D01*
X0501465Y0339742D01*
X0417836Y0328802D02*
X0416837Y0327802D01*
Y0325803D01*
X0417836Y0324803D01*
X0421835D01*
X0422835Y0325803D01*
Y0327802D01*
X0421835Y0328802D01*
X0417836Y0330801D02*
X0416837Y0331801D01*
Y0333800D01*
X0417836Y0334800D01*
X0418836D01*
X0419836Y0333800D01*
X0420835Y0334800D01*
X0421835D01*
X0422835Y0333800D01*
Y0331801D01*
X0421835Y0330801D01*
X0420835D01*
X0419836Y0331801D01*
X0418836Y0330801D01*
X0417836D01*
X0419836Y0331801D02*
Y0333800D01*
X0417836Y0336799D02*
X0416837Y0337799D01*
Y0339798D01*
X0417836Y0340798D01*
X0421835D01*
X0422835Y0339798D01*
Y0337799D01*
X0421835Y0336799D01*
X0417836D01*
X0493172Y0330884D02*
X0492172Y0331884D01*
X0490173D01*
X0489173Y0330884D01*
Y0326886D01*
X0490173Y0325886D01*
X0492172D01*
X0493172Y0326886D01*
X0495171Y0331884D02*
X0499170D01*
Y0330884D01*
X0495171Y0326886D01*
Y0325886D01*
X0501169Y0326886D02*
X0502169Y0325886D01*
X0504168D01*
X0505168Y0326886D01*
Y0330884D01*
X0504168Y0331884D01*
X0502169D01*
X0501169Y0330884D01*
Y0329885D01*
X0502169Y0328885D01*
X0505168D01*
X0075317Y0284904D02*
X0074317Y0283905D01*
Y0281905D01*
X0075317Y0280906D01*
X0079315D01*
X0080315Y0281905D01*
Y0283905D01*
X0079315Y0284904D01*
X0074317Y0286904D02*
Y0290902D01*
X0075317D01*
X0079315Y0286904D01*
X0080315D01*
X0075317Y0292902D02*
X0074317Y0293901D01*
Y0295901D01*
X0075317Y0296900D01*
X0076316D01*
X0077316Y0295901D01*
X0078316Y0296900D01*
X0079315D01*
X0080315Y0295901D01*
Y0293901D01*
X0079315Y0292902D01*
X0078316D01*
X0077316Y0293901D01*
X0076316Y0292902D01*
X0075317D01*
X0077316Y0293901D02*
Y0295901D01*
X0103761Y0267877D02*
X0102762Y0266877D01*
Y0264878D01*
X0103761Y0263878D01*
X0107760D01*
X0108760Y0264878D01*
Y0266877D01*
X0107760Y0267877D01*
X0102762Y0269876D02*
Y0273875D01*
X0103761D01*
X0107760Y0269876D01*
X0108760D01*
X0102762Y0275874D02*
Y0279873D01*
X0103761D01*
X0107760Y0275874D01*
X0108760D01*
X0102129Y0227833D02*
X0101129Y0228833D01*
X0099130D01*
X0098130Y0227833D01*
Y0223834D01*
X0099130Y0222835D01*
X0101129D01*
X0102129Y0223834D01*
X0104128Y0228833D02*
X0108127D01*
Y0227833D01*
X0104128Y0223834D01*
Y0222835D01*
X0114125Y0228833D02*
X0112125Y0227833D01*
X0110126Y0225834D01*
Y0223834D01*
X0111126Y0222835D01*
X0113125D01*
X0114125Y0223834D01*
Y0224834D01*
X0113125Y0225834D01*
X0110126D01*
X0065474Y0231951D02*
X0064474Y0230952D01*
Y0228952D01*
X0065474Y0227953D01*
X0069473D01*
X0070472Y0228952D01*
Y0230952D01*
X0069473Y0231951D01*
X0064474Y0233951D02*
Y0237949D01*
X0065474D01*
X0069473Y0233951D01*
X0070472D01*
X0064474Y0243948D02*
Y0239949D01*
X0067473D01*
X0066474Y0241948D01*
Y0242948D01*
X0067473Y0243948D01*
X0069473D01*
X0070472Y0242948D01*
Y0240949D01*
X0069473Y0239949D01*
X0116499Y0240038D02*
X0115499Y0241037D01*
X0113500D01*
X0112500Y0240038D01*
Y0236039D01*
X0113500Y0235039D01*
X0115499D01*
X0116499Y0236039D01*
X0118498Y0241037D02*
X0122497D01*
Y0240038D01*
X0118498Y0236039D01*
Y0235039D01*
X0124496Y0240038D02*
X0125496Y0241037D01*
X0127495D01*
X0128495Y0240038D01*
Y0239038D01*
X0127495Y0238038D01*
X0126496D01*
X0127495D01*
X0128495Y0237039D01*
Y0236039D01*
X0127495Y0235039D01*
X0125496D01*
X0124496Y0236039D01*
X0063407Y0265613D02*
X0062407Y0264613D01*
Y0262614D01*
X0063407Y0261614D01*
X0067406D01*
X0068405Y0262614D01*
Y0264613D01*
X0067406Y0265613D01*
X0062407Y0267612D02*
Y0271611D01*
X0063407D01*
X0067406Y0267612D01*
X0068405D01*
Y0277609D02*
Y0273610D01*
X0064407Y0277609D01*
X0063407D01*
X0062407Y0276609D01*
Y0274610D01*
X0063407Y0273610D01*
X0074077Y0225569D02*
X0073078Y0226569D01*
X0071078D01*
X0070079Y0225569D01*
Y0221571D01*
X0071078Y0220571D01*
X0073078D01*
X0074077Y0221571D01*
X0076077Y0226569D02*
X0080076D01*
Y0225569D01*
X0076077Y0221571D01*
Y0220571D01*
X0082075Y0225569D02*
X0083074Y0226569D01*
X0085074D01*
X0086074Y0225569D01*
Y0221571D01*
X0085074Y0220571D01*
X0083074D01*
X0082075Y0221571D01*
Y0225569D01*
X0337876Y0227146D02*
X0342874D01*
X0343874Y0228145D01*
Y0230145D01*
X0342874Y0231144D01*
X0337876D01*
X0343874Y0233144D02*
Y0235143D01*
Y0234143D01*
X0337876D01*
X0338876Y0233144D01*
X0313103Y0291196D02*
X0312103Y0292196D01*
X0310104D01*
X0309104Y0291196D01*
Y0287197D01*
X0310104Y0286198D01*
X0312103D01*
X0313103Y0287197D01*
X0315102Y0286198D02*
X0317101D01*
X0316102D01*
Y0292196D01*
X0315102Y0291196D01*
X0297306Y0216317D02*
X0296306Y0217317D01*
X0294307D01*
X0293307Y0216317D01*
Y0212319D01*
X0294307Y0211319D01*
X0296306D01*
X0297306Y0212319D01*
X0303304Y0211319D02*
X0299305D01*
X0303304Y0215318D01*
Y0216317D01*
X0302304Y0217317D01*
X0300305D01*
X0299305Y0216317D01*
X0386045Y0185495D02*
X0385045Y0184495D01*
Y0182496D01*
X0386045Y0181496D01*
X0390044D01*
X0391043Y0182496D01*
Y0184495D01*
X0390044Y0185495D01*
X0385045Y0191493D02*
X0386045Y0189494D01*
X0388044Y0187494D01*
X0390044D01*
X0391043Y0188494D01*
Y0190493D01*
X0390044Y0191493D01*
X0389044D01*
X0388044Y0190493D01*
Y0187494D01*
X0422097Y0209709D02*
X0421098Y0210709D01*
X0419098D01*
X0418098Y0209709D01*
Y0205711D01*
X0419098Y0204711D01*
X0421098D01*
X0422097Y0205711D01*
X0424096Y0210709D02*
X0428095D01*
Y0209709D01*
X0424096Y0205711D01*
Y0204711D01*
X0400912Y0307709D02*
X0399912Y0308708D01*
X0397913D01*
X0396913Y0307709D01*
Y0303710D01*
X0397913Y0302710D01*
X0399912D01*
X0400912Y0303710D01*
X0402912Y0307709D02*
X0403911Y0308708D01*
X0405910D01*
X0406910Y0307709D01*
Y0306709D01*
X0405910Y0305709D01*
X0406910Y0304710D01*
Y0303710D01*
X0405910Y0302710D01*
X0403911D01*
X0402912Y0303710D01*
Y0304710D01*
X0403911Y0305709D01*
X0402912Y0306709D01*
Y0307709D01*
X0403911Y0305709D02*
X0405910D01*
X0235356Y0133625D02*
X0234356Y0132625D01*
Y0130626D01*
X0235356Y0129626D01*
X0239355D01*
X0240354Y0130626D01*
Y0132625D01*
X0239355Y0133625D01*
X0240354Y0135624D02*
Y0137623D01*
Y0136624D01*
X0234356D01*
X0235356Y0135624D01*
X0234356Y0144621D02*
Y0140622D01*
X0237355D01*
X0236356Y0142622D01*
Y0143622D01*
X0237355Y0144621D01*
X0239355D01*
X0240354Y0143622D01*
Y0141622D01*
X0239355Y0140622D01*
X0417541Y0233920D02*
X0416541Y0232920D01*
Y0230921D01*
X0417541Y0229921D01*
X0421540D01*
X0422539Y0230921D01*
Y0232920D01*
X0421540Y0233920D01*
X0422539Y0235919D02*
Y0237919D01*
Y0236919D01*
X0416541D01*
X0417541Y0235919D01*
X0416541Y0244916D02*
X0417541Y0242917D01*
X0419540Y0240918D01*
X0421540D01*
X0422539Y0241917D01*
Y0243917D01*
X0421540Y0244916D01*
X0420540D01*
X0419540Y0243917D01*
Y0240918D01*
X0167541Y0102424D02*
X0166541Y0101424D01*
Y0099425D01*
X0167541Y0098425D01*
X0171540D01*
X0172539Y0099425D01*
Y0101424D01*
X0171540Y0102424D01*
X0172539Y0104423D02*
Y0106423D01*
Y0105423D01*
X0166541D01*
X0167541Y0104423D01*
X0171540Y0109422D02*
X0172539Y0110421D01*
Y0112421D01*
X0171540Y0113420D01*
X0167541D01*
X0166541Y0112421D01*
Y0110421D01*
X0167541Y0109422D01*
X0168541D01*
X0169540Y0110421D01*
Y0113420D01*
X0174021Y0175773D02*
Y0181771D01*
X0177020D01*
X0178019Y0180772D01*
Y0178772D01*
X0177020Y0177773D01*
X0174021D01*
X0180018Y0175773D02*
X0182018D01*
X0181018D01*
Y0181771D01*
X0180018Y0180772D01*
X0173708Y0127390D02*
Y0133388D01*
X0176707D01*
X0177707Y0132388D01*
Y0130389D01*
X0176707Y0129389D01*
X0173708D01*
X0183705Y0127390D02*
X0179706D01*
X0183705Y0131388D01*
Y0132388D01*
X0182705Y0133388D01*
X0180706D01*
X0179706Y0132388D01*
X0266634Y0187795D02*
Y0193793D01*
X0269633D01*
X0270633Y0192794D01*
Y0190794D01*
X0269633Y0189795D01*
X0266634D01*
X0268633D02*
X0270633Y0187795D01*
X0272632D02*
X0274631D01*
X0273632D01*
Y0193793D01*
X0272632Y0192794D01*
X0169488Y0173327D02*
X0163490D01*
Y0176326D01*
X0164490Y0177325D01*
X0166489D01*
X0167489Y0176326D01*
Y0173327D01*
Y0175326D02*
X0169488Y0177325D01*
Y0182324D02*
X0163490D01*
X0166489Y0179325D01*
Y0183324D01*
X0178937Y0144291D02*
Y0150289D01*
X0181936D01*
X0182936Y0149290D01*
Y0147290D01*
X0181936Y0146291D01*
X0178937D01*
X0180936D02*
X0182936Y0144291D01*
X0188934Y0150289D02*
X0184935D01*
Y0147290D01*
X0186934Y0148290D01*
X0187934D01*
X0188934Y0147290D01*
Y0145291D01*
X0187934Y0144291D01*
X0185935D01*
X0184935Y0145291D01*
X0209842Y0127264D02*
Y0133262D01*
X0212842D01*
X0213841Y0132262D01*
Y0130263D01*
X0212842Y0129263D01*
X0209842D01*
X0211842D02*
X0213841Y0127264D01*
X0219839Y0133262D02*
X0217840Y0132262D01*
X0215841Y0130263D01*
Y0128263D01*
X0216840Y0127264D01*
X0218840D01*
X0219839Y0128263D01*
Y0129263D01*
X0218840Y0130263D01*
X0215841D01*
X0214672Y0283602D02*
Y0278604D01*
X0215672Y0277604D01*
X0217671D01*
X0218671Y0278604D01*
Y0283602D01*
X0220671Y0282602D02*
X0221670Y0283602D01*
X0223670D01*
X0224669Y0282602D01*
Y0281603D01*
X0223670Y0280603D01*
X0222670D01*
X0223670D01*
X0224669Y0279603D01*
Y0278604D01*
X0223670Y0277604D01*
X0221670D01*
X0220671Y0278604D01*
X0243277Y0187168D02*
X0242278Y0186168D01*
Y0184169D01*
X0243277Y0183169D01*
X0247276D01*
X0248276Y0184169D01*
Y0186168D01*
X0247276Y0187168D01*
X0248276Y0193166D02*
Y0189167D01*
X0244277Y0193166D01*
X0243277D01*
X0242278Y0192166D01*
Y0190167D01*
X0243277Y0189167D01*
X0248276Y0199164D02*
Y0195165D01*
X0244277Y0199164D01*
X0243277D01*
X0242278Y0198164D01*
Y0196165D01*
X0243277Y0195165D01*
X0250758Y0187168D02*
X0249758Y0186168D01*
Y0184169D01*
X0250758Y0183169D01*
X0254756D01*
X0255756Y0184169D01*
Y0186168D01*
X0254756Y0187168D01*
X0255756Y0193166D02*
Y0189167D01*
X0251757Y0193166D01*
X0250758D01*
X0249758Y0192166D01*
Y0190167D01*
X0250758Y0189167D01*
Y0195165D02*
X0249758Y0196165D01*
Y0198164D01*
X0250758Y0199164D01*
X0251757D01*
X0252757Y0198164D01*
Y0197165D01*
Y0198164D01*
X0253757Y0199164D01*
X0254756D01*
X0255756Y0198164D01*
Y0196165D01*
X0254756Y0195165D01*
X0200062Y0203325D02*
X0199062Y0204325D01*
X0197063D01*
X0196063Y0203325D01*
Y0199326D01*
X0197063Y0198327D01*
X0199062D01*
X0200062Y0199326D01*
X0206060Y0198327D02*
X0202061D01*
X0206060Y0202326D01*
Y0203325D01*
X0205060Y0204325D01*
X0203061D01*
X0202061Y0203325D01*
X0211058Y0198327D02*
Y0204325D01*
X0208059Y0201326D01*
X0212058D01*
X0221471Y0023002D02*
X0220472Y0024002D01*
X0218472D01*
X0217472Y0023002D01*
Y0019004D01*
X0218472Y0018004D01*
X0220472D01*
X0221471Y0019004D01*
X0223470Y0023002D02*
X0224470Y0024002D01*
X0226469D01*
X0227469Y0023002D01*
Y0022003D01*
X0226469Y0021003D01*
X0225470D01*
X0226469D01*
X0227469Y0020003D01*
Y0019004D01*
X0226469Y0018004D01*
X0224470D01*
X0223470Y0019004D01*
X0229469Y0023002D02*
X0230468Y0024002D01*
X0232468D01*
X0233467Y0023002D01*
Y0019004D01*
X0232468Y0018004D01*
X0230468D01*
X0229469Y0019004D01*
Y0023002D01*
X0358271Y0024002D02*
X0357272Y0025002D01*
X0355272D01*
X0354272Y0024002D01*
Y0020004D01*
X0355272Y0019004D01*
X0357272D01*
X0358271Y0020004D01*
X0360271Y0024002D02*
X0361270Y0025002D01*
X0363269D01*
X0364269Y0024002D01*
Y0023003D01*
X0363269Y0022003D01*
X0362270D01*
X0363269D01*
X0364269Y0021003D01*
Y0020004D01*
X0363269Y0019004D01*
X0361270D01*
X0360271Y0020004D01*
X0366269Y0019004D02*
X0368268D01*
X0367268D01*
Y0025002D01*
X0366269Y0024002D01*
X0168471Y0023002D02*
X0167472Y0024002D01*
X0165472D01*
X0164472Y0023002D01*
Y0019004D01*
X0165472Y0018004D01*
X0167472D01*
X0168471Y0019004D01*
X0170470Y0023002D02*
X0171470Y0024002D01*
X0173469D01*
X0174469Y0023002D01*
Y0022003D01*
X0173469Y0021003D01*
X0172470D01*
X0173469D01*
X0174469Y0020003D01*
Y0019004D01*
X0173469Y0018004D01*
X0171470D01*
X0170470Y0019004D01*
X0176469Y0023002D02*
X0177468Y0024002D01*
X0179468D01*
X0180467Y0023002D01*
Y0022003D01*
X0179468Y0021003D01*
X0178468D01*
X0179468D01*
X0180467Y0020003D01*
Y0019004D01*
X0179468Y0018004D01*
X0177468D01*
X0176469Y0019004D01*
X0265471Y0023002D02*
X0264472Y0024002D01*
X0262472D01*
X0261472Y0023002D01*
Y0019004D01*
X0262472Y0018004D01*
X0264472D01*
X0265471Y0019004D01*
X0267471Y0023002D02*
X0268470Y0024002D01*
X0270469D01*
X0271469Y0023002D01*
Y0022003D01*
X0270469Y0021003D01*
X0269470D01*
X0270469D01*
X0271469Y0020003D01*
Y0019004D01*
X0270469Y0018004D01*
X0268470D01*
X0267471Y0019004D01*
X0276468Y0018004D02*
Y0024002D01*
X0273469Y0021003D01*
X0277467D01*
X0013546Y0037872D02*
X0012546Y0038872D01*
X0010547D01*
X0009547Y0037872D01*
Y0033874D01*
X0010547Y0032874D01*
X0012546D01*
X0013546Y0033874D01*
X0018544Y0032874D02*
Y0038872D01*
X0015545Y0035873D01*
X0019544D01*
X0021543Y0037872D02*
X0022543Y0038872D01*
X0024542D01*
X0025542Y0037872D01*
Y0033874D01*
X0024542Y0032874D01*
X0022543D01*
X0021543Y0033874D01*
Y0037872D01*
X-0010371Y0037479D02*
X-0011371Y0038478D01*
X-0013370D01*
X-0014370Y0037479D01*
Y0033480D01*
X-0013370Y0032480D01*
X-0011371D01*
X-0010371Y0033480D01*
X-0005373Y0032480D02*
Y0038478D01*
X-0008372Y0035479D01*
X-0004373D01*
X-0002374Y0032480D02*
X-0000375D01*
X-0001374D01*
Y0038478D01*
X-0002374Y0037479D01*
X0123782Y0038857D02*
X0122783Y0039856D01*
X0120783D01*
X0119783Y0038857D01*
Y0034858D01*
X0120783Y0033858D01*
X0122783D01*
X0123782Y0034858D01*
X0128780Y0033858D02*
Y0039856D01*
X0125782Y0036857D01*
X0129780D01*
X0134779Y0033858D02*
Y0039856D01*
X0131780Y0036857D01*
X0135778D01*
X0098684Y0038660D02*
X0097684Y0039660D01*
X0095685D01*
X0094685Y0038660D01*
Y0034661D01*
X0095685Y0033661D01*
X0097684D01*
X0098684Y0034661D01*
X0103682Y0033661D02*
Y0039660D01*
X0100683Y0036660D01*
X0104682D01*
X0110680Y0039660D02*
X0106681D01*
Y0036660D01*
X0108680Y0037660D01*
X0109680D01*
X0110680Y0036660D01*
Y0034661D01*
X0109680Y0033661D01*
X0107681D01*
X0106681Y0034661D01*
X0429471Y0028002D02*
X0428472Y0029002D01*
X0426472D01*
X0425472Y0028002D01*
Y0024004D01*
X0426472Y0023004D01*
X0428472D01*
X0429471Y0024004D01*
X0434470Y0023004D02*
Y0029002D01*
X0431470Y0026003D01*
X0435469D01*
X0437469Y0028002D02*
X0438468Y0029002D01*
X0440468D01*
X0441467Y0028002D01*
Y0027003D01*
X0440468Y0026003D01*
X0441467Y0025003D01*
Y0024004D01*
X0440468Y0023004D01*
X0438468D01*
X0437469Y0024004D01*
Y0025003D01*
X0438468Y0026003D01*
X0437469Y0027003D01*
Y0028002D01*
X0438468Y0026003D02*
X0440468D01*
X0403471Y0028002D02*
X0402471Y0029002D01*
X0400472D01*
X0399472Y0028002D01*
Y0024004D01*
X0400472Y0023004D01*
X0402471D01*
X0403471Y0024004D01*
X0408469Y0023004D02*
Y0029002D01*
X0405471Y0026003D01*
X0409469D01*
X0411469Y0024004D02*
X0412468Y0023004D01*
X0414468D01*
X0415467Y0024004D01*
Y0028002D01*
X0414468Y0029002D01*
X0412468D01*
X0411469Y0028002D01*
Y0027003D01*
X0412468Y0026003D01*
X0415467D01*
X0487471Y0028002D02*
X0486472Y0029002D01*
X0484472D01*
X0483472Y0028002D01*
Y0024004D01*
X0484472Y0023004D01*
X0486472D01*
X0487471Y0024004D01*
X0493469Y0029002D02*
X0489470D01*
Y0026003D01*
X0491470Y0027003D01*
X0492470D01*
X0493469Y0026003D01*
Y0024004D01*
X0492470Y0023004D01*
X0490470D01*
X0489470Y0024004D01*
X0499467Y0023004D02*
X0495469D01*
X0499467Y0027003D01*
Y0028002D01*
X0498468Y0029002D01*
X0496468D01*
X0495469Y0028002D01*
X0461471D02*
X0460471Y0029002D01*
X0458472D01*
X0457472Y0028002D01*
Y0024004D01*
X0458472Y0023004D01*
X0460471D01*
X0461471Y0024004D01*
X0467469Y0029002D02*
X0463471D01*
Y0026003D01*
X0465470Y0027003D01*
X0466469D01*
X0467469Y0026003D01*
Y0024004D01*
X0466469Y0023004D01*
X0464470D01*
X0463471Y0024004D01*
X0469469Y0028002D02*
X0470468Y0029002D01*
X0472468D01*
X0473467Y0028002D01*
Y0027003D01*
X0472468Y0026003D01*
X0471468D01*
X0472468D01*
X0473467Y0025003D01*
Y0024004D01*
X0472468Y0023004D01*
X0470468D01*
X0469469Y0024004D01*
X0506742Y0165975D02*
X0505742Y0164975D01*
Y0162976D01*
X0506742Y0161976D01*
X0510741D01*
X0511740Y0162976D01*
Y0164975D01*
X0510741Y0165975D01*
X0505742Y0171973D02*
Y0167974D01*
X0508741D01*
X0507741Y0169974D01*
Y0170974D01*
X0508741Y0171973D01*
X0510741D01*
X0511740Y0170974D01*
Y0168974D01*
X0510741Y0167974D01*
X0506742Y0173972D02*
X0505742Y0174972D01*
Y0176971D01*
X0506742Y0177971D01*
X0507741D01*
X0508741Y0176971D01*
X0509741Y0177971D01*
X0510741D01*
X0511740Y0176971D01*
Y0174972D01*
X0510741Y0173972D01*
X0509741D01*
X0508741Y0174972D01*
X0507741Y0173972D01*
X0506742D01*
X0508741Y0174972D02*
Y0176971D01*
X0506742Y0138975D02*
X0505742Y0137975D01*
Y0135976D01*
X0506742Y0134976D01*
X0510741D01*
X0511740Y0135976D01*
Y0137975D01*
X0510741Y0138975D01*
X0505742Y0144973D02*
Y0140974D01*
X0508741D01*
X0507741Y0142974D01*
Y0143974D01*
X0508741Y0144973D01*
X0510741D01*
X0511740Y0143974D01*
Y0141974D01*
X0510741Y0140974D01*
Y0146973D02*
X0511740Y0147972D01*
Y0149971D01*
X0510741Y0150971D01*
X0506742D01*
X0505742Y0149971D01*
Y0147972D01*
X0506742Y0146973D01*
X0507741D01*
X0508741Y0147972D01*
Y0150971D01*
X0490376Y0232247D02*
X0489376Y0231247D01*
Y0229248D01*
X0490376Y0228248D01*
X0494374D01*
X0495374Y0229248D01*
Y0231247D01*
X0494374Y0232247D01*
X0489376Y0238245D02*
X0490376Y0236245D01*
X0492375Y0234246D01*
X0494374D01*
X0495374Y0235246D01*
Y0237245D01*
X0494374Y0238245D01*
X0493375D01*
X0492375Y0237245D01*
Y0234246D01*
X0490376Y0240244D02*
X0489376Y0241244D01*
Y0243243D01*
X0490376Y0244243D01*
X0494374D01*
X0495374Y0243243D01*
Y0241244D01*
X0494374Y0240244D01*
X0490376D01*
X0484372Y0187168D02*
X0483372Y0186168D01*
Y0184169D01*
X0484372Y0183169D01*
X0488370D01*
X0489370Y0184169D01*
Y0186168D01*
X0488370Y0187168D01*
X0483372Y0193166D02*
X0484372Y0191167D01*
X0486371Y0189167D01*
X0488370D01*
X0489370Y0190167D01*
Y0192166D01*
X0488370Y0193166D01*
X0487371D01*
X0486371Y0192166D01*
Y0189167D01*
X0489370Y0195165D02*
Y0197165D01*
Y0196165D01*
X0483372D01*
X0484372Y0195165D01*
X0454254Y0201243D02*
X0453254Y0200243D01*
Y0198244D01*
X0454254Y0197244D01*
X0458252D01*
X0459252Y0198244D01*
Y0200243D01*
X0458252Y0201243D01*
X0453254Y0207241D02*
X0454254Y0205241D01*
X0456253Y0203242D01*
X0458252D01*
X0459252Y0204242D01*
Y0206241D01*
X0458252Y0207241D01*
X0457253D01*
X0456253Y0206241D01*
Y0203242D01*
X0459252Y0213239D02*
Y0209240D01*
X0455253Y0213239D01*
X0454254D01*
X0453254Y0212239D01*
Y0210240D01*
X0454254Y0209240D01*
X0066597Y0038660D02*
X0065597Y0039660D01*
X0063598D01*
X0062598Y0038660D01*
Y0034661D01*
X0063598Y0033661D01*
X0065597D01*
X0066597Y0034661D01*
X0072595Y0039660D02*
X0070596Y0038660D01*
X0068597Y0036660D01*
Y0034661D01*
X0069596Y0033661D01*
X0071596D01*
X0072595Y0034661D01*
Y0035661D01*
X0071596Y0036660D01*
X0068597D01*
X0078593Y0039660D02*
X0074594D01*
Y0036660D01*
X0076594Y0037660D01*
X0077594D01*
X0078593Y0036660D01*
Y0034661D01*
X0077594Y0033661D01*
X0075594D01*
X0074594Y0034661D01*
X0042680Y0038463D02*
X0041680Y0039463D01*
X0039681D01*
X0038681Y0038463D01*
Y0034464D01*
X0039681Y0033465D01*
X0041680D01*
X0042680Y0034464D01*
X0048678Y0039463D02*
X0046679Y0038463D01*
X0044679Y0036464D01*
Y0034464D01*
X0045679Y0033465D01*
X0047678D01*
X0048678Y0034464D01*
Y0035464D01*
X0047678Y0036464D01*
X0044679D01*
X0054676Y0039463D02*
X0052677Y0038463D01*
X0050677Y0036464D01*
Y0034464D01*
X0051677Y0033465D01*
X0053676D01*
X0054676Y0034464D01*
Y0035464D01*
X0053676Y0036464D01*
X0050677D01*
X0314471Y0024002D02*
X0313472Y0025002D01*
X0311472D01*
X0310472Y0024002D01*
Y0020004D01*
X0311472Y0019004D01*
X0313472D01*
X0314471Y0020004D01*
X0320469Y0025002D02*
X0318470Y0024002D01*
X0316471Y0022003D01*
Y0020004D01*
X0317470Y0019004D01*
X0319469D01*
X0320469Y0020004D01*
Y0021003D01*
X0319469Y0022003D01*
X0316471D01*
X0322469Y0025002D02*
X0326467D01*
Y0024002D01*
X0322469Y0020004D01*
Y0019004D01*
X0215748Y0197146D02*
Y0203144D01*
X0218747D01*
X0219747Y0202144D01*
Y0200145D01*
X0218747Y0199145D01*
X0215748D01*
X0217747D02*
X0219747Y0197146D01*
X0221746Y0202144D02*
X0222746Y0203144D01*
X0224745D01*
X0225745Y0202144D01*
Y0201144D01*
X0224745Y0200145D01*
X0225745Y0199145D01*
Y0198145D01*
X0224745Y0197146D01*
X0222746D01*
X0221746Y0198145D01*
Y0199145D01*
X0222746Y0200145D01*
X0221746Y0201144D01*
Y0202144D01*
X0222746Y0200145D02*
X0224745D01*
X-0016065Y0074741D02*
X-0015065Y0075741D01*
Y0077741D01*
X-0016065Y0078740D01*
X-0020063D01*
X-0021063Y0077741D01*
Y0075741D01*
X-0020063Y0074741D01*
X-0016065Y0072742D02*
X-0015065Y0071742D01*
Y0069743D01*
X-0016065Y0068743D01*
X-0017064D01*
X-0018064Y0069743D01*
Y0070743D01*
Y0069743D01*
X-0019064Y0068743D01*
X-0020063D01*
X-0021063Y0069743D01*
Y0071742D01*
X-0020063Y0072742D01*
X-0016065Y0066744D02*
X-0015065Y0065744D01*
Y0063745D01*
X-0016065Y0062745D01*
X-0017064D01*
X-0018064Y0063745D01*
X-0019064Y0062745D01*
X-0020063D01*
X-0021063Y0063745D01*
Y0065744D01*
X-0020063Y0066744D01*
X-0019064D01*
X-0018064Y0065744D01*
X-0017064Y0066744D01*
X-0016065D01*
X-0018064Y0065744D02*
Y0063745D01*
X0144172Y0055155D02*
X0145171Y0056155D01*
Y0058154D01*
X0144172Y0059153D01*
X0140173D01*
X0139173Y0058154D01*
Y0056155D01*
X0140173Y0055155D01*
X0144172Y0053155D02*
X0145171Y0052156D01*
Y0050156D01*
X0144172Y0049157D01*
X0143172D01*
X0142172Y0050156D01*
Y0051156D01*
Y0050156D01*
X0141173Y0049157D01*
X0140173D01*
X0139173Y0050156D01*
Y0052156D01*
X0140173Y0053155D01*
Y0047157D02*
X0139173Y0046158D01*
Y0044158D01*
X0140173Y0043159D01*
X0144172D01*
X0145171Y0044158D01*
Y0046158D01*
X0144172Y0047157D01*
X0143172D01*
X0142172Y0046158D01*
Y0043159D01*
X0085947Y0045140D02*
X0084947Y0044141D01*
Y0042141D01*
X0085947Y0041142D01*
X0089945D01*
X0090945Y0042141D01*
Y0044141D01*
X0089945Y0045140D01*
X0090945Y0050139D02*
X0084947D01*
X0087946Y0047140D01*
Y0051139D01*
X0090945Y0057137D02*
Y0053138D01*
X0086946Y0057137D01*
X0085947D01*
X0084947Y0056137D01*
Y0054137D01*
X0085947Y0053138D01*
X0450471Y0044005D02*
X0451471Y0045005D01*
Y0047004D01*
X0450471Y0048004D01*
X0446472D01*
X0445472Y0047004D01*
Y0045005D01*
X0446472Y0044005D01*
X0445472Y0039007D02*
X0451471D01*
X0448471Y0042006D01*
Y0038007D01*
X0450471Y0036008D02*
X0451471Y0035008D01*
Y0033009D01*
X0450471Y0032009D01*
X0449471D01*
X0448471Y0033009D01*
Y0034008D01*
Y0033009D01*
X0447472Y0032009D01*
X0446472D01*
X0445472Y0033009D01*
Y0035008D01*
X0446472Y0036008D01*
X0030786Y0073954D02*
X0031786Y0074954D01*
Y0076953D01*
X0030786Y0077953D01*
X0026787D01*
X0025787Y0076953D01*
Y0074954D01*
X0026787Y0073954D01*
X0025787Y0068956D02*
X0031786D01*
X0028786Y0071955D01*
Y0067956D01*
X0031786Y0061958D02*
X0030786Y0063957D01*
X0028786Y0065957D01*
X0026787D01*
X0025787Y0064957D01*
Y0062958D01*
X0026787Y0061958D01*
X0027787D01*
X0028786Y0062958D01*
Y0065957D01*
X0389474Y0044003D02*
X0388474Y0043003D01*
Y0041004D01*
X0389474Y0040004D01*
X0393473D01*
X0394472Y0041004D01*
Y0043003D01*
X0393473Y0044003D01*
X0394472Y0049001D02*
X0388474D01*
X0391473Y0046002D01*
Y0050001D01*
X0388474Y0052000D02*
Y0055999D01*
X0389474D01*
X0393473Y0052000D01*
X0394472D01*
X0468959Y0185904D02*
X0467960Y0186904D01*
X0465960D01*
X0464961Y0185904D01*
Y0181905D01*
X0465960Y0180905D01*
X0467960D01*
X0468959Y0181905D01*
X0474957Y0186904D02*
X0470959D01*
Y0183905D01*
X0472958Y0184904D01*
X0473958D01*
X0474957Y0183905D01*
Y0181905D01*
X0473958Y0180905D01*
X0471958D01*
X0470959Y0181905D01*
X0476957Y0185904D02*
X0477956Y0186904D01*
X0479956D01*
X0480956Y0185904D01*
Y0181905D01*
X0479956Y0180905D01*
X0477956D01*
X0476957Y0181905D01*
Y0185904D01*
X0482444Y0131475D02*
X0481444Y0132474D01*
X0479445D01*
X0478445Y0131475D01*
Y0127476D01*
X0479445Y0126476D01*
X0481444D01*
X0482444Y0127476D01*
X0488442Y0132474D02*
X0484443D01*
Y0129475D01*
X0486442Y0130475D01*
X0487442D01*
X0488442Y0129475D01*
Y0127476D01*
X0487442Y0126476D01*
X0485443D01*
X0484443Y0127476D01*
X0490441Y0126476D02*
X0492440D01*
X0491441D01*
Y0132474D01*
X0490441Y0131475D01*
X0501301Y0235987D02*
X0500301Y0234987D01*
Y0232988D01*
X0501301Y0231988D01*
X0505300D01*
X0506299Y0232988D01*
Y0234987D01*
X0505300Y0235987D01*
X0500301Y0241985D02*
Y0237986D01*
X0503300D01*
X0502301Y0239986D01*
Y0240985D01*
X0503300Y0241985D01*
X0505300D01*
X0506299Y0240985D01*
Y0238986D01*
X0505300Y0237986D01*
X0506299Y0246983D02*
X0500301D01*
X0503300Y0243984D01*
Y0247983D01*
X0513013Y0194353D02*
X0512014Y0193353D01*
Y0191354D01*
X0513013Y0190354D01*
X0517012D01*
X0518012Y0191354D01*
Y0193353D01*
X0517012Y0194353D01*
X0512014Y0200351D02*
Y0196352D01*
X0515013D01*
X0514013Y0198352D01*
Y0199351D01*
X0515013Y0200351D01*
X0517012D01*
X0518012Y0199351D01*
Y0197352D01*
X0517012Y0196352D01*
X0512014Y0206349D02*
Y0202350D01*
X0515013D01*
X0514013Y0204350D01*
Y0205349D01*
X0515013Y0206349D01*
X0517012D01*
X0518012Y0205349D01*
Y0203350D01*
X0517012Y0202350D01*
X0084821Y0072970D02*
X0085821Y0073970D01*
Y0075969D01*
X0084821Y0076968D01*
X0080822D01*
X0079823Y0075969D01*
Y0073970D01*
X0080822Y0072970D01*
X0085821Y0066972D02*
Y0070970D01*
X0082822D01*
X0083821Y0068971D01*
Y0067971D01*
X0082822Y0066972D01*
X0080822D01*
X0079823Y0067971D01*
Y0069971D01*
X0080822Y0070970D01*
X0085821Y0060974D02*
X0084821Y0062973D01*
X0082822Y0064972D01*
X0080822D01*
X0079823Y0063973D01*
Y0061973D01*
X0080822Y0060974D01*
X0081822D01*
X0082822Y0061973D01*
Y0064972D01*
X0030730Y0044353D02*
X0029730Y0043353D01*
Y0041354D01*
X0030730Y0040354D01*
X0034729D01*
X0035728Y0041354D01*
Y0043353D01*
X0034729Y0044353D01*
X0029730Y0050351D02*
Y0046352D01*
X0032729D01*
X0031730Y0048352D01*
Y0049351D01*
X0032729Y0050351D01*
X0034729D01*
X0035728Y0049351D01*
Y0047352D01*
X0034729Y0046352D01*
X0029730Y0052350D02*
Y0056349D01*
X0030730D01*
X0034729Y0052350D01*
X0035728D01*
X0486821Y0060852D02*
X0485821Y0061852D01*
X0483822D01*
X0482822Y0060852D01*
Y0056854D01*
X0483822Y0055854D01*
X0485821D01*
X0486821Y0056854D01*
X0492819Y0061852D02*
X0490820Y0060852D01*
X0488821Y0058853D01*
Y0056854D01*
X0489820Y0055854D01*
X0491819D01*
X0492819Y0056854D01*
Y0057853D01*
X0491819Y0058853D01*
X0488821D01*
X0494819Y0060852D02*
X0495818Y0061852D01*
X0497818D01*
X0498817Y0060852D01*
Y0059853D01*
X0497818Y0058853D01*
X0496818D01*
X0497818D01*
X0498817Y0057853D01*
Y0056854D01*
X0497818Y0055854D01*
X0495818D01*
X0494819Y0056854D01*
X0451474Y0055003D02*
X0450474Y0054003D01*
Y0052004D01*
X0451474Y0051004D01*
X0455473D01*
X0456472Y0052004D01*
Y0054003D01*
X0455473Y0055003D01*
X0450474Y0061001D02*
X0451474Y0059001D01*
X0453473Y0057002D01*
X0455473D01*
X0456472Y0058002D01*
Y0060001D01*
X0455473Y0061001D01*
X0454473D01*
X0453473Y0060001D01*
Y0057002D01*
X0456472Y0065999D02*
X0450474D01*
X0453473Y0063000D01*
Y0066999D01*
X0164872Y0066402D02*
Y0061404D01*
X0165872Y0060404D01*
X0167871D01*
X0168871Y0061404D01*
Y0066402D01*
X0173870Y0060404D02*
Y0066402D01*
X0170870Y0063403D01*
X0174869D01*
X0304872Y0066402D02*
Y0061404D01*
X0305872Y0060404D01*
X0307872D01*
X0308871Y0061404D01*
Y0066402D01*
X0314869D02*
X0310871D01*
Y0063403D01*
X0312870Y0064403D01*
X0313870D01*
X0314869Y0063403D01*
Y0061404D01*
X0313870Y0060404D01*
X0311870D01*
X0310871Y0061404D01*
X0348872Y0066402D02*
Y0061404D01*
X0349872Y0060404D01*
X0351871D01*
X0352871Y0061404D01*
Y0066402D01*
X0354871D02*
X0358869D01*
Y0065402D01*
X0354871Y0061404D01*
Y0060404D01*
X0212872Y0066402D02*
Y0061404D01*
X0213872Y0060404D01*
X0215872D01*
X0216871Y0061404D01*
Y0066402D01*
X0218870Y0065402D02*
X0219870Y0066402D01*
X0221869D01*
X0222869Y0065402D01*
Y0064403D01*
X0221869Y0063403D01*
X0222869Y0062403D01*
Y0061404D01*
X0221869Y0060404D01*
X0219870D01*
X0218870Y0061404D01*
Y0062403D01*
X0219870Y0063403D01*
X0218870Y0064403D01*
Y0065402D01*
X0219870Y0063403D02*
X0221869D01*
X0258872Y0066402D02*
Y0061404D01*
X0259872Y0060404D01*
X0261872D01*
X0262871Y0061404D01*
Y0066402D01*
X0264871Y0060404D02*
X0266870D01*
X0265870D01*
Y0066402D01*
X0264871Y0065402D01*
X0273868Y0060404D02*
X0269869D01*
X0273868Y0064403D01*
Y0065402D01*
X0272868Y0066402D01*
X0270869D01*
X0269869Y0065402D01*
X0032278Y0114469D02*
X0027279D01*
X0026280Y0113469D01*
Y0111469D01*
X0027279Y0110470D01*
X0032278D01*
X0026280Y0108470D02*
Y0106471D01*
Y0107471D01*
X0032278D01*
X0031278Y0108470D01*
Y0103472D02*
X0032278Y0102472D01*
Y0100473D01*
X0031278Y0099473D01*
X0030278D01*
X0029279Y0100473D01*
Y0101473D01*
Y0100473D01*
X0028279Y0099473D01*
X0027279D01*
X0026280Y0100473D01*
Y0102472D01*
X0027279Y0103472D01*
X0142809Y0111713D02*
X0137811D01*
X0136811Y0110713D01*
Y0108714D01*
X0137811Y0107714D01*
X0142809D01*
X0136811Y0105714D02*
Y0103715D01*
Y0104715D01*
X0142809D01*
X0141809Y0105714D01*
X0136811Y0097717D02*
X0142809D01*
X0139810Y0100716D01*
Y0096717D01*
X0416142Y0127160D02*
Y0122161D01*
X0417141Y0121161D01*
X0419141D01*
X0420140Y0122161D01*
Y0127160D01*
X0422140Y0121161D02*
X0424139D01*
X0423139D01*
Y0127160D01*
X0422140Y0126160D01*
X0431137Y0127160D02*
X0427138D01*
Y0124160D01*
X0429138Y0125160D01*
X0430137D01*
X0431137Y0124160D01*
Y0122161D01*
X0430137Y0121161D01*
X0428138D01*
X0427138Y0122161D01*
X0456622Y0128452D02*
Y0123454D01*
X0457622Y0122454D01*
X0459621D01*
X0460621Y0123454D01*
Y0128452D01*
X0462620Y0122454D02*
X0464620D01*
X0463620D01*
Y0128452D01*
X0462620Y0127452D01*
X0471618Y0128452D02*
X0469618Y0127452D01*
X0467619Y0125453D01*
Y0123454D01*
X0468619Y0122454D01*
X0470618D01*
X0471618Y0123454D01*
Y0124453D01*
X0470618Y0125453D01*
X0467619D01*
X0415065Y0185819D02*
Y0180821D01*
X0416064Y0179821D01*
X0418064D01*
X0419063Y0180821D01*
Y0185819D01*
X0421063Y0179821D02*
X0423062D01*
X0422062D01*
Y0185819D01*
X0421063Y0184820D01*
X0426061Y0185819D02*
X0430060D01*
Y0184820D01*
X0426061Y0180821D01*
Y0179821D01*
X0472665Y0222219D02*
Y0217221D01*
X0473664Y0216221D01*
X0475664D01*
X0476663Y0217221D01*
Y0222219D01*
X0478663Y0216221D02*
X0480662D01*
X0479662D01*
Y0222219D01*
X0478663Y0221220D01*
X0483661D02*
X0484661Y0222219D01*
X0486660D01*
X0487660Y0221220D01*
Y0220220D01*
X0486660Y0219220D01*
X0487660Y0218221D01*
Y0217221D01*
X0486660Y0216221D01*
X0484661D01*
X0483661Y0217221D01*
Y0218221D01*
X0484661Y0219220D01*
X0483661Y0220220D01*
Y0221220D01*
X0484661Y0219220D02*
X0486660D01*
X0087100Y0113091D02*
X0082102D01*
X0081102Y0112091D01*
Y0110091D01*
X0082102Y0109092D01*
X0087100D01*
X0081102Y0107092D02*
Y0105093D01*
Y0106093D01*
X0087100D01*
X0086101Y0107092D01*
X0082102Y0102094D02*
X0081102Y0101094D01*
Y0099095D01*
X0082102Y0098095D01*
X0086101D01*
X0087100Y0099095D01*
Y0101094D01*
X0086101Y0102094D01*
X0085101D01*
X0084101Y0101094D01*
Y0098095D01*
X0078155Y0262992D02*
X0083154D01*
X0084153Y0263992D01*
Y0265991D01*
X0083154Y0266991D01*
X0078155D01*
X0084153Y0272989D02*
Y0268990D01*
X0080155Y0272989D01*
X0079155D01*
X0078155Y0271989D01*
Y0269990D01*
X0079155Y0268990D01*
X0084153Y0278987D02*
Y0274988D01*
X0080155Y0278987D01*
X0079155D01*
X0078155Y0277987D01*
Y0275988D01*
X0079155Y0274988D01*
X0310728Y0370368D02*
Y0364370D01*
X0313727D01*
X0314727Y0365370D01*
Y0369369D01*
X0313727Y0370368D01*
X0310728D01*
X0320725D02*
X0316726D01*
Y0367369D01*
X0318726Y0368369D01*
X0319725D01*
X0320725Y0367369D01*
Y0365370D01*
X0319725Y0364370D01*
X0317726D01*
X0316726Y0365370D01*
X0354724Y0369974D02*
Y0363976D01*
X0357723D01*
X0358723Y0364976D01*
Y0368975D01*
X0357723Y0369974D01*
X0354724D01*
X0364721D02*
X0362722Y0368975D01*
X0360722Y0366975D01*
Y0364976D01*
X0361722Y0363976D01*
X0363721D01*
X0364721Y0364976D01*
Y0365976D01*
X0363721Y0366975D01*
X0360722D01*
X0325689Y0369974D02*
Y0363976D01*
X0328688D01*
X0329688Y0364976D01*
Y0368975D01*
X0328688Y0369974D01*
X0325689D01*
X0331687D02*
X0335686D01*
Y0368975D01*
X0331687Y0364976D01*
Y0363976D01*
X0340453Y0370171D02*
Y0364173D01*
X0343452D01*
X0344451Y0365173D01*
Y0369172D01*
X0343452Y0370171D01*
X0340453D01*
X0346451Y0369172D02*
X0347450Y0370171D01*
X0349450D01*
X0350449Y0369172D01*
Y0368172D01*
X0349450Y0367172D01*
X0350449Y0366173D01*
Y0365173D01*
X0349450Y0364173D01*
X0347450D01*
X0346451Y0365173D01*
Y0366173D01*
X0347450Y0367172D01*
X0346451Y0368172D01*
Y0369172D01*
X0347450Y0367172D02*
X0349450D01*
X0245243Y0177827D02*
Y0172829D01*
X0246243Y0171829D01*
X0248242D01*
X0249242Y0172829D01*
Y0177827D01*
X0255240Y0171829D02*
X0251241D01*
X0255240Y0175828D01*
Y0176828D01*
X0254240Y0177827D01*
X0252241D01*
X0251241Y0176828D01*
X0297995Y0352931D02*
X0296995Y0353931D01*
X0294996D01*
X0293996Y0352931D01*
Y0348933D01*
X0294996Y0347933D01*
X0296995D01*
X0297995Y0348933D01*
X0303993Y0353931D02*
X0301993Y0352931D01*
X0299994Y0350932D01*
Y0348933D01*
X0300994Y0347933D01*
X0302993D01*
X0303993Y0348933D01*
Y0349932D01*
X0302993Y0350932D01*
X0299994D01*
X0305992Y0348933D02*
X0306992Y0347933D01*
X0308991D01*
X0309991Y0348933D01*
Y0352931D01*
X0308991Y0353931D01*
X0306992D01*
X0305992Y0352931D01*
Y0351932D01*
X0306992Y0350932D01*
X0309991D01*
X0402264Y0369876D02*
Y0363878D01*
X0405263D01*
X0406262Y0364878D01*
Y0368876D01*
X0405263Y0369876D01*
X0402264D01*
X0408262Y0364878D02*
X0409262Y0363878D01*
X0411261D01*
X0412260Y0364878D01*
Y0368876D01*
X0411261Y0369876D01*
X0409262D01*
X0408262Y0368876D01*
Y0367877D01*
X0409262Y0366877D01*
X0412260D01*
X0384744Y0369679D02*
Y0363681D01*
X0387743D01*
X0388743Y0364681D01*
Y0368679D01*
X0387743Y0369679D01*
X0384744D01*
X0390742Y0363681D02*
X0392741D01*
X0391742D01*
Y0369679D01*
X0390742Y0368679D01*
X0395741D02*
X0396740Y0369679D01*
X0398740D01*
X0399739Y0368679D01*
Y0364681D01*
X0398740Y0363681D01*
X0396740D01*
X0395741Y0364681D01*
Y0368679D01*
X0292224Y0370860D02*
Y0364862D01*
X0295223D01*
X0296223Y0365862D01*
Y0369861D01*
X0295223Y0370860D01*
X0292224D01*
X0298222Y0364862D02*
X0300222D01*
X0299222D01*
Y0370860D01*
X0298222Y0369861D01*
X0303221Y0364862D02*
X0305220D01*
X0304221D01*
Y0370860D01*
X0303221Y0369861D01*
X0366831Y0369679D02*
Y0363681D01*
X0369830D01*
X0370829Y0364681D01*
Y0368679D01*
X0369830Y0369679D01*
X0366831D01*
X0372829Y0363681D02*
X0374828D01*
X0373828D01*
Y0369679D01*
X0372829Y0368679D01*
X0381826Y0363681D02*
X0377827D01*
X0381826Y0367680D01*
Y0368679D01*
X0380826Y0369679D01*
X0378827D01*
X0377827Y0368679D01*
X0293406Y0356102D02*
Y0362100D01*
X0296405D01*
X0297404Y0361101D01*
Y0359101D01*
X0296405Y0358102D01*
X0293406D01*
X0295405D02*
X0297404Y0356102D01*
X0299404Y0357102D02*
X0300403Y0356102D01*
X0302403D01*
X0303402Y0357102D01*
Y0361101D01*
X0302403Y0362100D01*
X0300403D01*
X0299404Y0361101D01*
Y0360101D01*
X0300403Y0359101D01*
X0303402D01*
X0328543Y0329226D02*
Y0324228D01*
X0329543Y0323228D01*
X0331542D01*
X0332542Y0324228D01*
Y0329226D01*
X0338540Y0323228D02*
X0334541D01*
X0338540Y0327227D01*
Y0328227D01*
X0337540Y0329226D01*
X0335541D01*
X0334541Y0328227D01*
X0340539D02*
X0341539Y0329226D01*
X0343538D01*
X0344538Y0328227D01*
Y0327227D01*
X0343538Y0326227D01*
X0342539D01*
X0343538D01*
X0344538Y0325228D01*
Y0324228D01*
X0343538Y0323228D01*
X0341539D01*
X0340539Y0324228D01*
X0457403Y0247404D02*
X0456403Y0246405D01*
Y0244405D01*
X0457403Y0243406D01*
X0461402D01*
X0462402Y0244405D01*
Y0246405D01*
X0461402Y0247404D01*
X0457403Y0249404D02*
X0456403Y0250403D01*
Y0252403D01*
X0457403Y0253402D01*
X0458403D01*
X0459403Y0252403D01*
X0460402Y0253402D01*
X0461402D01*
X0462402Y0252403D01*
Y0250403D01*
X0461402Y0249404D01*
X0460402D01*
X0459403Y0250403D01*
X0458403Y0249404D01*
X0457403D01*
X0459403Y0250403D02*
Y0252403D01*
X0462402Y0259400D02*
Y0255402D01*
X0458403Y0259400D01*
X0457403D01*
X0456403Y0258401D01*
Y0256401D01*
X0457403Y0255402D01*
X0231594Y0386713D02*
Y0392711D01*
X0234594D01*
X0235593Y0391711D01*
Y0389712D01*
X0234594Y0388712D01*
X0231594D01*
X0240592Y0386713D02*
Y0392711D01*
X0237593Y0389712D01*
X0241591D01*
X0288090Y0336417D02*
X0282092D01*
Y0339416D01*
X0283092Y0340416D01*
X0285091D01*
X0286091Y0339416D01*
Y0336417D01*
Y0338417D02*
X0288090Y0340416D01*
Y0342415D02*
Y0344415D01*
Y0343415D01*
X0282092D01*
X0283092Y0342415D01*
X0288090Y0350413D02*
X0282092D01*
X0285091Y0347414D01*
Y0351413D01*
X0278740Y0336122D02*
X0272742D01*
Y0339121D01*
X0273742Y0340121D01*
X0275741D01*
X0276741Y0339121D01*
Y0336122D01*
Y0338121D02*
X0278740Y0340121D01*
Y0342120D02*
Y0344120D01*
Y0343120D01*
X0272742D01*
X0273742Y0342120D01*
X0272742Y0351117D02*
X0273742Y0349118D01*
X0275741Y0347118D01*
X0277741D01*
X0278740Y0348118D01*
Y0350117D01*
X0277741Y0351117D01*
X0276741D01*
X0275741Y0350117D01*
Y0347118D01*
X0267815Y0336713D02*
X0261817D01*
Y0339712D01*
X0262817Y0340711D01*
X0264816D01*
X0265816Y0339712D01*
Y0336713D01*
Y0338712D02*
X0267815Y0340711D01*
Y0342711D02*
Y0344710D01*
Y0343710D01*
X0261817D01*
X0262817Y0342711D01*
X0261817Y0347709D02*
Y0351708D01*
X0262817D01*
X0266815Y0347709D01*
X0267815D01*
X0257972Y0337303D02*
X0251974D01*
Y0340302D01*
X0252974Y0341302D01*
X0254973D01*
X0255973Y0340302D01*
Y0337303D01*
Y0339302D02*
X0257972Y0341302D01*
Y0343301D02*
Y0345301D01*
Y0344301D01*
X0251974D01*
X0252974Y0343301D01*
Y0348300D02*
X0251974Y0349299D01*
Y0351299D01*
X0252974Y0352298D01*
X0253974D01*
X0254973Y0351299D01*
X0255973Y0352298D01*
X0256973D01*
X0257972Y0351299D01*
Y0349299D01*
X0256973Y0348300D01*
X0255973D01*
X0254973Y0349299D01*
X0253974Y0348300D01*
X0252974D01*
X0254973Y0349299D02*
Y0351299D01*
X0427783Y0262146D02*
Y0257148D01*
X0428782Y0256148D01*
X0430782D01*
X0431781Y0257148D01*
Y0262146D01*
X0437779Y0256148D02*
X0433781D01*
X0437779Y0260147D01*
Y0261146D01*
X0436780Y0262146D01*
X0434780D01*
X0433781Y0261146D01*
X0443778Y0262146D02*
X0439779D01*
Y0259147D01*
X0441778Y0260147D01*
X0442778D01*
X0443778Y0259147D01*
Y0257148D01*
X0442778Y0256148D01*
X0440778D01*
X0439779Y0257148D01*
X-0000295Y0382185D02*
Y0388183D01*
X0002704D01*
X0003703Y0387183D01*
Y0385184D01*
X0002704Y0384184D01*
X-0000295D01*
X0009702Y0388183D02*
X0005703D01*
Y0385184D01*
X0007702Y0386184D01*
X0008702D01*
X0009702Y0385184D01*
Y0383185D01*
X0008702Y0382185D01*
X0006702D01*
X0005703Y0383185D01*
X0178015Y0197813D02*
X0177015Y0198813D01*
X0175015D01*
X0174016Y0197813D01*
Y0193815D01*
X0175015Y0192815D01*
X0177015D01*
X0178015Y0193815D01*
X0180014Y0197813D02*
X0181014Y0198813D01*
X0183013D01*
X0184012Y0197813D01*
Y0196814D01*
X0183013Y0195814D01*
X0184012Y0194814D01*
Y0193815D01*
X0183013Y0192815D01*
X0181014D01*
X0180014Y0193815D01*
Y0194814D01*
X0181014Y0195814D01*
X0180014Y0196814D01*
Y0197813D01*
X0181014Y0195814D02*
X0183013D01*
X0186012Y0197813D02*
X0187012Y0198813D01*
X0189011D01*
X0190011Y0197813D01*
Y0196814D01*
X0189011Y0195814D01*
X0188011D01*
X0189011D01*
X0190011Y0194814D01*
Y0193815D01*
X0189011Y0192815D01*
X0187012D01*
X0186012Y0193815D01*
X0178310Y0189152D02*
X0177310Y0190152D01*
X0175311D01*
X0174311Y0189152D01*
Y0185153D01*
X0175311Y0184153D01*
X0177310D01*
X0178310Y0185153D01*
X0180309Y0189152D02*
X0181309Y0190152D01*
X0183308D01*
X0184308Y0189152D01*
Y0188152D01*
X0183308Y0187153D01*
X0184308Y0186153D01*
Y0185153D01*
X0183308Y0184153D01*
X0181309D01*
X0180309Y0185153D01*
Y0186153D01*
X0181309Y0187153D01*
X0180309Y0188152D01*
Y0189152D01*
X0181309Y0187153D02*
X0183308D01*
X0189306Y0184153D02*
Y0190152D01*
X0186307Y0187153D01*
X0190306D01*
X-0017717Y0214075D02*
Y0220073D01*
X-0014717D01*
X-0013718Y0219073D01*
Y0217074D01*
X-0014717Y0216074D01*
X-0017717D01*
X-0007720Y0220073D02*
X-0009719Y0219073D01*
X-0011718Y0217074D01*
Y0215074D01*
X-0010719Y0214075D01*
X-0008720D01*
X-0007720Y0215074D01*
Y0216074D01*
X-0008720Y0217074D01*
X-0011718D01*
X0019685Y0192815D02*
Y0198813D01*
X0022684D01*
X0023684Y0197813D01*
Y0195814D01*
X0022684Y0194814D01*
X0019685D01*
X0021684D02*
X0023684Y0192815D01*
X0029682D02*
X0025683D01*
X0029682Y0196814D01*
Y0197813D01*
X0028682Y0198813D01*
X0026683D01*
X0025683Y0197813D01*
X0031681D02*
X0032681Y0198813D01*
X0034680D01*
X0035680Y0197813D01*
Y0193815D01*
X0034680Y0192815D01*
X0032681D01*
X0031681Y0193815D01*
Y0197813D01*
X0019384Y0329232D02*
X0014386D01*
X0013386Y0328233D01*
Y0326233D01*
X0014386Y0325234D01*
X0019384D01*
X0013386Y0319235D02*
Y0323234D01*
X0017384Y0319235D01*
X0018384D01*
X0019384Y0320235D01*
Y0322235D01*
X0018384Y0323234D01*
X0019384Y0313237D02*
X0018384Y0315237D01*
X0016385Y0317236D01*
X0014386D01*
X0013386Y0316236D01*
Y0314237D01*
X0014386Y0313237D01*
X0015385D01*
X0016385Y0314237D01*
Y0317236D01*
X0434272Y0018802D02*
Y0014004D01*
X0436672D01*
X0437471Y0014804D01*
Y0015603D01*
X0436672Y0016403D01*
X0434272D01*
X0436672D01*
X0437471Y0017203D01*
Y0018003D01*
X0436672Y0018802D01*
X0434272D01*
X0442270D02*
X0440670Y0018003D01*
X0439071Y0016403D01*
Y0014804D01*
X0439871Y0014004D01*
X0441470D01*
X0442270Y0014804D01*
Y0015603D01*
X0441470Y0016403D01*
X0439071D01*
X0447068Y0014004D02*
X0443869D01*
X0447068Y0017203D01*
Y0018003D01*
X0446269Y0018802D01*
X0444669D01*
X0443869Y0018003D01*
X0196772Y0018802D02*
Y0014004D01*
X0199172D01*
X0199971Y0014804D01*
Y0015603D01*
X0199172Y0016403D01*
X0196772D01*
X0199172D01*
X0199971Y0017203D01*
Y0018003D01*
X0199172Y0018802D01*
X0196772D01*
X0201571Y0014004D02*
X0203170D01*
X0202371D01*
Y0018802D01*
X0201571Y0018003D01*
X0207969Y0014004D02*
Y0018802D01*
X0205570Y0016403D01*
X0208769D01*
X0176772Y0018802D02*
Y0014004D01*
X0179172D01*
X0179971Y0014804D01*
Y0015603D01*
X0179172Y0016403D01*
X0176772D01*
X0179172D01*
X0179971Y0017203D01*
Y0018003D01*
X0179172Y0018802D01*
X0176772D01*
X0181571Y0014004D02*
X0183170D01*
X0182371D01*
Y0018802D01*
X0181571Y0018003D01*
X0185570Y0014004D02*
X0187169D01*
X0186369D01*
Y0018802D01*
X0185570Y0018003D01*
X0131772Y0018802D02*
Y0014004D01*
X0134172D01*
X0134971Y0014804D01*
Y0015603D01*
X0134172Y0016403D01*
X0131772D01*
X0134172D01*
X0134971Y0017203D01*
Y0018003D01*
X0134172Y0018802D01*
X0131772D01*
X0136571Y0014004D02*
X0138170D01*
X0137371D01*
Y0018802D01*
X0136571Y0018003D01*
X0160827Y0111221D02*
X0158203D01*
X0156891Y0112532D01*
X0158203Y0113844D01*
X0160827D01*
X0158859D01*
Y0111221D01*
X0157547Y0117780D02*
X0156891Y0117124D01*
Y0115812D01*
X0157547Y0115156D01*
X0158203D01*
X0158859Y0115812D01*
Y0117124D01*
X0159515Y0117780D01*
X0160171D01*
X0160827Y0117124D01*
Y0115812D01*
X0160171Y0115156D01*
X0156300Y0157840D02*
Y0156528D01*
Y0157184D01*
X0159580D01*
X0160236Y0156528D01*
Y0155872D01*
X0159580Y0155217D01*
X0156300Y0159152D02*
Y0161776D01*
Y0160464D01*
X0160236D01*
Y0163088D02*
X0157612D01*
X0156300Y0164400D01*
X0157612Y0165712D01*
X0160236D01*
X0158268D01*
Y0163088D01*
X0156956Y0169648D02*
X0156300Y0168992D01*
Y0167680D01*
X0156956Y0167024D01*
X0159580D01*
X0160236Y0167680D01*
Y0168992D01*
X0159580Y0169648D01*
X0158268D01*
Y0168336D01*
X0027329Y0185630D02*
X0024705D01*
X0027329Y0188254D01*
Y0188910D01*
X0026673Y0189566D01*
X0025361D01*
X0024705Y0188910D01*
X0035200D02*
X0034544Y0189566D01*
X0033232D01*
X0032576Y0188910D01*
Y0186286D01*
X0033232Y0185630D01*
X0034544D01*
X0035200Y0186286D01*
Y0187598D01*
X0033888D01*
X0036512Y0189566D02*
Y0185630D01*
Y0187598D01*
X0039136D01*
Y0189566D01*
Y0185630D01*
X0040448Y0188254D02*
X0043071D01*
X0040448Y0185630D01*
X0043071D01*
X0048319D02*
X0050287Y0187598D01*
X0048319Y0189566D01*
X0051599Y0188910D02*
X0052255Y0189566D01*
X0053567D01*
X0054223Y0188910D01*
Y0186286D01*
X0053567Y0185630D01*
X0052255D01*
X0051599Y0186286D01*
Y0188910D01*
X0062094Y0189566D02*
Y0185630D01*
X0060126D01*
X0059470Y0186286D01*
Y0187598D01*
X0060126Y0188254D01*
X0062094D01*
X0063406Y0189566D02*
Y0185630D01*
X0065374D01*
X0066030Y0186286D01*
Y0186942D01*
X0065374Y0187598D01*
X0063406D01*
X0065374D01*
X0066030Y0188254D01*
Y0188910D01*
X0065374Y0189566D01*
X0063406D01*
X0067342Y0185630D02*
Y0188254D01*
X0067998D01*
X0068654Y0187598D01*
Y0185630D01*
Y0187598D01*
X0069310Y0188254D01*
X0069966Y0187598D01*
Y0185630D01*
X0002264Y0392126D02*
Y0396062D01*
X0004232D01*
X0004888Y0395406D01*
Y0394094D01*
X0004232Y0393438D01*
X0002264D01*
X0003576D02*
X0004888Y0392126D01*
X0008823Y0396062D02*
X0006199D01*
Y0394094D01*
X0007511D01*
X0006199D01*
Y0392126D01*
X0014727D02*
X0016039D01*
X0016695Y0392782D01*
Y0394094D01*
X0016039Y0394750D01*
X0014727D01*
X0014071Y0394094D01*
Y0392782D01*
X0014727Y0392126D01*
X0018007Y0394750D02*
Y0392782D01*
X0018663Y0392126D01*
X0020631D01*
Y0394750D01*
X0022598Y0395406D02*
Y0394750D01*
X0021942D01*
X0023254D01*
X0022598D01*
Y0392782D01*
X0023254Y0392126D01*
D56*
X0601632Y0382535D02*
X0601204Y0382106D01*
X0601632Y0381678D01*
X0602061Y0382106D01*
X0601632Y0382535D01*
X0610459Y0388534D02*
X0610031Y0389391D01*
X0609174Y0390248D01*
X0608317Y0390676D01*
X0606603D01*
X0605746Y0390248D01*
X0604889Y0389391D01*
X0604460Y0388534D01*
X0604032Y0387248D01*
Y0385106D01*
X0604460Y0383820D01*
X0604889Y0382963D01*
X0605746Y0382106D01*
X0606603Y0381678D01*
X0608317D01*
X0609174Y0382106D01*
X0610031Y0382963D01*
X0610459Y0383820D01*
Y0385106D01*
X0608317D02*
X0610459D01*
X0615515Y0390676D02*
Y0381678D01*
X0612516Y0390676D02*
X0618514D01*
X0622157D02*
X0621300Y0390248D01*
X0620443Y0389391D01*
X0620014Y0388534D01*
X0619586Y0387248D01*
Y0385106D01*
X0620014Y0383820D01*
X0620443Y0382963D01*
X0621300Y0382106D01*
X0622157Y0381678D01*
X0623871D01*
X0624727Y0382106D01*
X0625584Y0382963D01*
X0626013Y0383820D01*
X0626441Y0385106D01*
Y0387248D01*
X0626013Y0388534D01*
X0625584Y0389391D01*
X0624727Y0390248D01*
X0623871Y0390676D01*
X0622157D01*
D70*
X0098732Y0069185D02*
G03*
X0098732Y0069185I-0000492J0000000D01*
G01*
X0042732D02*
G03*
X0042732Y0069185I-0000492J0000000D01*
G01*
X-0011268D02*
G03*
X-0011268Y0069185I-0000492J0000000D01*
G01*
X0482106Y0160346D02*
G03*
X0482106Y0160346I-0000492J0000000D01*
G01*
X0493917Y0155606D02*
G03*
X0493917Y0155606I-0000492J0000000D01*
G01*
X0498327Y0183346D02*
G03*
X0498327Y0183346I-0000492J0000000D01*
G01*
X0510138Y0230606D02*
G03*
X0510138Y0230606I-0000492J0000000D01*
G01*
X0431693Y0315748D02*
G03*
X0431693Y0315748I-0000492J0000000D01*
G01*
X0113594Y0049098D02*
G03*
X0113594Y0049098I-0000492J0000000D01*
G01*
X0116335Y0060909D02*
G03*
X0116335Y0060909I-0000492J0000000D01*
G01*
X0060335D02*
G03*
X0060335Y0060909I-0000492J0000000D01*
G01*
X0057595Y0049098D02*
G03*
X0057595Y0049098I-0000492J0000000D01*
G01*
X0006335Y0060909D02*
G03*
X0006335Y0060909I-0000492J0000000D01*
G01*
X0003594Y0049098D02*
G03*
X0003594Y0049098I-0000492J0000000D01*
G01*
X0478594Y0040098D02*
G03*
X0478594Y0040098I-0000492J0000000D01*
G01*
X0418595Y0041098D02*
G03*
X0418595Y0041098I-0000492J0000000D01*
G01*
X0423335Y0052909D02*
G03*
X0423335Y0052909I-0000492J0000000D01*
G01*
X0283890Y0035291D02*
G03*
X0283890Y0035291I-0000492J0000000D01*
G01*
X0237890D02*
G03*
X0237890Y0035291I-0000492J0000000D01*
G01*
X0189890D02*
G03*
X0189890Y0035291I-0000492J0000000D01*
G01*
X0329890D02*
G03*
X0329890Y0035291I-0000492J0000000D01*
G01*
X0373890D02*
G03*
X0373890Y0035291I-0000492J0000000D01*
G01*
X0483335Y0051910D02*
G03*
X0483335Y0051910I-0000492J0000000D01*
G01*
X0463732Y0064185D02*
G03*
X0463732Y0064185I-0000492J0000000D01*
G01*
X0469831Y0140744D02*
G03*
X0469831Y0140744I-0000492J0000000D01*
G01*
X0484957Y0198791D02*
G03*
X0484957Y0198791I-0000492J0000000D01*
G01*
X0249114Y0167835D02*
G03*
X0249114Y0167835I-0000492J0000000D01*
G01*
X0325492Y0211122D02*
G03*
X0325492Y0211122I-0000492J0000000D01*
G01*
X0328268Y0336713D02*
G03*
X0328268Y0336713I-0000492J0000000D01*
G01*
X0095866Y0246850D02*
G03*
X0095866Y0246850I-0000492J0000000D01*
G01*
X0402732Y0063185D02*
G03*
X0402732Y0063185I-0000492J0000000D01*
G01*
X0449114Y0359114D02*
G03*
X0449114Y0359114I-0000492J0000000D01*
G01*
D71*
X-0020591Y0352539D02*
Y0410039D01*
X-0020197Y0166319D02*
Y0223819D01*
D72*
X0263042Y0223382D02*
X0264094D01*
X0216850D02*
Y0224434D01*
X0264094Y0269574D02*
Y0270626D01*
X0216850Y0269574D02*
Y0270626D01*
Y0223382D02*
X0217903D01*
X0264094D02*
Y0224434D01*
X0263042Y0270626D02*
X0264094D01*
X0216850D02*
X0217903D01*
D73*
X0314272Y0013789D02*
X0316329D01*
X0317015Y0014018D01*
X0317243Y0014246D01*
X0317472Y0014703D01*
Y0015389D01*
X0317243Y0015846D01*
X0317015Y0016074D01*
X0316329Y0016303D01*
X0314272D01*
Y0011504D01*
X0319003Y0016303D02*
X0321517D01*
X0320146Y0014475D01*
X0320831D01*
X0321288Y0014246D01*
X0321517Y0014018D01*
X0321745Y0013332D01*
Y0012875D01*
X0321517Y0012190D01*
X0321060Y0011733D01*
X0320374Y0011504D01*
X0319688D01*
X0319003Y0011733D01*
X0318774Y0011961D01*
X0318546Y0012418D01*
D74*
X0249039Y0377894D02*
X0248206Y0377061D01*
X0246540D01*
X0245707Y0377894D01*
Y0378727D01*
X0246540Y0379560D01*
X0245707Y0380393D01*
Y0381226D01*
X0246540Y0382059D01*
X0248206D01*
X0249039Y0381226D01*
Y0380393D01*
X0248206Y0379560D01*
X0249039Y0378727D01*
Y0377894D01*
X0248206Y0379560D02*
X0246540D01*
X0249039Y0387061D02*
X0245707D01*
Y0387894D01*
X0249039Y0391226D01*
Y0392059D01*
X0293039D02*
X0291373D01*
X0292206D01*
Y0387061D01*
X0293039Y0387894D01*
X0291707Y0382059D02*
X0295039D01*
X0291707Y0378727D01*
Y0377894D01*
X0292540Y0377061D01*
X0294206D01*
X0295039Y0377894D01*
X0524217Y0354663D02*
X0524574D01*
X0525288Y0354306D01*
X0525645Y0353948D01*
X0526002Y0353234D01*
Y0351806D01*
X0525645Y0351092D01*
X0525288Y0350735D01*
X0524574Y0350378D01*
X0523860D01*
X0523146Y0350735D01*
X0522075Y0351449D01*
X0518504Y0355020D01*
Y0350021D01*
X0526002Y0346200D02*
X0525645Y0347271D01*
X0524574Y0347986D01*
X0522789Y0348342D01*
X0521718D01*
X0519932Y0347986D01*
X0518861Y0347271D01*
X0518504Y0346200D01*
Y0345486D01*
X0518861Y0344415D01*
X0519932Y0343701D01*
X0521718Y0343344D01*
X0522789D01*
X0524574Y0343701D01*
X0525645Y0344415D01*
X0526002Y0345486D01*
Y0346200D01*
X0524574Y0341665D02*
X0524931Y0340951D01*
X0526002Y0339880D01*
X0518504D01*
X0524931Y0331882D02*
X0525645Y0332239D01*
X0526002Y0333310D01*
Y0334024D01*
X0525645Y0335095D01*
X0524574Y0335809D01*
X0522789Y0336167D01*
X0521003D01*
X0519575Y0335809D01*
X0518861Y0335095D01*
X0518504Y0334024D01*
Y0333667D01*
X0518861Y0332596D01*
X0519575Y0331882D01*
X0520646Y0331525D01*
X0521003D01*
X0522075Y0331882D01*
X0522789Y0332596D01*
X0523146Y0333667D01*
Y0334024D01*
X0522789Y0335095D01*
X0522075Y0335809D01*
X0521003Y0336167D01*
X0526002Y0323991D02*
X0518504D01*
X0526002D02*
Y0320777D01*
X0525645Y0319706D01*
X0525288Y0319349D01*
X0524574Y0318992D01*
X0523860D01*
X0523146Y0319349D01*
X0522789Y0319706D01*
X0522432Y0320777D01*
Y0323991D01*
Y0321491D02*
X0518504Y0318992D01*
X0526002Y0317314D02*
X0518504D01*
X0526002Y0315742D02*
X0518504D01*
X0526002Y0310743D02*
X0521003Y0315742D01*
X0522789Y0313957D02*
X0518504Y0310743D01*
X0526002Y0304423D02*
Y0309065D01*
X0518504D01*
Y0304423D01*
X0522432Y0309065D02*
Y0306209D01*
X0526002Y0303174D02*
X0518504D01*
X0526002D02*
X0518504Y0298175D01*
X0526002D02*
X0518504D01*
X0526002Y0291240D02*
X0518504D01*
X0526002D02*
Y0288741D01*
X0525645Y0287669D01*
X0524931Y0286955D01*
X0524217Y0286598D01*
X0523146Y0286241D01*
X0521360D01*
X0520289Y0286598D01*
X0519575Y0286955D01*
X0518861Y0287669D01*
X0518504Y0288741D01*
Y0291240D01*
X0526002Y0284563D02*
X0518504D01*
X0526002D02*
Y0282064D01*
X0525645Y0280992D01*
X0524931Y0280278D01*
X0524217Y0279921D01*
X0523146Y0279564D01*
X0521360D01*
X0520289Y0279921D01*
X0519575Y0280278D01*
X0518861Y0280992D01*
X0518504Y0282064D01*
Y0284563D01*
X0524931Y0272887D02*
X0525645Y0273601D01*
X0526002Y0274672D01*
Y0276101D01*
X0525645Y0277172D01*
X0524931Y0277886D01*
X0524217D01*
X0523503Y0277529D01*
X0523146Y0277172D01*
X0522789Y0276458D01*
X0522075Y0274315D01*
X0521718Y0273601D01*
X0521360Y0273244D01*
X0520646Y0272887D01*
X0519575D01*
X0518861Y0273601D01*
X0518504Y0274672D01*
Y0276101D01*
X0518861Y0277172D01*
X0519575Y0277886D01*
X0526002Y0265317D02*
X0518504D01*
X0526002D02*
Y0262104D01*
X0525645Y0261032D01*
X0525288Y0260675D01*
X0524574Y0260318D01*
X0523860D01*
X0523146Y0260675D01*
X0522789Y0261032D01*
X0522432Y0262104D01*
Y0265317D02*
Y0262104D01*
X0522075Y0261032D01*
X0521718Y0260675D01*
X0521003Y0260318D01*
X0519932D01*
X0519218Y0260675D01*
X0518861Y0261032D01*
X0518504Y0262104D01*
Y0265317D01*
X0526002Y0256498D02*
X0525645Y0257212D01*
X0524931Y0257926D01*
X0524217Y0258283D01*
X0523146Y0258640D01*
X0521360D01*
X0520289Y0258283D01*
X0519575Y0257926D01*
X0518861Y0257212D01*
X0518504Y0256498D01*
Y0255069D01*
X0518861Y0254355D01*
X0519575Y0253641D01*
X0520289Y0253284D01*
X0521360Y0252927D01*
X0523146D01*
X0524217Y0253284D01*
X0524931Y0253641D01*
X0525645Y0254355D01*
X0526002Y0255069D01*
Y0256498D01*
X0518504Y0245464D02*
X0526002Y0248321D01*
X0518504Y0251177D01*
X0521003Y0250106D02*
Y0246535D01*
X0526002Y0243715D02*
X0518504D01*
X0526002D02*
Y0240501D01*
X0525645Y0239430D01*
X0525288Y0239073D01*
X0524574Y0238716D01*
X0523860D01*
X0523146Y0239073D01*
X0522789Y0239430D01*
X0522432Y0240501D01*
Y0243715D01*
Y0241215D02*
X0518504Y0238716D01*
X0526002Y0237037D02*
X0518504D01*
X0526002D02*
Y0234538D01*
X0525645Y0233467D01*
X0524931Y0232753D01*
X0524217Y0232396D01*
X0523146Y0232039D01*
X0521360D01*
X0520289Y0232396D01*
X0519575Y0232753D01*
X0518861Y0233467D01*
X0518504Y0234538D01*
Y0237037D01*
X0176797Y0116957D02*
X0173465D01*
X0176797Y0120289D01*
Y0121122D01*
X0175964Y0121955D01*
X0174298D01*
X0173465Y0121122D01*
X0175465Y0106957D02*
X0177131D01*
X0176298D01*
Y0111955D01*
X0175465Y0111122D01*
X0229465Y0107790D02*
X0230298Y0106957D01*
X0231964D01*
X0232797Y0107790D01*
Y0111122D01*
X0231964Y0111955D01*
X0230298D01*
X0229465Y0111122D01*
Y0110289D01*
X0230298Y0109456D01*
X0232797D01*
X0229465Y0116957D02*
X0231131D01*
X0230298D01*
Y0121955D01*
X0229465Y0121122D01*
X0233630D02*
X0234463Y0121955D01*
X0236129D01*
X0236962Y0121122D01*
Y0117790D01*
X0236129Y0116957D01*
X0234463D01*
X0233630Y0117790D01*
Y0121122D01*
X0177190Y0165382D02*
X0173858D01*
X0177190Y0168714D01*
Y0169547D01*
X0176357Y0170380D01*
X0174691D01*
X0173858Y0169547D01*
X0175858Y0155382D02*
X0177524D01*
X0176691D01*
Y0160380D01*
X0175858Y0159547D01*
X0229858Y0156215D02*
X0230691Y0155382D01*
X0232358D01*
X0233190Y0156215D01*
Y0159547D01*
X0232358Y0160380D01*
X0230691D01*
X0229858Y0159547D01*
Y0158714D01*
X0230691Y0157881D01*
X0233190D01*
X0229858Y0165382D02*
X0231524D01*
X0230691D01*
Y0170380D01*
X0229858Y0169547D01*
X0234024D02*
X0234857Y0170380D01*
X0236523D01*
X0237356Y0169547D01*
Y0166215D01*
X0236523Y0165382D01*
X0234857D01*
X0234024Y0166215D01*
Y0169547D01*
D75*
X0267791Y0274326D02*
X0264459Y0270994D01*
Y0274326D02*
X0267791Y0270994D01*
X0266125Y0274326D02*
Y0270994D01*
X0264459Y0272660D02*
X0267791D01*
X0240472Y0247004D02*
X0245471D01*
Y0244505D01*
X0244638Y0243672D01*
X0242972D01*
X0242139Y0244505D01*
Y0247004D01*
X0240472Y0242006D02*
X0245471D01*
X0240472Y0238673D01*
X0245471D01*
Y0247004D02*
X0240472D01*
Y0244505D01*
X0241305Y0243672D01*
X0244638D01*
X0245471Y0244505D01*
Y0247004D01*
Y0238673D02*
Y0242006D01*
X0240472D01*
Y0238673D01*
X0242972Y0242006D02*
Y0240339D01*
X0245471Y0237007D02*
X0242139D01*
X0240472Y0235341D01*
X0242139Y0233675D01*
X0245471D01*
Y0247004D02*
X0242139D01*
X0240472Y0245338D01*
X0242139Y0243672D01*
X0245471D01*
X0240472Y0242006D02*
X0243805D01*
X0245471Y0240339D01*
X0243805Y0238673D01*
X0240472D01*
X0242972D01*
Y0242006D01*
X0245471Y0237007D02*
X0240472D01*
Y0233675D01*
X0245471Y0247004D02*
Y0243672D01*
Y0245338D01*
X0240472D01*
X0245471Y0239506D02*
Y0241173D01*
X0244638Y0242006D01*
X0241305D01*
X0240472Y0241173D01*
Y0239506D01*
X0241305Y0238673D01*
X0244638D01*
X0245471Y0239506D01*
Y0237007D02*
X0240472D01*
Y0233675D01*
M02*
