%FSAX25Y25*%
%MOIN*%
G70*
G01*
G75*
G04 Layer_Color=32896*
%ADD10R,0.41339X0.33071*%
%ADD11R,0.04134X0.12992*%
%ADD12R,0.05118X0.05906*%
%ADD13R,0.10000X0.15000*%
%ADD14O,0.10000X0.15000*%
%ADD15R,0.20000X0.09500*%
%ADD16R,0.20000X0.04500*%
%ADD17R,0.04331X0.05512*%
%ADD18R,0.05512X0.04331*%
%ADD19R,0.08661X0.07874*%
%ADD20R,0.04331X0.06693*%
%ADD21R,0.01575X0.08465*%
%ADD22R,0.01575X0.08465*%
%ADD23R,0.06693X0.04331*%
%ADD24R,0.07874X0.08661*%
%ADD25R,0.08000X0.07200*%
%ADD26O,0.06500X0.03000*%
%ADD27R,0.06500X0.03000*%
%ADD28O,0.04000X0.20000*%
%ADD29R,0.01181X0.03169*%
%ADD30R,0.03169X0.01181*%
%ADD31R,0.26378X0.26378*%
%ADD32R,0.06496X0.01181*%
%ADD33R,0.33071X0.41339*%
%ADD34R,0.12992X0.04134*%
%ADD35R,0.04331X0.02559*%
%ADD36O,0.07480X0.02362*%
%ADD37C,0.01969*%
%ADD38O,0.02362X0.08661*%
%ADD39R,0.10236X0.05906*%
%ADD40R,0.04000X0.16000*%
%ADD41R,0.16000X0.04000*%
%ADD42R,0.05906X0.05118*%
%ADD43O,0.03150X0.00984*%
%ADD44O,0.00984X0.03150*%
%ADD45R,0.10236X0.10236*%
%ADD46C,0.03543*%
%ADD47C,0.00500*%
%ADD48C,0.03150*%
%ADD49C,0.00787*%
%ADD50C,0.01000*%
%ADD51C,0.01181*%
%ADD52C,0.01969*%
%ADD53C,0.03937*%
%ADD54C,0.02362*%
%ADD55C,0.01575*%
%ADD56C,0.00900*%
%ADD57R,0.11909X0.03543*%
%ADD58R,0.09843X0.09843*%
%ADD59C,0.09843*%
%ADD60R,0.05906X0.05906*%
%ADD61C,0.05906*%
%ADD62C,0.05000*%
%ADD63C,0.14961*%
%ADD64C,0.06299*%
%ADD65R,0.06299X0.06299*%
%ADD66C,0.02598*%
%ADD67C,0.03150*%
%ADD68R,0.05709X0.02165*%
%ADD69O,0.07874X0.01378*%
%ADD70C,0.00984*%
%ADD71C,0.00394*%
%ADD72C,0.00600*%
%ADD73C,0.00720*%
%ADD74C,0.00800*%
%ADD75C,0.00300*%
%ADD76R,0.00100X0.00100*%
%ADD77R,3.15000X0.30000*%
%ADD78R,0.42139X0.33871*%
%ADD79R,0.04934X0.13792*%
%ADD80R,0.05918X0.06706*%
%ADD81R,0.10800X0.15800*%
%ADD82O,0.10800X0.15800*%
%ADD83R,0.20800X0.10300*%
%ADD84R,0.20800X0.05300*%
%ADD85R,0.05131X0.06312*%
%ADD86R,0.06312X0.05131*%
%ADD87R,0.09461X0.08674*%
%ADD88R,0.05131X0.07493*%
%ADD89R,0.02375X0.09265*%
%ADD90R,0.02375X0.09265*%
%ADD91R,0.07493X0.05131*%
%ADD92R,0.08674X0.09461*%
%ADD93R,0.08800X0.08000*%
%ADD94O,0.07300X0.03800*%
%ADD95R,0.07300X0.03800*%
%ADD96O,0.04800X0.20800*%
%ADD97R,0.01981X0.03969*%
%ADD98R,0.03969X0.01981*%
%ADD99R,0.27178X0.27178*%
%ADD100R,0.07296X0.01981*%
%ADD101R,0.33871X0.42139*%
%ADD102R,0.13792X0.04934*%
%ADD103R,0.05131X0.03359*%
%ADD104O,0.08280X0.03162*%
%ADD105C,0.02769*%
%ADD106O,0.03162X0.09461*%
%ADD107R,0.11036X0.06706*%
%ADD108R,0.04800X0.16800*%
%ADD109R,0.16800X0.04800*%
%ADD110R,0.06706X0.05918*%
%ADD111O,0.03950X0.01784*%
%ADD112O,0.01784X0.03950*%
%ADD113R,0.11036X0.11036*%
%ADD114R,0.10642X0.10642*%
%ADD115C,0.10642*%
%ADD116R,0.06706X0.06706*%
%ADD117C,0.06706*%
%ADD118C,0.05800*%
%ADD119C,0.15761*%
%ADD120C,0.07099*%
%ADD121R,0.07099X0.07099*%
%ADD122C,0.03950*%
%ADD123R,0.06509X0.02965*%
%ADD124O,0.08674X0.02178*%
%ADD125C,0.03398*%
%ADD126C,0.01500*%
D50*
X0138339Y-0014564D02*
G03*
X0138339Y-0014564I-0010000J0000000D01*
G01*
X-0049528Y0401004D02*
X-0031528D01*
X-0049528Y0381004D02*
X-0031528D01*
X-0049528Y0337204D02*
X-0031528D01*
X-0049528Y0028504D02*
X-0031528D01*
X-0049528Y0013504D02*
X-0031528D01*
X-0049528Y0013484D02*
X-0031528D01*
X-0049528Y0000004D02*
X-0031528D01*
X0554331Y-0034744D02*
Y0005118D01*
X0518799Y-0034744D02*
Y0006988D01*
X0442572Y-0034744D02*
Y-0019496D01*
X0195472Y-0034744D02*
Y-0019496D01*
X0188072Y-0034744D02*
Y-0019496D01*
X0130972Y-0034744D02*
Y-0019496D01*
X0028982Y-0034744D02*
Y0011484D01*
X-0029528Y-0034744D02*
Y0011484D01*
X-0000528Y-0034744D02*
Y-0020996D01*
X0114139Y-0019864D02*
X0116139Y-0019364D01*
X0114139Y-0014364D02*
X0116139Y-0019364D01*
X0114139Y-0019864D02*
Y-0014364D01*
X0114159Y-0014380D02*
X0116308Y-0009317D01*
X0114159Y-0014380D02*
X0114272Y-0008996D01*
X0116308Y-0009317D01*
D56*
X0673371Y0261932D02*
Y0262361D01*
X0673800Y0263218D01*
X0674228Y0263646D01*
X0675085Y0264075D01*
X0676799D01*
X0677656Y0263646D01*
X0678085Y0263218D01*
X0678513Y0262361D01*
Y0261504D01*
X0678085Y0260647D01*
X0677228Y0259362D01*
X0672943Y0255077D01*
X0678942D01*
X0683526Y0264075D02*
X0682241Y0263646D01*
X0681384Y0262361D01*
X0680956Y0260219D01*
Y0258933D01*
X0681384Y0256791D01*
X0682241Y0255505D01*
X0683526Y0255077D01*
X0684383D01*
X0685669Y0255505D01*
X0686526Y0256791D01*
X0686954Y0258933D01*
Y0260219D01*
X0686526Y0262361D01*
X0685669Y0263646D01*
X0684383Y0264075D01*
X0683526D01*
X0699264Y0116325D02*
X0697978Y0115896D01*
X0697121Y0114611D01*
X0696693Y0112469D01*
Y0111183D01*
X0697121Y0109041D01*
X0697978Y0107755D01*
X0699264Y0107327D01*
X0700121D01*
X0701406Y0107755D01*
X0702263Y0109041D01*
X0702692Y0111183D01*
Y0112469D01*
X0702263Y0114611D01*
X0701406Y0115896D01*
X0700121Y0116325D01*
X0699264D01*
X0705134Y0108184D02*
X0704705Y0107755D01*
X0705134Y0107327D01*
X0705562Y0107755D01*
X0705134Y0108184D01*
X0708390Y0116325D02*
X0713104D01*
X0710533Y0112897D01*
X0711818D01*
X0712675Y0112469D01*
X0713104Y0112040D01*
X0713532Y0110755D01*
Y0109898D01*
X0713104Y0108612D01*
X0712247Y0107755D01*
X0710961Y0107327D01*
X0709676D01*
X0708390Y0107755D01*
X0707962Y0108184D01*
X0707533Y0109041D01*
X0717688Y0116325D02*
X0716403Y0115896D01*
X0715975Y0115039D01*
Y0114182D01*
X0716403Y0113326D01*
X0717260Y0112897D01*
X0718974Y0112469D01*
X0720259Y0112040D01*
X0721116Y0111183D01*
X0721545Y0110326D01*
Y0109041D01*
X0721116Y0108184D01*
X0720688Y0107755D01*
X0719402Y0107327D01*
X0717688D01*
X0716403Y0107755D01*
X0715975Y0108184D01*
X0715546Y0109041D01*
Y0110326D01*
X0715975Y0111183D01*
X0716831Y0112040D01*
X0718117Y0112469D01*
X0719831Y0112897D01*
X0720688Y0113326D01*
X0721116Y0114182D01*
Y0115039D01*
X0720688Y0115896D01*
X0719402Y0116325D01*
X0717688D01*
D72*
X-0082718Y0397405D02*
X-0080718D01*
X-0081718D01*
Y0403403D01*
X-0082718Y0402403D01*
X-0077719D02*
X-0076719Y0403403D01*
X-0074720D01*
X-0073720Y0402403D01*
Y0398405D01*
X-0074720Y0397405D01*
X-0076719D01*
X-0077719Y0398405D01*
Y0402403D01*
X-0071721Y0397405D02*
X-0069722D01*
X-0070721D01*
Y0403403D01*
X-0071721Y0402403D01*
X-0066723Y0397405D02*
Y0398405D01*
X-0065723D01*
Y0397405D01*
X-0066723D01*
X-0061724Y0402403D02*
X-0060725Y0403403D01*
X-0058725D01*
X-0057726Y0402403D01*
Y0401404D01*
X-0058725Y0400404D01*
X-0057726Y0399404D01*
Y0398405D01*
X-0058725Y0397405D01*
X-0060725D01*
X-0061724Y0398405D01*
Y0399404D01*
X-0060725Y0400404D01*
X-0061724Y0401404D01*
Y0402403D01*
X-0060725Y0400404D02*
X-0058725D01*
X-0051728Y0403403D02*
X-0055726D01*
Y0400404D01*
X-0053727Y0401404D01*
X-0052727D01*
X-0051728Y0400404D01*
Y0398405D01*
X-0052727Y0397405D01*
X-0054727D01*
X-0055726Y0398405D01*
X-0078719Y0378405D02*
X-0077719Y0377405D01*
X-0075720D01*
X-0074720Y0378405D01*
Y0382403D01*
X-0075720Y0383403D01*
X-0077719D01*
X-0078719Y0382403D01*
Y0381404D01*
X-0077719Y0380404D01*
X-0074720D01*
X-0068722Y0383403D02*
X-0070721Y0382403D01*
X-0072721Y0380404D01*
Y0378405D01*
X-0071721Y0377405D01*
X-0069722D01*
X-0068722Y0378405D01*
Y0379404D01*
X-0069722Y0380404D01*
X-0072721D01*
X-0066723Y0377405D02*
Y0378405D01*
X-0065723D01*
Y0377405D01*
X-0066723D01*
X-0061724Y0383403D02*
X-0057726D01*
Y0382403D01*
X-0061724Y0378405D01*
Y0377405D01*
X-0055726Y0383403D02*
X-0051728D01*
Y0382403D01*
X-0055726Y0378405D01*
Y0377405D01*
X-0078719Y0338603D02*
X-0077719Y0339603D01*
X-0075720D01*
X-0074720Y0338603D01*
Y0337604D01*
X-0075720Y0336604D01*
X-0074720Y0335604D01*
Y0334605D01*
X-0075720Y0333605D01*
X-0077719D01*
X-0078719Y0334605D01*
Y0335604D01*
X-0077719Y0336604D01*
X-0078719Y0337604D01*
Y0338603D01*
X-0077719Y0336604D02*
X-0075720D01*
X-0068722Y0339603D02*
X-0072721D01*
Y0336604D01*
X-0070721Y0337604D01*
X-0069722D01*
X-0068722Y0336604D01*
Y0334605D01*
X-0069722Y0333605D01*
X-0071721D01*
X-0072721Y0334605D01*
X-0066723Y0333605D02*
Y0334605D01*
X-0065723D01*
Y0333605D01*
X-0066723D01*
X-0057726Y0339603D02*
X-0059725Y0338603D01*
X-0061724Y0336604D01*
Y0334605D01*
X-0060725Y0333605D01*
X-0058725D01*
X-0057726Y0334605D01*
Y0335604D01*
X-0058725Y0336604D01*
X-0061724D01*
X-0051728Y0339603D02*
X-0055726D01*
Y0336604D01*
X-0053727Y0337604D01*
X-0052727D01*
X-0051728Y0336604D01*
Y0334605D01*
X-0052727Y0333605D01*
X-0054727D01*
X-0055726Y0334605D01*
X-0072721Y0030903D02*
X-0068722D01*
Y0029903D01*
X-0072721Y0025905D01*
Y0024905D01*
X-0066723D02*
Y0025905D01*
X-0065723D01*
Y0024905D01*
X-0066723D01*
X-0057726D02*
X-0061724D01*
X-0057726Y0028904D01*
Y0029903D01*
X-0058725Y0030903D01*
X-0060725D01*
X-0061724Y0029903D01*
X-0052727Y0024905D02*
Y0030903D01*
X-0055726Y0027904D01*
X-0051728D01*
X-0072721Y0014903D02*
X-0071721Y0015903D01*
X-0069722D01*
X-0068722Y0014903D01*
Y0013904D01*
X-0069722Y0012904D01*
X-0070721D01*
X-0069722D01*
X-0068722Y0011904D01*
Y0010905D01*
X-0069722Y0009905D01*
X-0071721D01*
X-0072721Y0010905D01*
X-0066723Y0009905D02*
Y0010905D01*
X-0065723D01*
Y0009905D01*
X-0066723D01*
X-0058725D02*
Y0015903D01*
X-0061724Y0012904D01*
X-0057726D01*
X-0055726Y0014903D02*
X-0054727Y0015903D01*
X-0052727D01*
X-0051728Y0014903D01*
Y0013904D01*
X-0052727Y0012904D01*
X-0053727D01*
X-0052727D01*
X-0051728Y0011904D01*
Y0010905D01*
X-0052727Y0009905D01*
X-0054727D01*
X-0055726Y0010905D01*
X-0072721Y0014884D02*
X-0071721Y0015883D01*
X-0069722D01*
X-0068722Y0014884D01*
Y0013884D01*
X-0069722Y0012884D01*
X-0070721D01*
X-0069722D01*
X-0068722Y0011885D01*
Y0010885D01*
X-0069722Y0009885D01*
X-0071721D01*
X-0072721Y0010885D01*
X-0066723Y0009885D02*
Y0010885D01*
X-0065723D01*
Y0009885D01*
X-0066723D01*
X-0058725D02*
Y0015883D01*
X-0061724Y0012884D01*
X-0057726D01*
X-0051728Y0009885D02*
X-0055726D01*
X-0051728Y0013884D01*
Y0014884D01*
X-0052727Y0015883D01*
X-0054727D01*
X-0055726Y0014884D01*
X-0072721Y0001403D02*
X-0071721Y0002403D01*
X-0069722D01*
X-0068722Y0001403D01*
Y-0002595D01*
X-0069722Y-0003595D01*
X-0071721D01*
X-0072721Y-0002595D01*
Y0001403D01*
X-0066723Y-0003595D02*
Y-0002595D01*
X-0065723D01*
Y-0003595D01*
X-0066723D01*
X-0061724Y0001403D02*
X-0060725Y0002403D01*
X-0058725D01*
X-0057726Y0001403D01*
Y-0002595D01*
X-0058725Y-0003595D01*
X-0060725D01*
X-0061724Y-0002595D01*
Y0001403D01*
X-0055726D02*
X-0054727Y0002403D01*
X-0052727D01*
X-0051728Y0001403D01*
Y-0002595D01*
X-0052727Y-0003595D01*
X-0054727D01*
X-0055726Y-0002595D01*
Y0001403D01*
X0557930Y-0068934D02*
Y-0066934D01*
Y-0067934D01*
X0551932D01*
X0552931Y-0068934D01*
X0557930Y-0060936D02*
X0551932D01*
X0554931Y-0063935D01*
Y-0059937D01*
X0552931Y-0057937D02*
X0551932Y-0056938D01*
Y-0054938D01*
X0552931Y-0053939D01*
X0556930D01*
X0557930Y-0054938D01*
Y-0056938D01*
X0556930Y-0057937D01*
X0552931D01*
X0557930Y-0051939D02*
X0556930D01*
Y-0050940D01*
X0557930D01*
Y-0051939D01*
X0556930Y-0046941D02*
X0557930Y-0045941D01*
Y-0043942D01*
X0556930Y-0042942D01*
X0552931D01*
X0551932Y-0043942D01*
Y-0045941D01*
X0552931Y-0046941D01*
X0553931D01*
X0554931Y-0045941D01*
Y-0042942D01*
X0552931Y-0040943D02*
X0551932Y-0039943D01*
Y-0037944D01*
X0552931Y-0036944D01*
X0553931D01*
X0554931Y-0037944D01*
Y-0038943D01*
Y-0037944D01*
X0555930Y-0036944D01*
X0556930D01*
X0557930Y-0037944D01*
Y-0039943D01*
X0556930Y-0040943D01*
X0522398Y-0065935D02*
Y-0063935D01*
Y-0064935D01*
X0516400D01*
X0517400Y-0065935D01*
Y-0060936D02*
X0516400Y-0059937D01*
Y-0057937D01*
X0517400Y-0056938D01*
X0518399D01*
X0519399Y-0057937D01*
Y-0058937D01*
Y-0057937D01*
X0520399Y-0056938D01*
X0521399D01*
X0522398Y-0057937D01*
Y-0059937D01*
X0521399Y-0060936D01*
X0522398Y-0054938D02*
Y-0052939D01*
Y-0053939D01*
X0516400D01*
X0517400Y-0054938D01*
X0522398Y-0049940D02*
X0521399D01*
Y-0048940D01*
X0522398D01*
Y-0049940D01*
X0521399Y-0044941D02*
X0522398Y-0043942D01*
Y-0041943D01*
X0521399Y-0040943D01*
X0517400D01*
X0516400Y-0041943D01*
Y-0043942D01*
X0517400Y-0044941D01*
X0518399D01*
X0519399Y-0043942D01*
Y-0040943D01*
X0522398Y-0038943D02*
Y-0036944D01*
Y-0037944D01*
X0516400D01*
X0517400Y-0038943D01*
X0446172Y-0067934D02*
Y-0065935D01*
Y-0066934D01*
X0440173D01*
X0441173Y-0067934D01*
X0446172Y-0062936D02*
Y-0060936D01*
Y-0061936D01*
X0440173D01*
X0441173Y-0062936D01*
X0446172Y-0053939D02*
Y-0057937D01*
X0442173Y-0053939D01*
X0441173D01*
X0440173Y-0054938D01*
Y-0056938D01*
X0441173Y-0057937D01*
X0446172Y-0051939D02*
X0445172D01*
Y-0050940D01*
X0446172D01*
Y-0051939D01*
X0440173Y-0042942D02*
Y-0046941D01*
X0443172D01*
X0442173Y-0044941D01*
Y-0043942D01*
X0443172Y-0042942D01*
X0445172D01*
X0446172Y-0043942D01*
Y-0045941D01*
X0445172Y-0046941D01*
X0440173Y-0036944D02*
Y-0040943D01*
X0443172D01*
X0442173Y-0038943D01*
Y-0037944D01*
X0443172Y-0036944D01*
X0445172D01*
X0446172Y-0037944D01*
Y-0039943D01*
X0445172Y-0040943D01*
X0199072Y-0060936D02*
X0193073D01*
X0196072Y-0063935D01*
Y-0059937D01*
X0198072Y-0057937D02*
X0199072Y-0056938D01*
Y-0054938D01*
X0198072Y-0053939D01*
X0194073D01*
X0193073Y-0054938D01*
Y-0056938D01*
X0194073Y-0057937D01*
X0195073D01*
X0196072Y-0056938D01*
Y-0053939D01*
X0199072Y-0051939D02*
X0198072D01*
Y-0050940D01*
X0199072D01*
Y-0051939D01*
X0193073Y-0046941D02*
Y-0042942D01*
X0194073D01*
X0198072Y-0046941D01*
X0199072D01*
X0194073Y-0040943D02*
X0193073Y-0039943D01*
Y-0037944D01*
X0194073Y-0036944D01*
X0195073D01*
X0196072Y-0037944D01*
X0197072Y-0036944D01*
X0198072D01*
X0199072Y-0037944D01*
Y-0039943D01*
X0198072Y-0040943D01*
X0197072D01*
X0196072Y-0039943D01*
X0195073Y-0040943D01*
X0194073D01*
X0196072Y-0039943D02*
Y-0037944D01*
X0191672Y-0060936D02*
X0185673D01*
X0188672Y-0063935D01*
Y-0059937D01*
X0185673Y-0057937D02*
Y-0053939D01*
X0186673D01*
X0190672Y-0057937D01*
X0191672D01*
Y-0051939D02*
X0190672D01*
Y-0050940D01*
X0191672D01*
Y-0051939D01*
X0190672Y-0046941D02*
X0191672Y-0045941D01*
Y-0043942D01*
X0190672Y-0042942D01*
X0186673D01*
X0185673Y-0043942D01*
Y-0045941D01*
X0186673Y-0046941D01*
X0187673D01*
X0188672Y-0045941D01*
Y-0042942D01*
X0186673Y-0040943D02*
X0185673Y-0039943D01*
Y-0037944D01*
X0186673Y-0036944D01*
X0190672D01*
X0191672Y-0037944D01*
Y-0039943D01*
X0190672Y-0040943D01*
X0186673D01*
X0129573Y-0063935D02*
X0128573Y-0062936D01*
Y-0060936D01*
X0129573Y-0059937D01*
X0130573D01*
X0131572Y-0060936D01*
Y-0061936D01*
Y-0060936D01*
X0132572Y-0059937D01*
X0133572D01*
X0134572Y-0060936D01*
Y-0062936D01*
X0133572Y-0063935D01*
X0129573Y-0057937D02*
X0128573Y-0056938D01*
Y-0054938D01*
X0129573Y-0053939D01*
X0130573D01*
X0131572Y-0054938D01*
Y-0055938D01*
Y-0054938D01*
X0132572Y-0053939D01*
X0133572D01*
X0134572Y-0054938D01*
Y-0056938D01*
X0133572Y-0057937D01*
X0134572Y-0051939D02*
X0133572D01*
Y-0050940D01*
X0134572D01*
Y-0051939D01*
Y-0043942D02*
X0128573D01*
X0131572Y-0046941D01*
Y-0042942D01*
X0129573Y-0040943D02*
X0128573Y-0039943D01*
Y-0037944D01*
X0129573Y-0036944D01*
X0133572D01*
X0134572Y-0037944D01*
Y-0039943D01*
X0133572Y-0040943D01*
X0129573D01*
X0026583Y-0057937D02*
Y-0053939D01*
X0027582D01*
X0031581Y-0057937D01*
X0032581D01*
Y-0051939D02*
X0031581D01*
Y-0050940D01*
X0032581D01*
Y-0051939D01*
X0026583Y-0042942D02*
Y-0046941D01*
X0029582D01*
X0028582Y-0044941D01*
Y-0043942D01*
X0029582Y-0042942D01*
X0031581D01*
X0032581Y-0043942D01*
Y-0045941D01*
X0031581Y-0046941D01*
X0027582Y-0040943D02*
X0026583Y-0039943D01*
Y-0037944D01*
X0027582Y-0036944D01*
X0031581D01*
X0032581Y-0037944D01*
Y-0039943D01*
X0031581Y-0040943D01*
X0027582D01*
X-0031927Y-0057937D02*
Y-0053939D01*
X-0030927D01*
X-0026928Y-0057937D01*
X-0025929D01*
Y-0051939D02*
X-0026928D01*
Y-0050940D01*
X-0025929D01*
Y-0051939D01*
X-0030927Y-0046941D02*
X-0031927Y-0045941D01*
Y-0043942D01*
X-0030927Y-0042942D01*
X-0029927D01*
X-0028928Y-0043942D01*
Y-0044941D01*
Y-0043942D01*
X-0027928Y-0042942D01*
X-0026928D01*
X-0025929Y-0043942D01*
Y-0045941D01*
X-0026928Y-0046941D01*
X-0031927Y-0040943D02*
Y-0036944D01*
X-0030927D01*
X-0026928Y-0040943D01*
X-0025929D01*
X-0001927Y-0057937D02*
X-0002927Y-0056938D01*
Y-0054938D01*
X-0001927Y-0053939D01*
X0002072D01*
X0003071Y-0054938D01*
Y-0056938D01*
X0002072Y-0057937D01*
X-0001927D01*
X0003071Y-0051939D02*
X0002072D01*
Y-0050940D01*
X0003071D01*
Y-0051939D01*
X-0001927Y-0046941D02*
X-0002927Y-0045941D01*
Y-0043942D01*
X-0001927Y-0042942D01*
X0002072D01*
X0003071Y-0043942D01*
Y-0045941D01*
X0002072Y-0046941D01*
X-0001927D01*
Y-0040943D02*
X-0002927Y-0039943D01*
Y-0037944D01*
X-0001927Y-0036944D01*
X0002072D01*
X0003071Y-0037944D01*
Y-0039943D01*
X0002072Y-0040943D01*
X-0001927D01*
D73*
X0690336Y0268276D02*
X0689879Y0268048D01*
X0689421Y0267590D01*
X0689193Y0266905D01*
Y0266448D01*
X0689421Y0265762D01*
X0689879Y0265305D01*
X0690336Y0265077D01*
X0691021D01*
X0691478Y0265305D01*
X0691935Y0265762D01*
X0692164Y0266448D01*
Y0266905D01*
X0691935Y0267590D01*
X0691478Y0268048D01*
X0691021Y0268276D01*
X0690336D01*
D74*
X0695709Y0256009D02*
X0709079Y0253272D01*
X0696649Y0255667D02*
X0708438Y0252973D01*
X0694770Y0256351D02*
X0709720Y0253570D01*
X0707114Y0250794D02*
X0707798Y0252674D01*
X0707412Y0250154D02*
X0708438Y0252973D01*
X0697589Y0255325D02*
X0707798Y0252674D01*
X0697589Y0255325D02*
X0707114Y0250794D01*
X0698529Y0254983D02*
X0707157Y0252375D01*
X0706815Y0251435D02*
X0707157Y0252375D01*
X0698529Y0254983D02*
X0706815Y0251435D01*
X0695709Y0256009D02*
X0707711Y0249513D01*
X0694770Y0256351D02*
X0723665Y0245834D01*
X0694770Y0256351D02*
X0708010Y0248872D01*
X0707711Y0249513D02*
X0709079Y0253272D01*
X0708010Y0248872D02*
X0709720Y0253570D01*
X0696649Y0255667D02*
X0707412Y0250154D01*
X0666693Y0238827D02*
Y0268827D01*
X0669193Y0163827D02*
X0696693Y0263827D01*
X0662943Y0235077D02*
Y0243827D01*
X0666693Y0158827D02*
Y0235077D01*
X0662943D02*
X0666693D01*
X0652193Y0262827D02*
X0664193Y0261327D01*
X0651693Y0263327D02*
X0665193Y0261327D01*
X0651193Y0263827D02*
X0666193Y0261327D01*
X0652693Y0262327D02*
X0663193Y0261327D01*
X0652193Y0259827D02*
X0664193Y0261327D01*
X0635443D02*
X0666193D01*
X0653193Y0261827D02*
X0662193Y0261327D01*
X0652693Y0260327D02*
Y0262327D01*
X0652193Y0259827D02*
Y0262827D01*
X0653193Y0260827D02*
Y0261827D01*
Y0260827D02*
X0662193Y0261327D01*
X0652693Y0260327D02*
X0663193Y0261327D01*
X0651693Y0259327D02*
X0665193Y0261327D01*
X0656693Y0228827D02*
X0662943Y0243827D01*
X0651193Y0258827D02*
X0666193Y0261327D01*
X0660443Y0138827D02*
X0666693Y0158827D01*
X0657736Y0139665D02*
X0660236D01*
X0651693Y0158827D02*
X0657943Y0138827D01*
X0651693Y0259327D02*
Y0263327D01*
X0655443Y0235077D02*
X0656693Y0228827D01*
X0651193Y0258827D02*
Y0263827D01*
X0651693Y0235077D02*
X0655443D01*
X0651693Y0158827D02*
Y0235077D01*
X0662943Y0112327D02*
X0674943Y0113827D01*
X0661943Y0112327D02*
X0675443Y0114327D01*
X0660943Y0112327D02*
X0675943Y0114827D01*
X0674443Y0111327D02*
Y0113327D01*
X0663943Y0112327D02*
X0674443Y0113327D01*
X0673943Y0111827D02*
Y0112827D01*
X0664943Y0112327D02*
X0673943Y0112827D01*
X0664943Y0112327D02*
X0673943Y0111827D01*
X0663943Y0112327D02*
X0674443Y0111327D01*
X0675943Y0109827D02*
Y0114827D01*
X0660943Y0112327D02*
X0675943Y0109827D01*
X0675443Y0110327D02*
Y0114327D01*
X0674943Y0110827D02*
Y0113827D01*
X0662943Y0112327D02*
X0674943Y0110827D01*
X0661943Y0112327D02*
X0675443Y0110327D01*
X0642943Y0114327D02*
X0656443Y0112327D01*
X0642443Y0114827D02*
X0657443Y0112327D01*
X0660943D02*
X0690443D01*
X0643443Y0113827D02*
X0655443Y0112327D01*
X0644443Y0112827D02*
X0653443Y0112327D01*
X0643943Y0113327D02*
X0654443Y0112327D01*
X0644443Y0111827D02*
Y0112827D01*
Y0111827D02*
X0653443Y0112327D01*
X0642943Y0110327D02*
X0656443Y0112327D01*
X0642443Y0109827D02*
X0657443Y0112327D01*
X0643943Y0111327D02*
X0654443Y0112327D01*
X0643443Y0110827D02*
X0655443Y0112327D01*
X0642943Y0110327D02*
Y0114327D01*
X0642443Y0109827D02*
Y0114827D01*
X0643943Y0111327D02*
Y0113327D01*
X0643443Y0110827D02*
Y0113827D01*
X0627943Y0112327D02*
X0657443D01*
X0660443Y0104827D02*
Y0139827D01*
X0657943Y0104827D02*
Y0139827D01*
X0044471Y-0012569D02*
X0043757Y-0011855D01*
X0042686Y-0011498D01*
X0041258D01*
X0040187Y-0011855D01*
X0039472Y-0012569D01*
Y-0013283D01*
X0039829Y-0013997D01*
X0040187Y-0014354D01*
X0040901Y-0014711D01*
X0043043Y-0015425D01*
X0043757Y-0015782D01*
X0044114Y-0016139D01*
X0044471Y-0016854D01*
Y-0017925D01*
X0043757Y-0018639D01*
X0042686Y-0018996D01*
X0041258D01*
X0040187Y-0018639D01*
X0039472Y-0017925D01*
X0050791Y-0011498D02*
X0046150D01*
Y-0018996D01*
X0050791D01*
X0046150Y-0015068D02*
X0049006D01*
X0056683Y-0011498D02*
X0052041D01*
Y-0018996D01*
X0056683D01*
X0052041Y-0015068D02*
X0054898D01*
X0063824Y-0011498D02*
Y-0018996D01*
Y-0011498D02*
X0066324D01*
X0067395Y-0011855D01*
X0068109Y-0012569D01*
X0068466Y-0013283D01*
X0068823Y-0014354D01*
Y-0016139D01*
X0068466Y-0017211D01*
X0068109Y-0017925D01*
X0067395Y-0018639D01*
X0066324Y-0018996D01*
X0063824D01*
X0075143Y-0011498D02*
X0070502D01*
Y-0018996D01*
X0075143D01*
X0070502Y-0015068D02*
X0073358D01*
X0078892Y-0011498D02*
Y-0018996D01*
X0076393Y-0011498D02*
X0081392D01*
X0087998Y-0018996D02*
X0085141Y-0011498D01*
X0082285Y-0018996D01*
X0083356Y-0016497D02*
X0086927D01*
X0089747Y-0011498D02*
Y-0018996D01*
X0091318Y-0011498D02*
Y-0018996D01*
X0095603D01*
X0108029D02*
X0105173Y-0011498D01*
X0102316Y-0018996D01*
X0103387Y-0016497D02*
X0106958D01*
D126*
X0621693Y0303824D02*
Y0288827D01*
Y0303824D02*
X0626692D01*
X0628834Y0303109D01*
X0630263Y0301681D01*
X0630977Y0300253D01*
X0631691Y0298111D01*
Y0294540D01*
X0630977Y0292397D01*
X0630263Y0290969D01*
X0628834Y0289541D01*
X0626692Y0288827D01*
X0621693D01*
X0644331Y0303824D02*
X0635047D01*
Y0288827D01*
X0644331D01*
X0635047Y0296682D02*
X0640760D01*
X0651829Y0303824D02*
Y0288827D01*
X0646830Y0303824D02*
X0656828D01*
X0670040Y0288827D02*
X0664327Y0303824D01*
X0658614Y0288827D01*
X0660756Y0293826D02*
X0667897D01*
X0673539Y0303824D02*
Y0288827D01*
X0676681Y0303824D02*
Y0288827D01*
X0685251D01*
X0710103D02*
X0704389Y0303824D01*
X0698676Y0288827D01*
X0700819Y0293826D02*
X0707960D01*
X0588583Y0051806D02*
X0590011Y0052520D01*
X0592153Y0054662D01*
Y0039665D01*
X0600294Y0041094D02*
X0599580Y0040380D01*
X0600294Y0039665D01*
X0601009Y0040380D01*
X0600294Y0041094D01*
X0612863Y0054662D02*
X0605722D01*
X0605008Y0048235D01*
X0605722Y0048949D01*
X0607864Y0049663D01*
X0610007D01*
X0612149Y0048949D01*
X0613577Y0047521D01*
X0614291Y0045378D01*
Y0043950D01*
X0613577Y0041808D01*
X0612149Y0040380D01*
X0610007Y0039665D01*
X0607864D01*
X0605722Y0040380D01*
X0605008Y0041094D01*
X0604294Y0042522D01*
X0627646Y0054662D02*
X0620504Y0039665D01*
X0617648Y0054662D02*
X0627646D01*
X0637429Y0052520D02*
Y0039665D01*
X0631002Y0046093D02*
X0643856D01*
X0648284D02*
X0661139D01*
X0669851Y0054662D02*
X0667709Y0053948D01*
X0666280Y0051806D01*
X0665566Y0048235D01*
Y0046093D01*
X0666280Y0042522D01*
X0667709Y0040380D01*
X0669851Y0039665D01*
X0671279D01*
X0673422Y0040380D01*
X0674850Y0042522D01*
X0675564Y0046093D01*
Y0048235D01*
X0674850Y0051806D01*
X0673422Y0053948D01*
X0671279Y0054662D01*
X0669851D01*
X0679635Y0041094D02*
X0678921Y0040380D01*
X0679635Y0039665D01*
X0680349Y0040380D01*
X0679635Y0041094D01*
X0683634Y0051806D02*
X0685062Y0052520D01*
X0687204Y0054662D01*
Y0039665D01*
X0698202Y0054662D02*
X0696060Y0053948D01*
X0695345Y0052520D01*
Y0051091D01*
X0696060Y0049663D01*
X0697488Y0048949D01*
X0700344Y0048235D01*
X0702487Y0047521D01*
X0703915Y0046093D01*
X0704629Y0044664D01*
Y0042522D01*
X0703915Y0041094D01*
X0703201Y0040380D01*
X0701059Y0039665D01*
X0698202D01*
X0696060Y0040380D01*
X0695345Y0041094D01*
X0694631Y0042522D01*
Y0044664D01*
X0695345Y0046093D01*
X0696774Y0047521D01*
X0698916Y0048235D01*
X0701773Y0048949D01*
X0703201Y0049663D01*
X0703915Y0051091D01*
Y0052520D01*
X0703201Y0053948D01*
X0701059Y0054662D01*
X0698202D01*
X0588583Y0079072D02*
Y0064075D01*
Y0071930D02*
X0590011Y0073359D01*
X0591439Y0074073D01*
X0593582D01*
X0595010Y0073359D01*
X0596438Y0071930D01*
X0597152Y0069788D01*
Y0068360D01*
X0596438Y0066217D01*
X0595010Y0064789D01*
X0593582Y0064075D01*
X0591439D01*
X0590011Y0064789D01*
X0588583Y0066217D01*
X0603936Y0074073D02*
X0602508Y0073359D01*
X0601080Y0071930D01*
X0600366Y0069788D01*
Y0068360D01*
X0601080Y0066217D01*
X0602508Y0064789D01*
X0603936Y0064075D01*
X0606079D01*
X0607507Y0064789D01*
X0608935Y0066217D01*
X0609650Y0068360D01*
Y0069788D01*
X0608935Y0071930D01*
X0607507Y0073359D01*
X0606079Y0074073D01*
X0603936D01*
X0621504D02*
Y0064075D01*
Y0071930D02*
X0620076Y0073359D01*
X0618648Y0074073D01*
X0616505D01*
X0615077Y0073359D01*
X0613649Y0071930D01*
X0612935Y0069788D01*
Y0068360D01*
X0613649Y0066217D01*
X0615077Y0064789D01*
X0616505Y0064075D01*
X0618648D01*
X0620076Y0064789D01*
X0621504Y0066217D01*
X0625503Y0074073D02*
Y0064075D01*
Y0069788D02*
X0626218Y0071930D01*
X0627646Y0073359D01*
X0629074Y0074073D01*
X0631216D01*
X0641143Y0079072D02*
Y0064075D01*
Y0071930D02*
X0639715Y0073359D01*
X0638286Y0074073D01*
X0636144D01*
X0634716Y0073359D01*
X0633287Y0071930D01*
X0632573Y0069788D01*
Y0068360D01*
X0633287Y0066217D01*
X0634716Y0064789D01*
X0636144Y0064075D01*
X0638286D01*
X0639715Y0064789D01*
X0641143Y0066217D01*
X0659068Y0079072D02*
Y0066931D01*
X0659782Y0064789D01*
X0661210Y0064075D01*
X0662638D01*
X0656925Y0074073D02*
X0661924D01*
X0664781Y0079072D02*
Y0064075D01*
Y0071216D02*
X0666923Y0073359D01*
X0668351Y0074073D01*
X0670494D01*
X0671922Y0073359D01*
X0672636Y0071216D01*
Y0064075D01*
X0677992Y0079072D02*
X0678706Y0078357D01*
X0679420Y0079072D01*
X0678706Y0079786D01*
X0677992Y0079072D01*
X0678706Y0074073D02*
Y0064075D01*
X0690632Y0071930D02*
X0689204Y0073359D01*
X0687776Y0074073D01*
X0685633D01*
X0684205Y0073359D01*
X0682777Y0071930D01*
X0682063Y0069788D01*
Y0068360D01*
X0682777Y0066217D01*
X0684205Y0064789D01*
X0685633Y0064075D01*
X0687776D01*
X0689204Y0064789D01*
X0690632Y0066217D01*
X0693846Y0079072D02*
Y0064075D01*
X0700987Y0074073D02*
X0693846Y0066931D01*
X0696702Y0069788D02*
X0701701Y0064075D01*
X0704058Y0074073D02*
Y0064075D01*
Y0071216D02*
X0706200Y0073359D01*
X0707629Y0074073D01*
X0709771D01*
X0711199Y0073359D01*
X0711913Y0071216D01*
Y0064075D01*
X0715841Y0069788D02*
X0724411D01*
Y0071216D01*
X0723697Y0072644D01*
X0722982Y0073359D01*
X0721554Y0074073D01*
X0719412D01*
X0717983Y0073359D01*
X0716555Y0071930D01*
X0715841Y0069788D01*
Y0068360D01*
X0716555Y0066217D01*
X0717983Y0064789D01*
X0719412Y0064075D01*
X0721554D01*
X0722982Y0064789D01*
X0724411Y0066217D01*
X0735480Y0071930D02*
X0734766Y0073359D01*
X0732623Y0074073D01*
X0730481D01*
X0728338Y0073359D01*
X0727624Y0071930D01*
X0728338Y0070502D01*
X0729767Y0069788D01*
X0733337Y0069074D01*
X0734766Y0068360D01*
X0735480Y0066931D01*
Y0066217D01*
X0734766Y0064789D01*
X0732623Y0064075D01*
X0730481D01*
X0728338Y0064789D01*
X0727624Y0066217D01*
X0746477Y0071930D02*
X0745763Y0073359D01*
X0743621Y0074073D01*
X0741478D01*
X0739336Y0073359D01*
X0738622Y0071930D01*
X0739336Y0070502D01*
X0740764Y0069788D01*
X0744335Y0069074D01*
X0745763Y0068360D01*
X0746477Y0066931D01*
Y0066217D01*
X0745763Y0064789D01*
X0743621Y0064075D01*
X0741478D01*
X0739336Y0064789D01*
X0738622Y0066217D01*
X0604724Y0005175D02*
Y-0001966D01*
X0605439Y-0004109D01*
X0606867Y-0004823D01*
X0609009D01*
X0610437Y-0004109D01*
X0612580Y-0001966D01*
Y0005175D02*
Y-0004823D01*
X0616508Y0005175D02*
Y-0004823D01*
Y0002318D02*
X0618650Y0004461D01*
X0620078Y0005175D01*
X0622221D01*
X0623649Y0004461D01*
X0624363Y0002318D01*
Y-0004823D01*
X0629719Y0010174D02*
X0630433Y0009460D01*
X0631147Y0010174D01*
X0630433Y0010888D01*
X0629719Y0010174D01*
X0630433Y0005175D02*
Y-0004823D01*
X0635932Y0010174D02*
Y-0001966D01*
X0636646Y-0004109D01*
X0638074Y-0004823D01*
X0639503D01*
X0633790Y0005175D02*
X0638789D01*
X0649501Y0003033D02*
X0648786Y0004461D01*
X0646644Y0005175D01*
X0644502D01*
X0642359Y0004461D01*
X0641645Y0003033D01*
X0642359Y0001604D01*
X0643787Y0000890D01*
X0647358Y0000176D01*
X0648786Y-0000538D01*
X0649501Y-0001966D01*
Y-0002680D01*
X0648786Y-0004109D01*
X0646644Y-0004823D01*
X0644502D01*
X0642359Y-0004109D01*
X0641645Y-0002680D01*
X0664426Y0003747D02*
X0677280D01*
X0664426Y-0000538D02*
X0677280D01*
X0693491Y0005175D02*
Y-0004823D01*
Y0002318D02*
X0695634Y0004461D01*
X0697062Y0005175D01*
X0699204D01*
X0700632Y0004461D01*
X0701347Y0002318D01*
Y-0004823D01*
Y0002318D02*
X0703489Y0004461D01*
X0704917Y0005175D01*
X0707060D01*
X0708488Y0004461D01*
X0709202Y0002318D01*
Y-0004823D01*
X0713915Y0005175D02*
Y-0004823D01*
Y0002318D02*
X0716058Y0004461D01*
X0717486Y0005175D01*
X0719628D01*
X0721057Y0004461D01*
X0721771Y0002318D01*
Y-0004823D01*
Y0002318D02*
X0723913Y0004461D01*
X0725341Y0005175D01*
X0727484D01*
X0728912Y0004461D01*
X0729626Y0002318D01*
Y-0004823D01*
M02*
