M48
;Layer_Color=9474304
;FILE_FORMAT=2:3
INCH,LZ
;TYPE=PLATED
T1F00S00C0.010
T2F00S00C0.013
T3F00S00C0.020
T4F00S00C0.028
T5F00S00C0.035
T6F00S00C0.036
T7F00S00C0.079
T8F00S00C0.091
T9F00S00C0.125
%
T01
X-00046Y00305
X-00015Y00303
X00016
Y00357
X-00016
X-00047
X00494Y00355
X00533
X00573
Y00395
X00534
X00494
X01105Y00407
X01143
Y0045
X01105
X01343Y00184
X01393Y00144
X01441Y00184
X01493Y00144
X01705Y00223
X01764Y00349
X01598Y00471
X01606Y00656
X01949Y00468
X01938Y01468
X01843Y0146
X02043Y01393
X02421Y0157
X02728Y01597
X03476Y01558
X03429Y00826
X03449Y00601
X03331
X0335Y00464
X03173Y00385
X03083Y0033
X03146Y00263
X03256Y00294
X03393Y00148
X03516Y0033
X03016Y00468
X0289Y00464
X0287Y00613
X02949
X03008Y00617
X03059Y0081
X02559Y00613
X02425
X02429Y00464
X02551Y00468
X02587Y00334
X02665Y00259
X02783Y0029
X02943Y00147
X02493Y00148
X02224Y00263
X02157Y00334
X02252Y00385
X02091Y00468
X02067Y00609
X01976Y00605
X02043Y00149
X03598Y00235
X03681Y00275
X03717Y0031
X03673Y00495
X03571Y00507
X03795Y00621
X03945Y00491
X03961Y00365
X04104Y00288
X04104Y00241
X04155
Y00288
X04203
Y00241
X04193Y00148
X04242Y00149
X04293Y00147
X04343Y00148
X04394Y00208
X04508Y00361
X04528Y00483
X04743Y0034
X04742Y00292
X04794
Y0034
X05028Y00609
X05031Y01298
X0502Y01515
X04976
Y01562
X0502
X04143Y00148
X04268Y01987
X04614Y01968
Y01932
X04657
Y01968
X04819Y0218
X04854Y0229
X04992Y02345
X05071Y02066
X04957Y01806
X03843Y01908
X03717Y01849
X03724Y02054
X03906Y02097
X03776Y02275
X03736Y02275
X03697Y02275
X03657
X03618
X03579
Y02314
X03618Y02314
X03657
X03657Y02353
X03697Y02353
X03697Y02393
X03736Y02393
X03736Y02432
X03776Y02432
X03815
X03776Y02471
Y02511
X03736Y02511
X03697
X03697Y0255
X03736Y0255
X03776Y0255
Y0259
X03736
X03697
X03657Y0259
Y02629
Y02668
X03697
X03736Y02668
Y02629
X03776Y02629
X03776Y02668
X03776Y02708
X03736Y02708
X03697Y02708
X03657Y02708
X03618
X03579
X03539
Y02668
X03579Y02668
Y02629
X03539
Y0259
X03579Y0259
X03618Y0255
X03579Y02471
Y02432
X03657
Y02471
X03697
X03736
X03697Y02432
X03657Y02393
X03618
X03618Y02353
X03579
X03539
Y02314
X03539Y02275
Y02235
Y02196
X03736Y02314
X03736Y02353
X03776Y02353
Y02393
X03776Y02314
X04083Y02381
X04075Y02692
X03902Y02928
X03536Y02915
X03559Y02869
X03697Y02747
X04213Y03074
X04508Y03063
X04903Y03062
X0448Y0255
X035Y0255
X03461
Y02471
X03421
Y02432
X03421Y02393
X03382Y02393
X03382Y02353
X03343Y02353
X03343Y02314
X03343Y02275
X03382Y02275
Y02314
X03421Y02314
X03421Y02275
Y02235
X03382Y02235
X03303Y02235
X03362Y02107
X03213Y02125
X03209Y02011
X03205Y01964
X03211Y01927
X03209Y01868
X0317Y01888
X03102Y01897
X03267Y01962
X03339Y01761
X03446Y01868
X03461Y02275
Y02314
X035Y02314
Y02353
X03461Y02353
Y02393
X03343
Y02432
X03382
X03382Y02471
X03382Y0255
X03343Y0255
Y02628
Y02668
X03382Y02668
X03421Y02668
X03461
Y02629
X03461Y02708
X03421
X03382
X03344Y02707
X03303Y02708
X03421Y02747
X035Y02708
X03213Y02814
X03238Y02965
X02991Y02966
X03022Y02804
X02894Y02782
X02917Y02574
X03049Y02545
X03126Y02462
X0276Y02389
X02587Y02401
X02469Y02385
Y02424
Y02464
X02429
X0239
Y02503
X02429
Y02542
X0239
X0235
Y02503
Y02464
Y02424
X0239
X02429
Y02385
X0239
X0235
X02311
Y02424
Y02464
Y02503
Y02542
X02291Y0266
X0211Y02668
X02138Y02743
X02327Y02834
X0252Y02755
X02508Y02653
X02591Y02597
X02673Y02578
X02712Y02581
X02469Y02542
Y02503
X02516Y02282
X02512Y02176
X02421Y02188
X02327Y02192
X02295
X02224
X02134Y02275
X02106Y02381
Y02424
X02126Y02452
X02102Y02495
X02156Y01859
X02208Y01833
X02207Y01745
X02113Y01749
X02443Y01688
X02594Y01697
X02646Y01705
X02705Y01672
X02752Y01676
X02843Y01712
X02854Y01853
X0285Y0194
X02965Y02141
X02661Y02235
X02453Y01987
X02437Y0192
X03031Y01708
X035Y02275
X02693Y02941
X02508Y02955
X01894Y02944
X01895Y03019
Y03062
X01933Y02546
X01937Y02385
X01901Y02361
X01021Y02323
X00925Y02408
X00798Y02407
X00735Y02423
X00653Y02427
X00637Y02624
X00727Y02605
Y02781
X00527Y02699
X00952Y02591
X01034Y02742
X00083Y02054
X00047Y0179
X01832Y0324
X01904Y03513
X02031Y03406
X01996Y03276
Y03209
X02067Y0324
X0325Y03278
X03311Y03278
X03361Y03279
X03411Y03279
X03461Y03279
X03226Y03454
X04085Y03414
X0426Y03456
X04514Y03264
X04783Y03188
X04902Y03282
X04167Y03906
T02
X00814Y02494
X00861
Y02541
X00814
T03
X01101Y03486
T04
X00043Y01511
X0028
X00492
X00705
X00917
X01138
X03938Y01282
X04011Y01334
X03848Y00871
X03753
X05343Y00849
Y01031
Y01212
Y01401
Y01582
Y00668
Y01763
Y01944
Y02125
Y02298
Y02487
Y02692
Y02889
Y03078
X01614Y03117
Y03027
Y0294
Y02853
Y02767
Y0268
Y02594
X01244Y02038
X01138
X01031
X00925
X00819
X00713
X00606
X005
X00394
X0028
X-00067Y02416
Y02534
Y02653
Y02771
Y02889
Y03015
Y03133
Y03251
Y03361
Y03479
Y03597
X0076Y03743
X0085
X00941
X01031
X01126
X01217
X01307
X01398
X01488
X01594
Y03653
Y03471
Y03381
X01614Y03204
X05343Y03259
Y03456
T05
X01835Y0109
Y0119
X01935
Y0109
X01939Y01574
X01839
X02039
X02139
X02239
X02235Y0119
X02135
X02035
Y0109
X02135
X02235
X02239Y01674
X02139
X02039
X01939
X01839
X01457Y03543
X01357
Y03643
X01257Y03543
X0255Y03801
X0265
X0275
X0285
Y03901
X0275
X0265
X0255
T06
X04486Y03672
Y03751
X04585
Y03672
T07
X-00028Y01371
X00169
Y01666
X-00028
T08
X04298Y03858
X04772
T09
X05335Y00362
X05345Y03806
M30
